<?xml version="1.0" encoding="utf-8" standalone="no"?>
<!DOCTYPE svg PUBLIC "-//W3C//DTD SVG 1.1//EN"
  "http://www.w3.org/Graphics/SVG/1.1/DTD/svg11.dtd">
<svg xmlns:xlink="http://www.w3.org/1999/xlink" width="460.8pt" height="345.6pt" viewBox="0 0 460.8 345.6" xmlns="http://www.w3.org/2000/svg" version="1.1">
 <metadata>
  <rdf:RDF xmlns:dc="http://purl.org/dc/elements/1.1/" xmlns:cc="http://creativecommons.org/ns#" xmlns:rdf="http://www.w3.org/1999/02/22-rdf-syntax-ns#">
   <cc:Work>
    <dc:type rdf:resource="http://purl.org/dc/dcmitype/StillImage"/>
    <dc:date>2023-02-20T08:20:45.664218</dc:date>
    <dc:format>image/svg+xml</dc:format>
    <dc:creator>
     <cc:Agent>
      <dc:title>Matplotlib v3.6.3, https://matplotlib.org/</dc:title>
     </cc:Agent>
    </dc:creator>
   </cc:Work>
  </rdf:RDF>
 </metadata>
 <defs>
  <style type="text/css">*{stroke-linejoin: round; stroke-linecap: butt}</style>
 </defs>
 <g id="figure_1">
  <g id="patch_1">
   <path d="M 0 345.6 
L 460.8 345.6 
L 460.8 0 
L 0 0 
z
" style="fill: #ffffff"/>
  </g>
  <g id="patch_2">
   <path d="M 103.104 307.584 
L 369.216 307.584 
L 369.216 41.472 
L 103.104 41.472 
z
" style="fill: #ffffff"/>
  </g>
  <g id="pane3d_1">
   <g id="patch_3">
    <path d="M 123.197291 241.969309 
L 211.076164 168.307495 
L 209.854564 62.073991 
L 117.770234 129.272941 
" style="fill: #f2f2f2; opacity: 0.5; stroke: #f2f2f2; stroke-linejoin: miter"/>
   </g>
  </g>
  <g id="pane3d_2">
   <g id="patch_4">
    <path d="M 211.076164 168.307495 
L 352.090401 209.294766 
L 357.122702 99.402171 
L 209.854564 62.073991 
" style="fill: #e6e6e6; opacity: 0.5; stroke: #e6e6e6; stroke-linejoin: miter"/>
   </g>
  </g>
  <g id="pane3d_3">
   <g id="patch_5">
    <path d="M 123.197291 241.969309 
L 272.679269 290.790123 
L 352.090401 209.294766 
L 211.076164 168.307495 
" style="fill: #ececec; opacity: 0.5; stroke: #ececec; stroke-linejoin: miter"/>
   </g>
  </g>
  <g id="axis3d_1">
   <g id="line2d_1">
    <path d="M 123.197291 241.969309 
L 272.679269 290.790123 
" style="fill: none; stroke: #000000; stroke-width: 0.8; stroke-linecap: square"/>
   </g>
   <g id="text_1">
    <!-- Year -->
    <g transform="translate(167.773914 306.614678) scale(0.1 -0.1)">
     <defs>
      <path id="DejaVuSans-59" d="M -13 4666 
L 666 4666 
L 1959 2747 
L 3244 4666 
L 3922 4666 
L 2272 2222 
L 2272 0 
L 1638 0 
L 1638 2222 
L -13 4666 
z
" transform="scale(0.015625)"/>
      <path id="DejaVuSans-65" d="M 3597 1894 
L 3597 1613 
L 953 1613 
Q 991 1019 1311 708 
Q 1631 397 2203 397 
Q 2534 397 2845 478 
Q 3156 559 3463 722 
L 3463 178 
Q 3153 47 2828 -22 
Q 2503 -91 2169 -91 
Q 1331 -91 842 396 
Q 353 884 353 1716 
Q 353 2575 817 3079 
Q 1281 3584 2069 3584 
Q 2775 3584 3186 3129 
Q 3597 2675 3597 1894 
z
M 3022 2063 
Q 3016 2534 2758 2815 
Q 2500 3097 2075 3097 
Q 1594 3097 1305 2825 
Q 1016 2553 972 2059 
L 3022 2063 
z
" transform="scale(0.015625)"/>
      <path id="DejaVuSans-61" d="M 2194 1759 
Q 1497 1759 1228 1600 
Q 959 1441 959 1056 
Q 959 750 1161 570 
Q 1363 391 1709 391 
Q 2188 391 2477 730 
Q 2766 1069 2766 1631 
L 2766 1759 
L 2194 1759 
z
M 3341 1997 
L 3341 0 
L 2766 0 
L 2766 531 
Q 2569 213 2275 61 
Q 1981 -91 1556 -91 
Q 1019 -91 701 211 
Q 384 513 384 1019 
Q 384 1609 779 1909 
Q 1175 2209 1959 2209 
L 2766 2209 
L 2766 2266 
Q 2766 2663 2505 2880 
Q 2244 3097 1772 3097 
Q 1472 3097 1187 3025 
Q 903 2953 641 2809 
L 641 3341 
Q 956 3463 1253 3523 
Q 1550 3584 1831 3584 
Q 2591 3584 2966 3190 
Q 3341 2797 3341 1997 
z
" transform="scale(0.015625)"/>
      <path id="DejaVuSans-72" d="M 2631 2963 
Q 2534 3019 2420 3045 
Q 2306 3072 2169 3072 
Q 1681 3072 1420 2755 
Q 1159 2438 1159 1844 
L 1159 0 
L 581 0 
L 581 3500 
L 1159 3500 
L 1159 2956 
Q 1341 3275 1631 3429 
Q 1922 3584 2338 3584 
Q 2397 3584 2469 3576 
Q 2541 3569 2628 3553 
L 2631 2963 
z
" transform="scale(0.015625)"/>
     </defs>
     <use xlink:href="#DejaVuSans-59"/>
     <use xlink:href="#DejaVuSans-65" x="47.833984"/>
     <use xlink:href="#DejaVuSans-61" x="109.357422"/>
     <use xlink:href="#DejaVuSans-72" x="170.636719"/>
    </g>
   </g>
   <g id="Line3DCollection_1">
    <path d="M 137.050096 246.493635 
L 224.19669 172.121114 
L 223.530765 65.540509 
" style="fill: none; stroke: #b0b0b0; stroke-width: 0.8"/>
    <path d="M 161.298762 254.413249 
L 247.137662 178.789149 
L 247.456226 71.604916 
" style="fill: none; stroke: #b0b0b0; stroke-width: 0.8"/>
    <path d="M 185.975073 262.472533 
L 270.44947 185.564971 
L 271.78527 77.77162 
" style="fill: none; stroke: #b0b0b0; stroke-width: 0.8"/>
    <path d="M 211.090443 270.675212 
L 294.141179 192.451215 
L 296.528194 84.043229 
" style="fill: none; stroke: #b0b0b0; stroke-width: 0.8"/>
    <path d="M 236.656695 279.02515 
L 318.222153 199.450604 
L 321.69565 90.422446 
" style="fill: none; stroke: #b0b0b0; stroke-width: 0.8"/>
    <path d="M 262.686081 287.526347 
L 342.702063 206.565947 
L 347.298659 96.912062 
" style="fill: none; stroke: #b0b0b0; stroke-width: 0.8"/>
   </g>
   <g id="xtick_1">
    <g id="line2d_2">
     <path d="M 137.809071 245.845912 
L 135.528885 247.791865 
" style="fill: none; stroke: #000000; stroke-width: 0.8; stroke-linecap: square"/>
    </g>
    <g id="text_2">
     <!-- 1950 -->
     <g transform="translate(116.800822 269.835949) scale(0.1 -0.1)">
      <defs>
       <path id="DejaVuSans-31" d="M 794 531 
L 1825 531 
L 1825 4091 
L 703 3866 
L 703 4441 
L 1819 4666 
L 2450 4666 
L 2450 531 
L 3481 531 
L 3481 0 
L 794 0 
L 794 531 
z
" transform="scale(0.015625)"/>
       <path id="DejaVuSans-39" d="M 703 97 
L 703 672 
Q 941 559 1184 500 
Q 1428 441 1663 441 
Q 2288 441 2617 861 
Q 2947 1281 2994 2138 
Q 2813 1869 2534 1725 
Q 2256 1581 1919 1581 
Q 1219 1581 811 2004 
Q 403 2428 403 3163 
Q 403 3881 828 4315 
Q 1253 4750 1959 4750 
Q 2769 4750 3195 4129 
Q 3622 3509 3622 2328 
Q 3622 1225 3098 567 
Q 2575 -91 1691 -91 
Q 1453 -91 1209 -44 
Q 966 3 703 97 
z
M 1959 2075 
Q 2384 2075 2632 2365 
Q 2881 2656 2881 3163 
Q 2881 3666 2632 3958 
Q 2384 4250 1959 4250 
Q 1534 4250 1286 3958 
Q 1038 3666 1038 3163 
Q 1038 2656 1286 2365 
Q 1534 2075 1959 2075 
z
" transform="scale(0.015625)"/>
       <path id="DejaVuSans-35" d="M 691 4666 
L 3169 4666 
L 3169 4134 
L 1269 4134 
L 1269 2991 
Q 1406 3038 1543 3061 
Q 1681 3084 1819 3084 
Q 2600 3084 3056 2656 
Q 3513 2228 3513 1497 
Q 3513 744 3044 326 
Q 2575 -91 1722 -91 
Q 1428 -91 1123 -41 
Q 819 9 494 109 
L 494 744 
Q 775 591 1075 516 
Q 1375 441 1709 441 
Q 2250 441 2565 725 
Q 2881 1009 2881 1497 
Q 2881 1984 2565 2268 
Q 2250 2553 1709 2553 
Q 1456 2553 1204 2497 
Q 953 2441 691 2322 
L 691 4666 
z
" transform="scale(0.015625)"/>
       <path id="DejaVuSans-30" d="M 2034 4250 
Q 1547 4250 1301 3770 
Q 1056 3291 1056 2328 
Q 1056 1369 1301 889 
Q 1547 409 2034 409 
Q 2525 409 2770 889 
Q 3016 1369 3016 2328 
Q 3016 3291 2770 3770 
Q 2525 4250 2034 4250 
z
M 2034 4750 
Q 2819 4750 3233 4129 
Q 3647 3509 3647 2328 
Q 3647 1150 3233 529 
Q 2819 -91 2034 -91 
Q 1250 -91 836 529 
Q 422 1150 422 2328 
Q 422 3509 836 4129 
Q 1250 4750 2034 4750 
z
" transform="scale(0.015625)"/>
      </defs>
      <use xlink:href="#DejaVuSans-31"/>
      <use xlink:href="#DejaVuSans-39" x="63.623047"/>
      <use xlink:href="#DejaVuSans-35" x="127.246094"/>
      <use xlink:href="#DejaVuSans-30" x="190.869141"/>
     </g>
    </g>
   </g>
   <g id="xtick_2">
    <g id="line2d_3">
     <path d="M 162.046879 253.754158 
L 159.799284 255.73429 
" style="fill: none; stroke: #000000; stroke-width: 0.8; stroke-linecap: square"/>
    </g>
    <g id="text_3">
     <!-- 1960 -->
     <g transform="translate(141.07456 277.923444) scale(0.1 -0.1)">
      <defs>
       <path id="DejaVuSans-36" d="M 2113 2584 
Q 1688 2584 1439 2293 
Q 1191 2003 1191 1497 
Q 1191 994 1439 701 
Q 1688 409 2113 409 
Q 2538 409 2786 701 
Q 3034 994 3034 1497 
Q 3034 2003 2786 2293 
Q 2538 2584 2113 2584 
z
M 3366 4563 
L 3366 3988 
Q 3128 4100 2886 4159 
Q 2644 4219 2406 4219 
Q 1781 4219 1451 3797 
Q 1122 3375 1075 2522 
Q 1259 2794 1537 2939 
Q 1816 3084 2150 3084 
Q 2853 3084 3261 2657 
Q 3669 2231 3669 1497 
Q 3669 778 3244 343 
Q 2819 -91 2113 -91 
Q 1303 -91 875 529 
Q 447 1150 447 2328 
Q 447 3434 972 4092 
Q 1497 4750 2381 4750 
Q 2619 4750 2861 4703 
Q 3103 4656 3366 4563 
z
" transform="scale(0.015625)"/>
      </defs>
      <use xlink:href="#DejaVuSans-31"/>
      <use xlink:href="#DejaVuSans-39" x="63.623047"/>
      <use xlink:href="#DejaVuSans-36" x="127.246094"/>
      <use xlink:href="#DejaVuSans-30" x="190.869141"/>
     </g>
    </g>
   </g>
   <g id="xtick_3">
    <g id="line2d_4">
     <path d="M 186.711831 261.80177 
L 184.498335 263.816991 
" style="fill: none; stroke: #000000; stroke-width: 0.8; stroke-linecap: square"/>
    </g>
    <g id="text_4">
     <!-- 1970 -->
     <g transform="translate(165.778007 286.15411) scale(0.1 -0.1)">
      <defs>
       <path id="DejaVuSans-37" d="M 525 4666 
L 3525 4666 
L 3525 4397 
L 1831 0 
L 1172 0 
L 2766 4134 
L 525 4134 
L 525 4666 
z
" transform="scale(0.015625)"/>
      </defs>
      <use xlink:href="#DejaVuSans-31"/>
      <use xlink:href="#DejaVuSans-39" x="63.623047"/>
      <use xlink:href="#DejaVuSans-37" x="127.246094"/>
      <use xlink:href="#DejaVuSans-30" x="190.869141"/>
     </g>
    </g>
   </g>
   <g id="xtick_4">
    <g id="line2d_5">
     <path d="M 211.815317 269.992467 
L 209.637497 272.043717 
" style="fill: none; stroke: #000000; stroke-width: 0.8; stroke-linecap: square"/>
    </g>
    <g id="text_5">
     <!-- 1980 -->
     <g transform="translate(190.922677 294.531781) scale(0.1 -0.1)">
      <defs>
       <path id="DejaVuSans-38" d="M 2034 2216 
Q 1584 2216 1326 1975 
Q 1069 1734 1069 1313 
Q 1069 891 1326 650 
Q 1584 409 2034 409 
Q 2484 409 2743 651 
Q 3003 894 3003 1313 
Q 3003 1734 2745 1975 
Q 2488 2216 2034 2216 
z
M 1403 2484 
Q 997 2584 770 2862 
Q 544 3141 544 3541 
Q 544 4100 942 4425 
Q 1341 4750 2034 4750 
Q 2731 4750 3128 4425 
Q 3525 4100 3525 3541 
Q 3525 3141 3298 2862 
Q 3072 2584 2669 2484 
Q 3125 2378 3379 2068 
Q 3634 1759 3634 1313 
Q 3634 634 3220 271 
Q 2806 -91 2034 -91 
Q 1263 -91 848 271 
Q 434 634 434 1313 
Q 434 1759 690 2068 
Q 947 2378 1403 2484 
z
M 1172 3481 
Q 1172 3119 1398 2916 
Q 1625 2713 2034 2713 
Q 2441 2713 2670 2916 
Q 2900 3119 2900 3481 
Q 2900 3844 2670 4047 
Q 2441 4250 2034 4250 
Q 1625 4250 1398 4047 
Q 1172 3844 1172 3481 
z
" transform="scale(0.015625)"/>
      </defs>
      <use xlink:href="#DejaVuSans-31"/>
      <use xlink:href="#DejaVuSans-39" x="63.623047"/>
      <use xlink:href="#DejaVuSans-38" x="127.246094"/>
      <use xlink:href="#DejaVuSans-30" x="190.869141"/>
     </g>
    </g>
   </g>
   <g id="xtick_5">
    <g id="line2d_6">
     <path d="M 237.369138 278.330097 
L 235.228637 280.418351 
" style="fill: none; stroke: #000000; stroke-width: 0.8; stroke-linecap: square"/>
    </g>
    <g id="text_6">
     <!-- 1990 -->
     <g transform="translate(216.520497 303.060432) scale(0.1 -0.1)">
      <use xlink:href="#DejaVuSans-31"/>
      <use xlink:href="#DejaVuSans-39" x="63.623047"/>
      <use xlink:href="#DejaVuSans-39" x="127.246094"/>
      <use xlink:href="#DejaVuSans-30" x="190.869141"/>
     </g>
    </g>
   </g>
   <g id="xtick_6">
    <g id="line2d_7">
     <path d="M 263.385522 286.818651 
L 261.284057 288.94492 
" style="fill: none; stroke: #000000; stroke-width: 0.8; stroke-linecap: square"/>
    </g>
    <g id="text_7">
     <!-- 2000 -->
     <g transform="translate(242.583827 311.744181) scale(0.1 -0.1)">
      <defs>
       <path id="DejaVuSans-32" d="M 1228 531 
L 3431 531 
L 3431 0 
L 469 0 
L 469 531 
Q 828 903 1448 1529 
Q 2069 2156 2228 2338 
Q 2531 2678 2651 2914 
Q 2772 3150 2772 3378 
Q 2772 3750 2511 3984 
Q 2250 4219 1831 4219 
Q 1534 4219 1204 4116 
Q 875 4013 500 3803 
L 500 4441 
Q 881 4594 1212 4672 
Q 1544 4750 1819 4750 
Q 2544 4750 2975 4387 
Q 3406 4025 3406 3419 
Q 3406 3131 3298 2873 
Q 3191 2616 2906 2266 
Q 2828 2175 2409 1742 
Q 1991 1309 1228 531 
z
" transform="scale(0.015625)"/>
      </defs>
      <use xlink:href="#DejaVuSans-32"/>
      <use xlink:href="#DejaVuSans-30" x="63.623047"/>
      <use xlink:href="#DejaVuSans-30" x="127.246094"/>
      <use xlink:href="#DejaVuSans-30" x="190.869141"/>
     </g>
    </g>
   </g>
  </g>
  <g id="axis3d_2">
   <g id="line2d_8">
    <path d="M 352.090401 209.294766 
L 272.679269 290.790123 
" style="fill: none; stroke: #000000; stroke-width: 0.8; stroke-linecap: square"/>
   </g>
   <g id="text_8">
    <!-- Cultivated -->
    <g transform="translate(331.702867 303.246813) rotate(-45.742112) scale(0.1 -0.1)">
     <defs>
      <path id="DejaVuSans-43" d="M 4122 4306 
L 4122 3641 
Q 3803 3938 3442 4084 
Q 3081 4231 2675 4231 
Q 1875 4231 1450 3742 
Q 1025 3253 1025 2328 
Q 1025 1406 1450 917 
Q 1875 428 2675 428 
Q 3081 428 3442 575 
Q 3803 722 4122 1019 
L 4122 359 
Q 3791 134 3420 21 
Q 3050 -91 2638 -91 
Q 1578 -91 968 557 
Q 359 1206 359 2328 
Q 359 3453 968 4101 
Q 1578 4750 2638 4750 
Q 3056 4750 3426 4639 
Q 3797 4528 4122 4306 
z
" transform="scale(0.015625)"/>
      <path id="DejaVuSans-75" d="M 544 1381 
L 544 3500 
L 1119 3500 
L 1119 1403 
Q 1119 906 1312 657 
Q 1506 409 1894 409 
Q 2359 409 2629 706 
Q 2900 1003 2900 1516 
L 2900 3500 
L 3475 3500 
L 3475 0 
L 2900 0 
L 2900 538 
Q 2691 219 2414 64 
Q 2138 -91 1772 -91 
Q 1169 -91 856 284 
Q 544 659 544 1381 
z
M 1991 3584 
L 1991 3584 
z
" transform="scale(0.015625)"/>
      <path id="DejaVuSans-6c" d="M 603 4863 
L 1178 4863 
L 1178 0 
L 603 0 
L 603 4863 
z
" transform="scale(0.015625)"/>
      <path id="DejaVuSans-74" d="M 1172 4494 
L 1172 3500 
L 2356 3500 
L 2356 3053 
L 1172 3053 
L 1172 1153 
Q 1172 725 1289 603 
Q 1406 481 1766 481 
L 2356 481 
L 2356 0 
L 1766 0 
Q 1100 0 847 248 
Q 594 497 594 1153 
L 594 3053 
L 172 3053 
L 172 3500 
L 594 3500 
L 594 4494 
L 1172 4494 
z
" transform="scale(0.015625)"/>
      <path id="DejaVuSans-69" d="M 603 3500 
L 1178 3500 
L 1178 0 
L 603 0 
L 603 3500 
z
M 603 4863 
L 1178 4863 
L 1178 4134 
L 603 4134 
L 603 4863 
z
" transform="scale(0.015625)"/>
      <path id="DejaVuSans-76" d="M 191 3500 
L 800 3500 
L 1894 563 
L 2988 3500 
L 3597 3500 
L 2284 0 
L 1503 0 
L 191 3500 
z
" transform="scale(0.015625)"/>
      <path id="DejaVuSans-64" d="M 2906 2969 
L 2906 4863 
L 3481 4863 
L 3481 0 
L 2906 0 
L 2906 525 
Q 2725 213 2448 61 
Q 2172 -91 1784 -91 
Q 1150 -91 751 415 
Q 353 922 353 1747 
Q 353 2572 751 3078 
Q 1150 3584 1784 3584 
Q 2172 3584 2448 3432 
Q 2725 3281 2906 2969 
z
M 947 1747 
Q 947 1113 1208 752 
Q 1469 391 1925 391 
Q 2381 391 2643 752 
Q 2906 1113 2906 1747 
Q 2906 2381 2643 2742 
Q 2381 3103 1925 3103 
Q 1469 3103 1208 2742 
Q 947 2381 947 1747 
z
" transform="scale(0.015625)"/>
     </defs>
     <use xlink:href="#DejaVuSans-43"/>
     <use xlink:href="#DejaVuSans-75" x="69.824219"/>
     <use xlink:href="#DejaVuSans-6c" x="133.203125"/>
     <use xlink:href="#DejaVuSans-74" x="160.986328"/>
     <use xlink:href="#DejaVuSans-69" x="200.195312"/>
     <use xlink:href="#DejaVuSans-76" x="227.978516"/>
     <use xlink:href="#DejaVuSans-61" x="287.158203"/>
     <use xlink:href="#DejaVuSans-74" x="348.4375"/>
     <use xlink:href="#DejaVuSans-65" x="387.646484"/>
     <use xlink:href="#DejaVuSans-64" x="449.169922"/>
    </g>
   </g>
   <g id="Line3DCollection_2">
    <path d="M 134.30034 117.210022 
L 138.923385 228.787385 
L 286.941631 276.153431 
" style="fill: none; stroke: #b0b0b0; stroke-width: 0.8"/>
    <path d="M 148.64816 106.739637 
L 152.590707 217.331165 
L 299.318526 263.451691 
" style="fill: none; stroke: #b0b0b0; stroke-width: 0.8"/>
    <path d="M 162.614321 96.547768 
L 165.910004 206.166666 
L 311.363902 251.090172 
" style="fill: none; stroke: #b0b0b0; stroke-width: 0.8"/>
    <path d="M 176.213853 86.623449 
L 178.894403 195.282886 
L 323.090902 239.055385 
" style="fill: none; stroke: #b0b0b0; stroke-width: 0.8"/>
    <path d="M 189.461005 76.956281 
L 191.556377 184.669368 
L 334.511984 227.334545 
" style="fill: none; stroke: #b0b0b0; stroke-width: 0.8"/>
    <path d="M 202.369298 67.536397 
L 203.907788 174.31617 
L 345.638965 215.915526 
" style="fill: none; stroke: #b0b0b0; stroke-width: 0.8"/>
   </g>
   <g id="xtick_7">
    <g id="line2d_9">
     <path d="M 285.694878 275.754468 
L 289.438329 276.952378 
" style="fill: none; stroke: #000000; stroke-width: 0.8; stroke-linecap: square"/>
    </g>
    <g id="text_9">
     <!-- 20000 -->
     <g transform="translate(283.79846 297.041898) scale(0.1 -0.1)">
      <use xlink:href="#DejaVuSans-32"/>
      <use xlink:href="#DejaVuSans-30" x="63.623047"/>
      <use xlink:href="#DejaVuSans-30" x="127.246094"/>
      <use xlink:href="#DejaVuSans-30" x="190.869141"/>
      <use xlink:href="#DejaVuSans-30" x="254.492188"/>
     </g>
    </g>
   </g>
   <g id="xtick_8">
    <g id="line2d_10">
     <path d="M 298.083485 263.063484 
L 301.791729 264.229086 
" style="fill: none; stroke: #000000; stroke-width: 0.8; stroke-linecap: square"/>
    </g>
    <g id="text_10">
     <!-- 40000 -->
     <g transform="translate(296.009243 284.152217) scale(0.1 -0.1)">
      <defs>
       <path id="DejaVuSans-34" d="M 2419 4116 
L 825 1625 
L 2419 1625 
L 2419 4116 
z
M 2253 4666 
L 3047 4666 
L 3047 1625 
L 3713 1625 
L 3713 1100 
L 3047 1100 
L 3047 0 
L 2419 0 
L 2419 1100 
L 313 1100 
L 313 1709 
L 2253 4666 
z
" transform="scale(0.015625)"/>
      </defs>
      <use xlink:href="#DejaVuSans-34"/>
      <use xlink:href="#DejaVuSans-30" x="63.623047"/>
      <use xlink:href="#DejaVuSans-30" x="127.246094"/>
      <use xlink:href="#DejaVuSans-30" x="190.869141"/>
      <use xlink:href="#DejaVuSans-30" x="254.492188"/>
     </g>
    </g>
   </g>
   <g id="xtick_9">
    <g id="line2d_11">
     <path d="M 310.140396 250.712292 
L 313.813964 251.846875 
" style="fill: none; stroke: #000000; stroke-width: 0.8; stroke-linecap: square"/>
    </g>
    <g id="text_11">
     <!-- 60000 -->
     <g transform="translate(307.892767 271.60799) scale(0.1 -0.1)">
      <use xlink:href="#DejaVuSans-36"/>
      <use xlink:href="#DejaVuSans-30" x="63.623047"/>
      <use xlink:href="#DejaVuSans-30" x="127.246094"/>
      <use xlink:href="#DejaVuSans-30" x="190.869141"/>
      <use xlink:href="#DejaVuSans-30" x="254.492188"/>
     </g>
    </g>
   </g>
   <g id="xtick_10">
    <g id="line2d_12">
     <path d="M 321.878757 238.687425 
L 325.518174 239.792211 
" style="fill: none; stroke: #000000; stroke-width: 0.8; stroke-linecap: square"/>
    </g>
    <g id="text_12">
     <!-- 80000 -->
     <g transform="translate(319.462013 259.395513) scale(0.1 -0.1)">
      <use xlink:href="#DejaVuSans-38"/>
      <use xlink:href="#DejaVuSans-30" x="63.623047"/>
      <use xlink:href="#DejaVuSans-30" x="127.246094"/>
      <use xlink:href="#DejaVuSans-30" x="190.869141"/>
      <use xlink:href="#DejaVuSans-30" x="254.492188"/>
     </g>
    </g>
   </g>
   <g id="xtick_11">
    <g id="line2d_13">
     <path d="M 333.311028 226.976119 
L 336.916813 228.052268 
" style="fill: none; stroke: #000000; stroke-width: 0.8; stroke-linecap: square"/>
    </g>
    <g id="text_13">
     <!-- 100000 -->
     <g transform="translate(327.548038 247.501798) scale(0.1 -0.1)">
      <use xlink:href="#DejaVuSans-31"/>
      <use xlink:href="#DejaVuSans-30" x="63.623047"/>
      <use xlink:href="#DejaVuSans-30" x="127.246094"/>
      <use xlink:href="#DejaVuSans-30" x="190.869141"/>
      <use xlink:href="#DejaVuSans-30" x="254.492188"/>
      <use xlink:href="#DejaVuSans-30" x="318.115234"/>
     </g>
    </g>
   </g>
   <g id="xtick_12">
    <g id="line2d_14">
     <path d="M 344.449026 215.566268 
L 348.021695 216.614878 
" style="fill: none; stroke: #000000; stroke-width: 0.8; stroke-linecap: square"/>
    </g>
    <g id="text_14">
     <!-- 120000 -->
     <g transform="translate(338.525011 235.914524) scale(0.1 -0.1)">
      <use xlink:href="#DejaVuSans-31"/>
      <use xlink:href="#DejaVuSans-32" x="63.623047"/>
      <use xlink:href="#DejaVuSans-30" x="127.246094"/>
      <use xlink:href="#DejaVuSans-30" x="190.869141"/>
      <use xlink:href="#DejaVuSans-30" x="254.492188"/>
      <use xlink:href="#DejaVuSans-30" x="318.115234"/>
     </g>
    </g>
   </g>
  </g>
  <g id="axis3d_3">
   <g id="line2d_15">
    <path d="M 352.090401 209.294766 
L 357.122702 99.402171 
" style="fill: none; stroke: #000000; stroke-width: 0.8; stroke-linecap: square"/>
   </g>
   <g id="text_15">
    <!-- Forest -->
    <g transform="translate(406.592645 164.303782) rotate(-87.378092) scale(0.1 -0.1)">
     <defs>
      <path id="DejaVuSans-46" d="M 628 4666 
L 3309 4666 
L 3309 4134 
L 1259 4134 
L 1259 2759 
L 3109 2759 
L 3109 2228 
L 1259 2228 
L 1259 0 
L 628 0 
L 628 4666 
z
" transform="scale(0.015625)"/>
      <path id="DejaVuSans-6f" d="M 1959 3097 
Q 1497 3097 1228 2736 
Q 959 2375 959 1747 
Q 959 1119 1226 758 
Q 1494 397 1959 397 
Q 2419 397 2687 759 
Q 2956 1122 2956 1747 
Q 2956 2369 2687 2733 
Q 2419 3097 1959 3097 
z
M 1959 3584 
Q 2709 3584 3137 3096 
Q 3566 2609 3566 1747 
Q 3566 888 3137 398 
Q 2709 -91 1959 -91 
Q 1206 -91 779 398 
Q 353 888 353 1747 
Q 353 2609 779 3096 
Q 1206 3584 1959 3584 
z
" transform="scale(0.015625)"/>
      <path id="DejaVuSans-73" d="M 2834 3397 
L 2834 2853 
Q 2591 2978 2328 3040 
Q 2066 3103 1784 3103 
Q 1356 3103 1142 2972 
Q 928 2841 928 2578 
Q 928 2378 1081 2264 
Q 1234 2150 1697 2047 
L 1894 2003 
Q 2506 1872 2764 1633 
Q 3022 1394 3022 966 
Q 3022 478 2636 193 
Q 2250 -91 1575 -91 
Q 1294 -91 989 -36 
Q 684 19 347 128 
L 347 722 
Q 666 556 975 473 
Q 1284 391 1588 391 
Q 1994 391 2212 530 
Q 2431 669 2431 922 
Q 2431 1156 2273 1281 
Q 2116 1406 1581 1522 
L 1381 1569 
Q 847 1681 609 1914 
Q 372 2147 372 2553 
Q 372 3047 722 3315 
Q 1072 3584 1716 3584 
Q 2034 3584 2315 3537 
Q 2597 3491 2834 3397 
z
" transform="scale(0.015625)"/>
     </defs>
     <use xlink:href="#DejaVuSans-46"/>
     <use xlink:href="#DejaVuSans-6f" x="53.894531"/>
     <use xlink:href="#DejaVuSans-72" x="115.076172"/>
     <use xlink:href="#DejaVuSans-65" x="153.939453"/>
     <use xlink:href="#DejaVuSans-73" x="215.462891"/>
     <use xlink:href="#DejaVuSans-74" x="267.5625"/>
    </g>
   </g>
   <g id="Line3DCollection_3">
    <path d="M 352.18806 207.162132 
L 211.052408 166.241599 
L 123.092145 239.785877 
" style="fill: none; stroke: #b0b0b0; stroke-width: 0.8"/>
    <path d="M 352.910331 191.389577 
L 210.876773 150.967886 
L 122.314289 223.633193 
" style="fill: none; stroke: #b0b0b0; stroke-width: 0.8"/>
    <path d="M 353.641942 175.413064 
L 210.698975 135.506105 
L 121.52599 207.263667 
" style="fill: none; stroke: #b0b0b0; stroke-width: 0.8"/>
    <path d="M 354.383075 159.22861 
L 210.518974 119.852761 
L 120.727038 190.672903 
" style="fill: none; stroke: #b0b0b0; stroke-width: 0.8"/>
    <path d="M 355.133918 142.832129 
L 210.336729 104.004271 
L 119.917214 173.856387 
" style="fill: none; stroke: #b0b0b0; stroke-width: 0.8"/>
    <path d="M 355.894661 126.219429 
L 210.152197 87.956965 
L 119.096296 156.809477 
" style="fill: none; stroke: #b0b0b0; stroke-width: 0.8"/>
    <path d="M 356.665504 109.386202 
L 209.965337 71.707076 
L 118.264052 139.527408 
" style="fill: none; stroke: #b0b0b0; stroke-width: 0.8"/>
   </g>
   <g id="xtick_13">
    <g id="line2d_16">
     <path d="M 351.003495 206.818683 
L 354.56001 207.84985 
" style="fill: none; stroke: #000000; stroke-width: 0.8; stroke-linecap: square"/>
    </g>
    <g id="text_16">
     <!-- 20000 -->
     <g transform="translate(358.501948 211.596375) scale(0.1 -0.1)">
      <use xlink:href="#DejaVuSans-32"/>
      <use xlink:href="#DejaVuSans-30" x="63.623047"/>
      <use xlink:href="#DejaVuSans-30" x="127.246094"/>
      <use xlink:href="#DejaVuSans-30" x="190.869141"/>
      <use xlink:href="#DejaVuSans-30" x="254.492188"/>
     </g>
    </g>
   </g>
   <g id="xtick_14">
    <g id="line2d_17">
     <path d="M 351.717871 191.050212 
L 355.298108 192.069121 
" style="fill: none; stroke: #000000; stroke-width: 0.8; stroke-linecap: square"/>
    </g>
    <g id="text_17">
     <!-- 40000 -->
     <g transform="translate(359.363785 195.861518) scale(0.1 -0.1)">
      <use xlink:href="#DejaVuSans-34"/>
      <use xlink:href="#DejaVuSans-30" x="63.623047"/>
      <use xlink:href="#DejaVuSans-30" x="127.246094"/>
      <use xlink:href="#DejaVuSans-30" x="190.869141"/>
      <use xlink:href="#DejaVuSans-30" x="254.492188"/>
     </g>
    </g>
   </g>
   <g id="xtick_15">
    <g id="line2d_18">
     <path d="M 352.441482 175.077918 
L 356.045757 176.084163 
" style="fill: none; stroke: #000000; stroke-width: 0.8; stroke-linecap: square"/>
    </g>
    <g id="text_18">
     <!-- 60000 -->
     <g transform="translate(360.236725 179.923943) scale(0.1 -0.1)">
      <use xlink:href="#DejaVuSans-36"/>
      <use xlink:href="#DejaVuSans-30" x="63.623047"/>
      <use xlink:href="#DejaVuSans-30" x="127.246094"/>
      <use xlink:href="#DejaVuSans-30" x="190.869141"/>
      <use xlink:href="#DejaVuSans-30" x="254.492188"/>
     </g>
    </g>
   </g>
   <g id="xtick_16">
    <g id="line2d_19">
     <path d="M 353.174506 158.897822 
L 356.803146 159.890987 
" style="fill: none; stroke: #000000; stroke-width: 0.8; stroke-linecap: square"/>
    </g>
    <g id="text_19">
     <!-- 80000 -->
     <g transform="translate(361.120985 163.779706) scale(0.1 -0.1)">
      <use xlink:href="#DejaVuSans-38"/>
      <use xlink:href="#DejaVuSans-30" x="63.623047"/>
      <use xlink:href="#DejaVuSans-30" x="127.246094"/>
      <use xlink:href="#DejaVuSans-30" x="190.869141"/>
      <use xlink:href="#DejaVuSans-30" x="254.492188"/>
     </g>
    </g>
   </g>
   <g id="xtick_17">
    <g id="line2d_20">
     <path d="M 353.91713 142.505844 
L 357.570465 143.485498 
" style="fill: none; stroke: #000000; stroke-width: 0.8; stroke-linecap: square"/>
    </g>
    <g id="text_20">
     <!-- 100000 -->
     <g transform="translate(358.835535 147.424762) scale(0.1 -0.1)">
      <use xlink:href="#DejaVuSans-31"/>
      <use xlink:href="#DejaVuSans-30" x="63.623047"/>
      <use xlink:href="#DejaVuSans-30" x="127.246094"/>
      <use xlink:href="#DejaVuSans-30" x="190.869141"/>
      <use xlink:href="#DejaVuSans-30" x="254.492188"/>
      <use xlink:href="#DejaVuSans-30" x="318.115234"/>
     </g>
    </g>
   </g>
   <g id="xtick_18">
    <g id="line2d_21">
     <path d="M 354.669543 125.897792 
L 358.347911 126.863492 
" style="fill: none; stroke: #000000; stroke-width: 0.8; stroke-linecap: square"/>
    </g>
    <g id="text_21">
     <!-- 120000 -->
     <g transform="translate(359.743104 130.854959) scale(0.1 -0.1)">
      <use xlink:href="#DejaVuSans-31"/>
      <use xlink:href="#DejaVuSans-32" x="63.623047"/>
      <use xlink:href="#DejaVuSans-30" x="127.246094"/>
      <use xlink:href="#DejaVuSans-30" x="190.869141"/>
      <use xlink:href="#DejaVuSans-30" x="254.492188"/>
      <use xlink:href="#DejaVuSans-30" x="318.115234"/>
     </g>
    </g>
   </g>
   <g id="xtick_19">
    <g id="line2d_22">
     <path d="M 355.43194 109.069368 
L 359.135685 110.020654 
" style="fill: none; stroke: #000000; stroke-width: 0.8; stroke-linecap: square"/>
    </g>
    <g id="text_22">
     <!-- 140000 -->
     <g transform="translate(360.662674 114.066034) scale(0.1 -0.1)">
      <use xlink:href="#DejaVuSans-31"/>
      <use xlink:href="#DejaVuSans-34" x="63.623047"/>
      <use xlink:href="#DejaVuSans-30" x="127.246094"/>
      <use xlink:href="#DejaVuSans-30" x="190.869141"/>
      <use xlink:href="#DejaVuSans-30" x="254.492188"/>
      <use xlink:href="#DejaVuSans-30" x="318.115234"/>
     </g>
    </g>
   </g>
  </g>
  <g id="axes_1">
   <g id="Path3DCollection_1">
    <defs>
     <path id="C0_0_675cd8dd59" d="M 0 2.236068 
C 0.593012 2.236068 1.161816 2.000462 1.581139 1.581139 
C 2.000462 1.161816 2.236068 0.593012 2.236068 -0 
C 2.236068 -0.593012 2.000462 -1.161816 1.581139 -1.581139 
C 1.161816 -2.000462 0.593012 -2.236068 0 -2.236068 
C -0.593012 -2.236068 -1.161816 -2.000462 -1.581139 -1.581139 
C -2.000462 -1.161816 -2.236068 -0.593012 -2.236068 0 
C -2.236068 0.593012 -2.000462 1.161816 -1.581139 1.581139 
C -1.161816 2.000462 -0.593012 2.236068 0 2.236068 
z
"/>
    </defs>
    <g clip-path="url(#p3dd35945b6)">
     <use xlink:href="#C0_0_675cd8dd59" x="335.806602" y="203.860572" style="fill: #e18a3b; fill-opacity: 0.3; stroke: #e18a3b; stroke-opacity: 0.3"/>
    </g>
    <g clip-path="url(#p3dd35945b6)">
     <use xlink:href="#C0_0_675cd8dd59" x="332.48389" y="209.537872" style="fill: #e18a3b; fill-opacity: 0.371847; stroke: #e18a3b; stroke-opacity: 0.371847"/>
    </g>
    <g clip-path="url(#p3dd35945b6)">
     <use xlink:href="#C0_0_675cd8dd59" x="323.13733" y="211.978724" style="fill: #e18a3b; fill-opacity: 0.403713; stroke: #e18a3b; stroke-opacity: 0.403713"/>
    </g>
    <g clip-path="url(#p3dd35945b6)">
     <use xlink:href="#C0_0_675cd8dd59" x="310.50528" y="217.160809" style="fill: #e18a3b; fill-opacity: 0.470857; stroke: #e18a3b; stroke-opacity: 0.470857"/>
    </g>
    <g clip-path="url(#p3dd35945b6)">
     <use xlink:href="#C0_0_675cd8dd59" x="312.040792" y="217.082604" style="fill: #e18a3b; fill-opacity: 0.496181; stroke: #e18a3b; stroke-opacity: 0.496181"/>
    </g>
    <g clip-path="url(#p3dd35945b6)">
     <use xlink:href="#C0_0_675cd8dd59" x="292.747921" y="226.426872" style="fill: #e18a3b; fill-opacity: 0.640285; stroke: #e18a3b; stroke-opacity: 0.640285"/>
    </g>
    <g clip-path="url(#p3dd35945b6)">
     <use xlink:href="#C0_0_675cd8dd59" x="289.953077" y="222.122201" style="fill: #e18a3b; fill-opacity: 0.650487; stroke: #e18a3b; stroke-opacity: 0.650487"/>
    </g>
    <g clip-path="url(#p3dd35945b6)">
     <use xlink:href="#C0_0_675cd8dd59" x="279.719667" y="227.853419" style="fill: #e18a3b; fill-opacity: 0.725021; stroke: #e18a3b; stroke-opacity: 0.725021"/>
    </g>
    <g clip-path="url(#p3dd35945b6)">
     <use xlink:href="#C0_0_675cd8dd59" x="275.815277" y="228.136803" style="fill: #e18a3b; fill-opacity: 0.73166; stroke: #e18a3b; stroke-opacity: 0.73166"/>
    </g>
    <g clip-path="url(#p3dd35945b6)">
     <use xlink:href="#C0_0_675cd8dd59" x="270.247015" y="227.142134" style="fill: #e18a3b; fill-opacity: 0.766785; stroke: #e18a3b; stroke-opacity: 0.766785"/>
    </g>
    <g clip-path="url(#p3dd35945b6)">
     <use xlink:href="#C0_0_675cd8dd59" x="265.258079" y="227.01283" style="fill: #e18a3b; fill-opacity: 0.789972; stroke: #e18a3b; stroke-opacity: 0.789972"/>
    </g>
    <g clip-path="url(#p3dd35945b6)">
     <use xlink:href="#C0_0_675cd8dd59" x="260.124232" y="226.678346" style="fill: #e18a3b; fill-opacity: 0.815769; stroke: #e18a3b; stroke-opacity: 0.815769"/>
    </g>
    <g clip-path="url(#p3dd35945b6)">
     <use xlink:href="#C0_0_675cd8dd59" x="250.332396" y="226.83045" style="fill: #e18a3b; fill-opacity: 0.856785; stroke: #e18a3b; stroke-opacity: 0.856785"/>
    </g>
    <g clip-path="url(#p3dd35945b6)">
     <use xlink:href="#C0_0_675cd8dd59" x="252.176742" y="229.662459" style="fill: #e18a3b; fill-opacity: 0.86699; stroke: #e18a3b; stroke-opacity: 0.86699"/>
    </g>
    <g clip-path="url(#p3dd35945b6)">
     <use xlink:href="#C0_0_675cd8dd59" x="245.538295" y="224.776411" style="fill: #e18a3b; fill-opacity: 0.884024; stroke: #e18a3b; stroke-opacity: 0.884024"/>
    </g>
    <g clip-path="url(#p3dd35945b6)">
     <use xlink:href="#C0_0_675cd8dd59" x="241.957441" y="224.337549" style="fill: #e18a3b; fill-opacity: 0.888095; stroke: #e18a3b; stroke-opacity: 0.888095"/>
    </g>
    <g clip-path="url(#p3dd35945b6)">
     <use xlink:href="#C0_0_675cd8dd59" x="230.929203" y="220.103875" style="fill: #e18a3b; fill-opacity: 0.915233; stroke: #e18a3b; stroke-opacity: 0.915233"/>
    </g>
    <g clip-path="url(#p3dd35945b6)">
     <use xlink:href="#C0_0_675cd8dd59" x="236.519832" y="223.521907" style="fill: #e18a3b; fill-opacity: 0.9188; stroke: #e18a3b; stroke-opacity: 0.9188"/>
    </g>
    <g clip-path="url(#p3dd35945b6)">
     <use xlink:href="#C0_0_675cd8dd59" x="231.608885" y="227.109578" style="fill: #e18a3b; fill-opacity: 0.92493; stroke: #e18a3b; stroke-opacity: 0.92493"/>
    </g>
    <g clip-path="url(#p3dd35945b6)">
     <use xlink:href="#C0_0_675cd8dd59" x="226.976507" y="218.445357" style="fill: #e18a3b; fill-opacity: 0.928761; stroke: #e18a3b; stroke-opacity: 0.928761"/>
    </g>
    <g clip-path="url(#p3dd35945b6)">
     <use xlink:href="#C0_0_675cd8dd59" x="220.295699" y="212.532139" style="fill: #e18a3b; fill-opacity: 0.949139; stroke: #e18a3b; stroke-opacity: 0.949139"/>
    </g>
    <g clip-path="url(#p3dd35945b6)">
     <use xlink:href="#C0_0_675cd8dd59" x="215.658537" y="213.820174" style="fill: #e18a3b; fill-opacity: 0.960126; stroke: #e18a3b; stroke-opacity: 0.960126"/>
    </g>
    <g clip-path="url(#p3dd35945b6)">
     <use xlink:href="#C0_0_675cd8dd59" x="222.103779" y="214.990669" style="fill: #e18a3b; fill-opacity: 0.961312; stroke: #e18a3b; stroke-opacity: 0.961312"/>
    </g>
    <g clip-path="url(#p3dd35945b6)">
     <use xlink:href="#C0_0_675cd8dd59" x="137.210859" y="139.11718" style="fill: #e18a3b; fill-opacity: 0.964368; stroke: #e18a3b; stroke-opacity: 0.964368"/>
    </g>
    <g clip-path="url(#p3dd35945b6)">
     <use xlink:href="#C0_0_675cd8dd59" x="212.535768" y="210.925638" style="fill: #e18a3b; fill-opacity: 0.966981; stroke: #e18a3b; stroke-opacity: 0.966981"/>
    </g>
    <g clip-path="url(#p3dd35945b6)">
     <use xlink:href="#C0_0_675cd8dd59" x="201.604531" y="200.965195" style="fill: #e18a3b; fill-opacity: 0.967656; stroke: #e18a3b; stroke-opacity: 0.967656"/>
    </g>
    <g clip-path="url(#p3dd35945b6)">
     <use xlink:href="#C0_0_675cd8dd59" x="134.723322" y="134.139596" style="fill: #e18a3b; fill-opacity: 0.969995; stroke: #e18a3b; stroke-opacity: 0.969995"/>
    </g>
    <g clip-path="url(#p3dd35945b6)">
     <use xlink:href="#C0_0_675cd8dd59" x="142.660251" y="141.576743" style="fill: #e18a3b; fill-opacity: 0.972745; stroke: #e18a3b; stroke-opacity: 0.972745"/>
    </g>
    <g clip-path="url(#p3dd35945b6)">
     <use xlink:href="#C0_0_675cd8dd59" x="147.293693" y="149.308315" style="fill: #e18a3b; fill-opacity: 0.972932; stroke: #e18a3b; stroke-opacity: 0.972932"/>
    </g>
    <g clip-path="url(#p3dd35945b6)">
     <use xlink:href="#C0_0_675cd8dd59" x="204.091193" y="202.850604" style="fill: #e18a3b; fill-opacity: 0.972936; stroke: #e18a3b; stroke-opacity: 0.972936"/>
    </g>
    <g clip-path="url(#p3dd35945b6)">
     <use xlink:href="#C0_0_675cd8dd59" x="209.695767" y="207.247962" style="fill: #e18a3b; fill-opacity: 0.973032; stroke: #e18a3b; stroke-opacity: 0.973032"/>
    </g>
    <g clip-path="url(#p3dd35945b6)">
     <use xlink:href="#C0_0_675cd8dd59" x="187.474888" y="188.819494" style="fill: #e18a3b; fill-opacity: 0.973222; stroke: #e18a3b; stroke-opacity: 0.973222"/>
    </g>
    <g clip-path="url(#p3dd35945b6)">
     <use xlink:href="#C0_0_675cd8dd59" x="144.499436" y="145.871917" style="fill: #e18a3b; fill-opacity: 0.976993; stroke: #e18a3b; stroke-opacity: 0.976993"/>
    </g>
    <g clip-path="url(#p3dd35945b6)">
     <use xlink:href="#C0_0_675cd8dd59" x="195.265537" y="196.428141" style="fill: #e18a3b; fill-opacity: 0.977502; stroke: #e18a3b; stroke-opacity: 0.977502"/>
    </g>
    <g clip-path="url(#p3dd35945b6)">
     <use xlink:href="#C0_0_675cd8dd59" x="207.653611" y="201.050716" style="fill: #e18a3b; fill-opacity: 0.978109; stroke: #e18a3b; stroke-opacity: 0.978109"/>
    </g>
    <g clip-path="url(#p3dd35945b6)">
     <use xlink:href="#C0_0_675cd8dd59" x="165.617329" y="167.562571" style="fill: #e18a3b; fill-opacity: 0.978908; stroke: #e18a3b; stroke-opacity: 0.978908"/>
    </g>
    <g clip-path="url(#p3dd35945b6)">
     <use xlink:href="#C0_0_675cd8dd59" x="152.081761" y="154.279176" style="fill: #e18a3b; fill-opacity: 0.980767; stroke: #e18a3b; stroke-opacity: 0.980767"/>
    </g>
    <g clip-path="url(#p3dd35945b6)">
     <use xlink:href="#C0_0_675cd8dd59" x="198.29873" y="196.928122" style="fill: #e18a3b; fill-opacity: 0.980898; stroke: #e18a3b; stroke-opacity: 0.980898"/>
    </g>
    <g clip-path="url(#p3dd35945b6)">
     <use xlink:href="#C0_0_675cd8dd59" x="189.336164" y="191.954748" style="fill: #e18a3b; fill-opacity: 0.981755; stroke: #e18a3b; stroke-opacity: 0.981755"/>
    </g>
    <g clip-path="url(#p3dd35945b6)">
     <use xlink:href="#C0_0_675cd8dd59" x="154.750741" y="156.615239" style="fill: #e18a3b; fill-opacity: 0.981963; stroke: #e18a3b; stroke-opacity: 0.981963"/>
    </g>
    <g clip-path="url(#p3dd35945b6)">
     <use xlink:href="#C0_0_675cd8dd59" x="163.00538" y="163.679157" style="fill: #e18a3b; fill-opacity: 0.982421; stroke: #e18a3b; stroke-opacity: 0.982421"/>
    </g>
    <g clip-path="url(#p3dd35945b6)">
     <use xlink:href="#C0_0_675cd8dd59" x="181.019838" y="184.177024" style="fill: #e18a3b; fill-opacity: 0.984627; stroke: #e18a3b; stroke-opacity: 0.984627"/>
    </g>
    <g clip-path="url(#p3dd35945b6)">
     <use xlink:href="#C0_0_675cd8dd59" x="139.601762" y="136.644617" style="fill: #e18a3b; fill-opacity: 0.984884; stroke: #e18a3b; stroke-opacity: 0.984884"/>
    </g>
    <g clip-path="url(#p3dd35945b6)">
     <use xlink:href="#C0_0_675cd8dd59" x="176.266221" y="176.268304" style="fill: #e18a3b; fill-opacity: 0.986446; stroke: #e18a3b; stroke-opacity: 0.986446"/>
    </g>
    <g clip-path="url(#p3dd35945b6)">
     <use xlink:href="#C0_0_675cd8dd59" x="170.370365" y="172.598983" style="fill: #e18a3b; fill-opacity: 0.987232; stroke: #e18a3b; stroke-opacity: 0.987232"/>
    </g>
    <g clip-path="url(#p3dd35945b6)">
     <use xlink:href="#C0_0_675cd8dd59" x="160.413337" y="159.223158" style="fill: #e18a3b; fill-opacity: 0.987657; stroke: #e18a3b; stroke-opacity: 0.987657"/>
    </g>
    <g clip-path="url(#p3dd35945b6)">
     <use xlink:href="#C0_0_675cd8dd59" x="192.572974" y="191.045802" style="fill: #e18a3b; fill-opacity: 0.987721; stroke: #e18a3b; stroke-opacity: 0.987721"/>
    </g>
    <g clip-path="url(#p3dd35945b6)">
     <use xlink:href="#C0_0_675cd8dd59" x="157.014092" y="158.682956" style="fill: #e18a3b; fill-opacity: 0.988969; stroke: #e18a3b; stroke-opacity: 0.988969"/>
    </g>
    <g clip-path="url(#p3dd35945b6)">
     <use xlink:href="#C0_0_675cd8dd59" x="149.457051" y="148.49191" style="fill: #e18a3b; fill-opacity: 0.990862; stroke: #e18a3b; stroke-opacity: 0.990862"/>
    </g>
    <g clip-path="url(#p3dd35945b6)">
     <use xlink:href="#C0_0_675cd8dd59" x="178.695205" y="178.4192" style="fill: #e18a3b; fill-opacity: 0.991363; stroke: #e18a3b; stroke-opacity: 0.991363"/>
    </g>
    <g clip-path="url(#p3dd35945b6)">
     <use xlink:href="#C0_0_675cd8dd59" x="173.465576" y="171.886948" style="fill: #e18a3b; fill-opacity: 0.994083; stroke: #e18a3b; stroke-opacity: 0.994083"/>
    </g>
    <g clip-path="url(#p3dd35945b6)">
     <use xlink:href="#C0_0_675cd8dd59" x="167.517931" y="168.085811" style="fill: #e18a3b; fill-opacity: 0.995897; stroke: #e18a3b; stroke-opacity: 0.995897"/>
    </g>
    <g clip-path="url(#p3dd35945b6)">
     <use xlink:href="#C0_0_675cd8dd59" x="183.732049" y="182.468049" style="fill: #e18a3b; stroke: #e18a3b"/>
    </g>
   </g>
  </g>
 </g>
 <defs>
  <clipPath id="p3dd35945b6">
   <rect x="103.104" y="41.472" width="266.112" height="266.112"/>
  </clipPath>
 </defs>
</svg>
