<?xml version="1.0" encoding="utf-8" standalone="no"?>
<!DOCTYPE svg PUBLIC "-//W3C//DTD SVG 1.1//EN"
  "http://www.w3.org/Graphics/SVG/1.1/DTD/svg11.dtd">
<svg xmlns:xlink="http://www.w3.org/1999/xlink" width="460.8pt" height="345.6pt" viewBox="0 0 460.8 345.6" xmlns="http://www.w3.org/2000/svg" version="1.1">
 <metadata>
  <rdf:RDF xmlns:dc="http://purl.org/dc/elements/1.1/" xmlns:cc="http://creativecommons.org/ns#" xmlns:rdf="http://www.w3.org/1999/02/22-rdf-syntax-ns#">
   <cc:Work>
    <dc:type rdf:resource="http://purl.org/dc/dcmitype/StillImage"/>
    <dc:date>2023-02-21T06:50:37.365015</dc:date>
    <dc:format>image/svg+xml</dc:format>
    <dc:creator>
     <cc:Agent>
      <dc:title>Matplotlib v3.6.3, https://matplotlib.org/</dc:title>
     </cc:Agent>
    </dc:creator>
   </cc:Work>
  </rdf:RDF>
 </metadata>
 <defs>
  <style type="text/css">*{stroke-linejoin: round; stroke-linecap: butt}</style>
 </defs>
 <g id="figure_1">
  <g id="patch_1">
   <path d="M 0 345.6 
L 460.8 345.6 
L 460.8 0 
L 0 0 
z
" style="fill: #ffffff"/>
  </g>
  <g id="axes_1">
   <g id="patch_2">
    <path d="M 57.6 307.584 
L 414.72 307.584 
L 414.72 41.472 
L 57.6 41.472 
z
" style="fill: #ffffff"/>
   </g>
   <g id="matplotlib.axis_1">
    <g id="xtick_1">
     <g id="line2d_1">
      <path d="M 62.637743 307.584 
L 62.637743 41.472 
" clip-path="url(#p0c438dc112)" style="fill: none; stroke: #cccccc; stroke-width: 0.8; stroke-linecap: round"/>
     </g>
     <g id="text_1">
      <!-- 1970 -->
      <g style="fill: #262626" transform="translate(52.637743 321.459) scale(0.1 -0.1)">
       <defs>
        <path id="SimHei-31" d="M 1400 3600 
Q 1075 3275 575 2975 
L 575 3450 
Q 1200 3875 1600 4450 
L 1900 4450 
L 1900 150 
L 1400 150 
L 1400 3600 
z
" transform="scale(0.015625)"/>
        <path id="SimHei-39" d="M 800 75 
Q 1350 1000 1700 1750 
Q 1075 1650 662 1912 
Q 250 2175 162 2625 
Q 75 3075 175 3437 
Q 275 3800 487 4037 
Q 700 4275 1000 4375 
Q 1300 4475 1537 4475 
Q 1775 4475 2025 4375 
Q 2275 4275 2475 4075 
Q 2675 3875 2750 3662 
Q 2825 3450 2825 3112 
Q 2825 2775 2575 2250 
Q 2325 1725 1350 75 
L 800 75 
z
M 662 2875 
Q 700 2550 937 2337 
Q 1175 2125 1450 2150 
Q 1725 2175 1887 2300 
Q 2050 2425 2200 2725 
Q 2300 3100 2250 3362 
Q 2200 3625 1987 3800 
Q 1775 3975 1525 3975 
Q 1375 4000 1137 3900 
Q 900 3800 762 3500 
Q 625 3200 662 2875 
z
" transform="scale(0.015625)"/>
        <path id="SimHei-37" d="M 850 150 
Q 1300 2050 2425 3925 
L 275 3925 
L 275 4375 
L 2950 4375 
L 2950 3950 
Q 1775 2050 1400 150 
L 850 150 
z
" transform="scale(0.015625)"/>
        <path id="SimHei-30" d="M 225 2537 
Q 250 3200 412 3587 
Q 575 3975 875 4225 
Q 1175 4475 1612 4475 
Q 2050 4475 2375 4112 
Q 2700 3750 2800 3200 
Q 2900 2650 2862 1937 
Q 2825 1225 2612 775 
Q 2400 325 1975 150 
Q 1550 -25 1125 187 
Q 700 400 525 750 
Q 350 1100 275 1487 
Q 200 1875 225 2537 
z
M 750 2687 
Q 675 2000 800 1462 
Q 925 925 1212 700 
Q 1500 475 1800 612 
Q 2100 750 2237 1162 
Q 2375 1575 2375 2062 
Q 2375 2550 2337 2950 
Q 2300 3350 2112 3675 
Q 1925 4000 1612 4012 
Q 1300 4025 1062 3700 
Q 825 3375 750 2687 
z
" transform="scale(0.015625)"/>
       </defs>
       <use xlink:href="#SimHei-31"/>
       <use xlink:href="#SimHei-39" x="50"/>
       <use xlink:href="#SimHei-37" x="100"/>
       <use xlink:href="#SimHei-30" x="150"/>
      </g>
     </g>
    </g>
    <g id="xtick_2">
     <g id="line2d_2">
      <path d="M 118.612665 307.584 
L 118.612665 41.472 
" clip-path="url(#p0c438dc112)" style="fill: none; stroke: #cccccc; stroke-width: 0.8; stroke-linecap: round"/>
     </g>
     <g id="text_2">
      <!-- 1975 -->
      <g style="fill: #262626" transform="translate(108.612665 321.459) scale(0.1 -0.1)">
       <defs>
        <path id="SimHei-35" d="M 550 1325 
Q 725 650 1150 575 
Q 1575 500 1837 662 
Q 2100 825 2212 1087 
Q 2325 1350 2312 1675 
Q 2300 2000 2137 2225 
Q 1975 2450 1725 2525 
Q 1475 2600 1162 2525 
Q 850 2450 650 2175 
L 225 2225 
Q 275 2375 700 4375 
L 2675 4375 
L 2675 3925 
L 1075 3925 
Q 950 3250 825 2850 
Q 1200 3025 1525 3012 
Q 1850 3000 2150 2862 
Q 2450 2725 2587 2487 
Q 2725 2250 2787 2012 
Q 2850 1775 2837 1500 
Q 2825 1225 2725 937 
Q 2625 650 2425 462 
Q 2225 275 1937 162 
Q 1650 50 1275 75 
Q 900 100 562 350 
Q 225 600 100 1200 
L 550 1325 
z
" transform="scale(0.015625)"/>
       </defs>
       <use xlink:href="#SimHei-31"/>
       <use xlink:href="#SimHei-39" x="50"/>
       <use xlink:href="#SimHei-37" x="100"/>
       <use xlink:href="#SimHei-35" x="150"/>
      </g>
     </g>
    </g>
    <g id="xtick_3">
     <g id="line2d_3">
      <path d="M 174.587586 307.584 
L 174.587586 41.472 
" clip-path="url(#p0c438dc112)" style="fill: none; stroke: #cccccc; stroke-width: 0.8; stroke-linecap: round"/>
     </g>
     <g id="text_3">
      <!-- 1980 -->
      <g style="fill: #262626" transform="translate(164.587586 321.459) scale(0.1 -0.1)">
       <defs>
        <path id="SimHei-38" d="M 175 1375 
Q 175 1675 325 1962 
Q 475 2250 825 2425 
Q 525 2600 425 2812 
Q 325 3025 312 3300 
Q 300 3575 387 3775 
Q 475 3975 650 4150 
Q 825 4325 1037 4387 
Q 1250 4450 1500 4450 
Q 1750 4450 1950 4400 
Q 2150 4350 2375 4187 
Q 2600 4025 2700 3725 
Q 2800 3425 2687 3025 
Q 2575 2625 2100 2400 
Q 2525 2275 2700 2012 
Q 2875 1750 2875 1375 
Q 2875 1000 2762 775 
Q 2650 550 2512 400 
Q 2375 250 2137 162 
Q 1900 75 1537 75 
Q 1175 75 912 162 
Q 650 250 475 425 
Q 300 600 237 837 
Q 175 1075 175 1375 
z
M 687 1400 
Q 675 1100 787 875 
Q 900 650 1200 587 
Q 1500 525 1825 600 
Q 2150 675 2275 950 
Q 2400 1225 2362 1500 
Q 2325 1775 2050 1962 
Q 1775 2150 1450 2125 
Q 1125 2100 912 1900 
Q 700 1700 687 1400 
z
M 775 3350 
Q 775 3100 950 2875 
Q 1125 2650 1500 2650 
Q 1875 2650 2062 2875 
Q 2250 3100 2237 3412 
Q 2225 3725 2012 3875 
Q 1800 4025 1437 4000 
Q 1075 3975 925 3787 
Q 775 3600 775 3350 
z
" transform="scale(0.015625)"/>
       </defs>
       <use xlink:href="#SimHei-31"/>
       <use xlink:href="#SimHei-39" x="50"/>
       <use xlink:href="#SimHei-38" x="100"/>
       <use xlink:href="#SimHei-30" x="150"/>
      </g>
     </g>
    </g>
    <g id="xtick_4">
     <g id="line2d_4">
      <path d="M 230.562508 307.584 
L 230.562508 41.472 
" clip-path="url(#p0c438dc112)" style="fill: none; stroke: #cccccc; stroke-width: 0.8; stroke-linecap: round"/>
     </g>
     <g id="text_4">
      <!-- 1985 -->
      <g style="fill: #262626" transform="translate(220.562508 321.459) scale(0.1 -0.1)">
       <use xlink:href="#SimHei-31"/>
       <use xlink:href="#SimHei-39" x="50"/>
       <use xlink:href="#SimHei-38" x="100"/>
       <use xlink:href="#SimHei-35" x="150"/>
      </g>
     </g>
    </g>
    <g id="xtick_5">
     <g id="line2d_5">
      <path d="M 286.537429 307.584 
L 286.537429 41.472 
" clip-path="url(#p0c438dc112)" style="fill: none; stroke: #cccccc; stroke-width: 0.8; stroke-linecap: round"/>
     </g>
     <g id="text_5">
      <!-- 1990 -->
      <g style="fill: #262626" transform="translate(276.537429 321.459) scale(0.1 -0.1)">
       <use xlink:href="#SimHei-31"/>
       <use xlink:href="#SimHei-39" x="50"/>
       <use xlink:href="#SimHei-39" x="100"/>
       <use xlink:href="#SimHei-30" x="150"/>
      </g>
     </g>
    </g>
    <g id="xtick_6">
     <g id="line2d_6">
      <path d="M 342.512351 307.584 
L 342.512351 41.472 
" clip-path="url(#p0c438dc112)" style="fill: none; stroke: #cccccc; stroke-width: 0.8; stroke-linecap: round"/>
     </g>
     <g id="text_6">
      <!-- 1995 -->
      <g style="fill: #262626" transform="translate(332.512351 321.459) scale(0.1 -0.1)">
       <use xlink:href="#SimHei-31"/>
       <use xlink:href="#SimHei-39" x="50"/>
       <use xlink:href="#SimHei-39" x="100"/>
       <use xlink:href="#SimHei-35" x="150"/>
      </g>
     </g>
    </g>
    <g id="xtick_7">
     <g id="line2d_7">
      <path d="M 398.487273 307.584 
L 398.487273 41.472 
" clip-path="url(#p0c438dc112)" style="fill: none; stroke: #cccccc; stroke-width: 0.8; stroke-linecap: round"/>
     </g>
     <g id="text_7">
      <!-- 2000 -->
      <g style="fill: #262626" transform="translate(388.487273 321.459) scale(0.1 -0.1)">
       <defs>
        <path id="SimHei-32" d="M 300 250 
Q 325 625 650 925 
Q 975 1225 1475 1862 
Q 1975 2500 2125 2850 
Q 2275 3200 2237 3450 
Q 2200 3700 2000 3862 
Q 1800 4025 1537 4000 
Q 1275 3975 1037 3800 
Q 800 3625 675 3275 
L 200 3350 
Q 400 3925 712 4187 
Q 1025 4450 1450 4475 
Q 1700 4500 1900 4462 
Q 2100 4425 2312 4287 
Q 2525 4150 2662 3875 
Q 2800 3600 2762 3212 
Q 2725 2825 2375 2287 
Q 2025 1750 1025 600 
L 2825 600 
L 2825 150 
L 300 150 
L 300 250 
z
" transform="scale(0.015625)"/>
       </defs>
       <use xlink:href="#SimHei-32"/>
       <use xlink:href="#SimHei-30" x="50"/>
       <use xlink:href="#SimHei-30" x="100"/>
       <use xlink:href="#SimHei-30" x="150"/>
      </g>
     </g>
    </g>
   </g>
   <g id="matplotlib.axis_2">
    <g id="ytick_1">
     <g id="line2d_8">
      <path d="M 57.6 287.476909 
L 414.72 287.476909 
" clip-path="url(#p0c438dc112)" style="fill: none; stroke: #cccccc; stroke-width: 0.8; stroke-linecap: round"/>
     </g>
     <g id="text_8">
      <!-- 0.30 -->
      <g style="fill: #262626" transform="translate(30.6 290.914409) scale(0.1 -0.1)">
       <defs>
        <path id="SimHei-2e" d="M 1075 125 
L 500 125 
L 500 675 
L 1075 675 
L 1075 125 
z
" transform="scale(0.015625)"/>
        <path id="SimHei-33" d="M 250 1225 
L 700 1300 
Q 800 975 1025 762 
Q 1250 550 1587 562 
Q 1925 575 2125 837 
Q 2325 1100 2300 1437 
Q 2275 1775 2037 1962 
Q 1800 2150 1275 2225 
L 1275 2550 
Q 1800 2600 2037 2825 
Q 2275 3050 2250 3412 
Q 2225 3775 1925 3937 
Q 1625 4100 1287 3975 
Q 950 3850 750 3275 
L 300 3350 
Q 450 3800 712 4100 
Q 975 4400 1425 4450 
Q 1875 4500 2212 4337 
Q 2550 4175 2687 3837 
Q 2825 3500 2725 3100 
Q 2625 2700 2150 2400 
Q 2500 2250 2687 1950 
Q 2875 1650 2812 1162 
Q 2750 675 2375 375 
Q 2000 75 1525 87 
Q 1050 100 700 387 
Q 350 675 250 1225 
z
" transform="scale(0.015625)"/>
       </defs>
       <use xlink:href="#SimHei-30"/>
       <use xlink:href="#SimHei-2e" x="50"/>
       <use xlink:href="#SimHei-33" x="100"/>
       <use xlink:href="#SimHei-30" x="150"/>
      </g>
     </g>
    </g>
    <g id="ytick_2">
     <g id="line2d_9">
      <path d="M 57.6 234.463268 
L 414.72 234.463268 
" clip-path="url(#p0c438dc112)" style="fill: none; stroke: #cccccc; stroke-width: 0.8; stroke-linecap: round"/>
     </g>
     <g id="text_9">
      <!-- 0.35 -->
      <g style="fill: #262626" transform="translate(30.6 237.900768) scale(0.1 -0.1)">
       <use xlink:href="#SimHei-30"/>
       <use xlink:href="#SimHei-2e" x="50"/>
       <use xlink:href="#SimHei-33" x="100"/>
       <use xlink:href="#SimHei-35" x="150"/>
      </g>
     </g>
    </g>
    <g id="ytick_3">
     <g id="line2d_10">
      <path d="M 57.6 181.449626 
L 414.72 181.449626 
" clip-path="url(#p0c438dc112)" style="fill: none; stroke: #cccccc; stroke-width: 0.8; stroke-linecap: round"/>
     </g>
     <g id="text_10">
      <!-- 0.40 -->
      <g style="fill: #262626" transform="translate(30.6 184.887126) scale(0.1 -0.1)">
       <defs>
        <path id="SimHei-34" d="M 2000 1100 
L 75 1100 
L 75 1525 
L 2100 4450 
L 2475 4450 
L 2475 1525 
L 3075 1525 
L 3075 1100 
L 2475 1100 
L 2475 150 
L 2000 150 
L 2000 1100 
z
M 2000 1525 
L 2000 3500 
L 600 1525 
L 2000 1525 
z
" transform="scale(0.015625)"/>
       </defs>
       <use xlink:href="#SimHei-30"/>
       <use xlink:href="#SimHei-2e" x="50"/>
       <use xlink:href="#SimHei-34" x="100"/>
       <use xlink:href="#SimHei-30" x="150"/>
      </g>
     </g>
    </g>
    <g id="ytick_4">
     <g id="line2d_11">
      <path d="M 57.6 128.435985 
L 414.72 128.435985 
" clip-path="url(#p0c438dc112)" style="fill: none; stroke: #cccccc; stroke-width: 0.8; stroke-linecap: round"/>
     </g>
     <g id="text_11">
      <!-- 0.45 -->
      <g style="fill: #262626" transform="translate(30.6 131.873485) scale(0.1 -0.1)">
       <use xlink:href="#SimHei-30"/>
       <use xlink:href="#SimHei-2e" x="50"/>
       <use xlink:href="#SimHei-34" x="100"/>
       <use xlink:href="#SimHei-35" x="150"/>
      </g>
     </g>
    </g>
    <g id="ytick_5">
     <g id="line2d_12">
      <path d="M 57.6 75.422344 
L 414.72 75.422344 
" clip-path="url(#p0c438dc112)" style="fill: none; stroke: #cccccc; stroke-width: 0.8; stroke-linecap: round"/>
     </g>
     <g id="text_12">
      <!-- 0.50 -->
      <g style="fill: #262626" transform="translate(30.6 78.859844) scale(0.1 -0.1)">
       <use xlink:href="#SimHei-30"/>
       <use xlink:href="#SimHei-2e" x="50"/>
       <use xlink:href="#SimHei-35" x="100"/>
       <use xlink:href="#SimHei-30" x="150"/>
      </g>
     </g>
    </g>
   </g>
   <g id="line2d_13">
    <path d="M 73.832727 85.841352 
L 85.027712 74.233873 
L 96.222696 95.782066 
L 107.41768 119.907488 
L 118.612665 111.776676 
L 129.807649 143.448931 
L 141.002633 169.640898 
L 152.197618 185.531329 
L 163.392602 190.307907 
L 174.587586 179.061262 
L 185.782571 213.2444 
L 196.977555 238.199001 
L 208.172539 295.488 
L 219.367524 264.922774 
L 230.562508 288.13325 
L 241.757492 277.501641 
L 252.952476 244.212502 
L 264.147461 275.20665 
L 275.342445 214.796469 
L 286.537429 238.37994 
L 297.732414 224.733918 
L 308.927398 148.184915 
L 320.122382 150.134514 
L 331.317367 164.473235 
L 342.512351 186.18154 
L 353.707335 244.29001 
L 364.90232 230.969348 
L 376.097304 150.21255 
L 387.292288 178.044425 
L 398.487273 127.358272 
" clip-path="url(#p0c438dc112)" style="fill: none; stroke-dasharray: 1.5,2.475; stroke-dashoffset: 0; stroke: #e18a3b; stroke-width: 1.5"/>
    <defs>
     <path id="m814d2b6673" d="M -3 3 
L 3 -3 
M -3 -3 
L 3 3 
" style="stroke: #e18a3b"/>
    </defs>
    <g clip-path="url(#p0c438dc112)">
     <use xlink:href="#m814d2b6673" x="73.832727" y="85.841352" style="fill: #e18a3b; stroke: #e18a3b"/>
     <use xlink:href="#m814d2b6673" x="85.027712" y="74.233873" style="fill: #e18a3b; stroke: #e18a3b"/>
     <use xlink:href="#m814d2b6673" x="96.222696" y="95.782066" style="fill: #e18a3b; stroke: #e18a3b"/>
     <use xlink:href="#m814d2b6673" x="107.41768" y="119.907488" style="fill: #e18a3b; stroke: #e18a3b"/>
     <use xlink:href="#m814d2b6673" x="118.612665" y="111.776676" style="fill: #e18a3b; stroke: #e18a3b"/>
     <use xlink:href="#m814d2b6673" x="129.807649" y="143.448931" style="fill: #e18a3b; stroke: #e18a3b"/>
     <use xlink:href="#m814d2b6673" x="141.002633" y="169.640898" style="fill: #e18a3b; stroke: #e18a3b"/>
     <use xlink:href="#m814d2b6673" x="152.197618" y="185.531329" style="fill: #e18a3b; stroke: #e18a3b"/>
     <use xlink:href="#m814d2b6673" x="163.392602" y="190.307907" style="fill: #e18a3b; stroke: #e18a3b"/>
     <use xlink:href="#m814d2b6673" x="174.587586" y="179.061262" style="fill: #e18a3b; stroke: #e18a3b"/>
     <use xlink:href="#m814d2b6673" x="185.782571" y="213.2444" style="fill: #e18a3b; stroke: #e18a3b"/>
     <use xlink:href="#m814d2b6673" x="196.977555" y="238.199001" style="fill: #e18a3b; stroke: #e18a3b"/>
     <use xlink:href="#m814d2b6673" x="208.172539" y="295.488" style="fill: #e18a3b; stroke: #e18a3b"/>
     <use xlink:href="#m814d2b6673" x="219.367524" y="264.922774" style="fill: #e18a3b; stroke: #e18a3b"/>
     <use xlink:href="#m814d2b6673" x="230.562508" y="288.13325" style="fill: #e18a3b; stroke: #e18a3b"/>
     <use xlink:href="#m814d2b6673" x="241.757492" y="277.501641" style="fill: #e18a3b; stroke: #e18a3b"/>
     <use xlink:href="#m814d2b6673" x="252.952476" y="244.212502" style="fill: #e18a3b; stroke: #e18a3b"/>
     <use xlink:href="#m814d2b6673" x="264.147461" y="275.20665" style="fill: #e18a3b; stroke: #e18a3b"/>
     <use xlink:href="#m814d2b6673" x="275.342445" y="214.796469" style="fill: #e18a3b; stroke: #e18a3b"/>
     <use xlink:href="#m814d2b6673" x="286.537429" y="238.37994" style="fill: #e18a3b; stroke: #e18a3b"/>
     <use xlink:href="#m814d2b6673" x="297.732414" y="224.733918" style="fill: #e18a3b; stroke: #e18a3b"/>
     <use xlink:href="#m814d2b6673" x="308.927398" y="148.184915" style="fill: #e18a3b; stroke: #e18a3b"/>
     <use xlink:href="#m814d2b6673" x="320.122382" y="150.134514" style="fill: #e18a3b; stroke: #e18a3b"/>
     <use xlink:href="#m814d2b6673" x="331.317367" y="164.473235" style="fill: #e18a3b; stroke: #e18a3b"/>
     <use xlink:href="#m814d2b6673" x="342.512351" y="186.18154" style="fill: #e18a3b; stroke: #e18a3b"/>
     <use xlink:href="#m814d2b6673" x="353.707335" y="244.29001" style="fill: #e18a3b; stroke: #e18a3b"/>
     <use xlink:href="#m814d2b6673" x="364.90232" y="230.969348" style="fill: #e18a3b; stroke: #e18a3b"/>
     <use xlink:href="#m814d2b6673" x="376.097304" y="150.21255" style="fill: #e18a3b; stroke: #e18a3b"/>
     <use xlink:href="#m814d2b6673" x="387.292288" y="178.044425" style="fill: #e18a3b; stroke: #e18a3b"/>
     <use xlink:href="#m814d2b6673" x="398.487273" y="127.358272" style="fill: #e18a3b; stroke: #e18a3b"/>
    </g>
   </g>
   <g id="line2d_14">
    <path d="M 73.832727 89.447305 
L 85.027712 79.119304 
L 96.222696 99.698713 
L 107.41768 121.375732 
L 118.612665 112.377364 
L 129.807649 142.758955 
L 141.002633 166.853075 
L 152.197618 182.071989 
L 163.392602 186.04642 
L 174.587586 173.964231 
L 185.782571 206.205122 
L 196.977555 229.015291 
L 208.172539 282.591674 
L 219.367524 254.980582 
L 230.562508 276.072667 
L 241.757492 266.413197 
L 252.952476 230.959943 
L 264.147461 287.523663 
L 275.342445 198.663616 
L 286.537429 219.903997 
L 297.732414 203.753229 
L 308.927398 127.617349 
L 320.122382 128.656174 
L 331.317367 141.315229 
L 342.512351 160.277472 
L 353.707335 216.286548 
L 364.90232 201.003179 
L 376.097304 118.538206 
L 387.292288 143.772687 
L 398.487273 123.019624 
" clip-path="url(#p0c438dc112)" style="fill: none; stroke-dasharray: 1.5,2.475; stroke-dashoffset: 0; stroke: #3271ae; stroke-width: 1.5"/>
    <defs>
     <path id="md2dc94e029" d="M 0 3 
C 0.795609 3 1.55874 2.683901 2.12132 2.12132 
C 2.683901 1.55874 3 0.795609 3 0 
C 3 -0.795609 2.683901 -1.55874 2.12132 -2.12132 
C 1.55874 -2.683901 0.795609 -3 0 -3 
C -0.795609 -3 -1.55874 -2.683901 -2.12132 -2.12132 
C -2.683901 -1.55874 -3 -0.795609 -3 0 
C -3 0.795609 -2.683901 1.55874 -2.12132 2.12132 
C -1.55874 2.683901 -0.795609 3 0 3 
z
" style="stroke: #3271ae"/>
    </defs>
    <g clip-path="url(#p0c438dc112)">
     <use xlink:href="#md2dc94e029" x="73.832727" y="89.447305" style="fill-opacity: 0; stroke: #3271ae"/>
     <use xlink:href="#md2dc94e029" x="85.027712" y="79.119304" style="fill-opacity: 0; stroke: #3271ae"/>
     <use xlink:href="#md2dc94e029" x="96.222696" y="99.698713" style="fill-opacity: 0; stroke: #3271ae"/>
     <use xlink:href="#md2dc94e029" x="107.41768" y="121.375732" style="fill-opacity: 0; stroke: #3271ae"/>
     <use xlink:href="#md2dc94e029" x="118.612665" y="112.377364" style="fill-opacity: 0; stroke: #3271ae"/>
     <use xlink:href="#md2dc94e029" x="129.807649" y="142.758955" style="fill-opacity: 0; stroke: #3271ae"/>
     <use xlink:href="#md2dc94e029" x="141.002633" y="166.853075" style="fill-opacity: 0; stroke: #3271ae"/>
     <use xlink:href="#md2dc94e029" x="152.197618" y="182.071989" style="fill-opacity: 0; stroke: #3271ae"/>
     <use xlink:href="#md2dc94e029" x="163.392602" y="186.04642" style="fill-opacity: 0; stroke: #3271ae"/>
     <use xlink:href="#md2dc94e029" x="174.587586" y="173.964231" style="fill-opacity: 0; stroke: #3271ae"/>
     <use xlink:href="#md2dc94e029" x="185.782571" y="206.205122" style="fill-opacity: 0; stroke: #3271ae"/>
     <use xlink:href="#md2dc94e029" x="196.977555" y="229.015291" style="fill-opacity: 0; stroke: #3271ae"/>
     <use xlink:href="#md2dc94e029" x="208.172539" y="282.591674" style="fill-opacity: 0; stroke: #3271ae"/>
     <use xlink:href="#md2dc94e029" x="219.367524" y="254.980582" style="fill-opacity: 0; stroke: #3271ae"/>
     <use xlink:href="#md2dc94e029" x="230.562508" y="276.072667" style="fill-opacity: 0; stroke: #3271ae"/>
     <use xlink:href="#md2dc94e029" x="241.757492" y="266.413197" style="fill-opacity: 0; stroke: #3271ae"/>
     <use xlink:href="#md2dc94e029" x="252.952476" y="230.959943" style="fill-opacity: 0; stroke: #3271ae"/>
     <use xlink:href="#md2dc94e029" x="264.147461" y="287.523663" style="fill-opacity: 0; stroke: #3271ae"/>
     <use xlink:href="#md2dc94e029" x="275.342445" y="198.663616" style="fill-opacity: 0; stroke: #3271ae"/>
     <use xlink:href="#md2dc94e029" x="286.537429" y="219.903997" style="fill-opacity: 0; stroke: #3271ae"/>
     <use xlink:href="#md2dc94e029" x="297.732414" y="203.753229" style="fill-opacity: 0; stroke: #3271ae"/>
     <use xlink:href="#md2dc94e029" x="308.927398" y="127.617349" style="fill-opacity: 0; stroke: #3271ae"/>
     <use xlink:href="#md2dc94e029" x="320.122382" y="128.656174" style="fill-opacity: 0; stroke: #3271ae"/>
     <use xlink:href="#md2dc94e029" x="331.317367" y="141.315229" style="fill-opacity: 0; stroke: #3271ae"/>
     <use xlink:href="#md2dc94e029" x="342.512351" y="160.277472" style="fill-opacity: 0; stroke: #3271ae"/>
     <use xlink:href="#md2dc94e029" x="353.707335" y="216.286548" style="fill-opacity: 0; stroke: #3271ae"/>
     <use xlink:href="#md2dc94e029" x="364.90232" y="201.003179" style="fill-opacity: 0; stroke: #3271ae"/>
     <use xlink:href="#md2dc94e029" x="376.097304" y="118.538206" style="fill-opacity: 0; stroke: #3271ae"/>
     <use xlink:href="#md2dc94e029" x="387.292288" y="143.772687" style="fill-opacity: 0; stroke: #3271ae"/>
     <use xlink:href="#md2dc94e029" x="398.487273" y="123.019624" style="fill-opacity: 0; stroke: #3271ae"/>
    </g>
   </g>
   <g id="line2d_15">
    <path d="M 73.832727 53.568 
L 75.133948 66.020711 
L 76.435169 76.98669 
L 77.736389 86.567756 
L 79.03761 94.865733 
L 80.33883 101.98244 
L 81.640051 108.019698 
L 82.941272 113.07933 
L 84.242492 117.263157 
L 85.543713 120.672999 
L 86.844934 123.410677 
L 88.146154 125.578014 
L 89.447375 127.27683 
L 90.748595 128.608946 
L 92.049816 129.676183 
L 94.652257 131.423308 
L 96.604088 132.795101 
L 98.555919 134.479251 
L 101.15836 137.112411 
L 110.917515 147.529837 
L 114.821177 151.023078 
L 121.32728 156.430517 
L 128.483993 162.135479 
L 133.688876 166.00448 
L 139.544369 170.058216 
L 146.050472 174.261128 
L 152.556575 178.174488 
L 159.062678 181.806717 
L 165.568781 185.179032 
L 172.074884 188.31234 
L 179.231598 191.502185 
L 186.388311 194.443002 
L 193.545025 197.154572 
L 201.352348 199.872061 
L 209.159672 202.359161 
L 217.617606 204.816208 
L 226.07554 207.048447 
L 235.184085 209.224517 
L 244.943239 211.319506 
L 255.353004 213.312717 
L 266.413379 215.187804 
L 278.124365 216.932743 
L 290.485961 218.539659 
L 303.498167 220.004521 
L 317.811594 221.384751 
L 333.426242 222.655621 
L 350.34211 223.80066 
L 368.559198 224.811207 
L 389.378728 225.737206 
L 398.487273 226.078445 
L 398.487273 226.078445 
" clip-path="url(#p0c438dc112)" style="fill: none; stroke: #e18a3b; stroke-width: 1.5; stroke-linecap: round"/>
   </g>
   <g id="line2d_16">
    <path d="M 73.832727 132.611217 
L 75.133948 137.107679 
L 76.435169 141.035637 
L 77.736389 144.434462 
L 79.03761 147.343528 
L 80.33883 149.802205 
L 81.640051 151.849868 
L 82.941272 153.525886 
L 84.242492 154.869634 
L 85.543713 155.920482 
L 86.844934 156.717803 
L 88.146154 157.300969 
L 90.097985 157.860305 
L 92.049816 158.15926 
L 97.905309 158.804671 
L 100.50775 159.390486 
L 105.062022 160.700886 
L 110.266905 162.165953 
L 116.773008 163.701304 
L 148.002303 170.644266 
L 163.61695 173.782397 
L 179.882208 176.827139 
L 196.798076 179.768874 
L 214.364555 182.598785 
L 232.581643 185.309527 
L 251.449342 187.89533 
L 271.618262 190.430197 
L 292.437792 192.819379 
L 314.558543 195.127262 
L 337.329903 197.277802 
L 361.402485 199.326869 
L 386.776287 201.262341 
L 398.487273 202.084722 
L 398.487273 202.084722 
" clip-path="url(#p0c438dc112)" style="fill: none; stroke: #3271ae; stroke-width: 1.5; stroke-linecap: round"/>
   </g>
   <g id="line2d_17">
    <path d="M 57.6 226.078445 
L 414.72 226.078445 
" clip-path="url(#p0c438dc112)" style="fill: none; stroke-dasharray: 1.5,2.475; stroke-dashoffset: 0; stroke: #ff0000; stroke-width: 1.5"/>
   </g>
   <g id="line2d_18">
    <path d="M 57.6 202.084722 
L 414.72 202.084722 
" clip-path="url(#p0c438dc112)" style="fill: none; stroke-dasharray: 1.5,2.475; stroke-dashoffset: 0; stroke: #000000; stroke-width: 1.5"/>
   </g>
   <g id="patch_3">
    <path d="M 57.6 307.584 
L 57.6 41.472 
" style="fill: none; stroke: #cccccc; stroke-width: 0.8; stroke-linejoin: miter; stroke-linecap: square"/>
   </g>
   <g id="patch_4">
    <path d="M 414.72 307.584 
L 414.72 41.472 
" style="fill: none; stroke: #cccccc; stroke-width: 0.8; stroke-linejoin: miter; stroke-linecap: square"/>
   </g>
   <g id="patch_5">
    <path d="M 57.6 307.584 
L 414.72 307.584 
" style="fill: none; stroke: #cccccc; stroke-width: 0.8; stroke-linejoin: miter; stroke-linecap: square"/>
   </g>
   <g id="patch_6">
    <path d="M 57.6 41.472 
L 414.72 41.472 
" style="fill: none; stroke: #cccccc; stroke-width: 0.8; stroke-linejoin: miter; stroke-linecap: square"/>
   </g>
   <g id="legend_1">
    <g id="patch_7">
     <path d="M 180.16 129.0345 
L 292.16 129.0345 
Q 294.16 129.0345 294.16 127.0345 
L 294.16 48.472 
Q 294.16 46.472 292.16 46.472 
L 180.16 46.472 
Q 178.16 46.472 178.16 48.472 
L 178.16 127.0345 
Q 178.16 129.0345 180.16 129.0345 
z
" style="fill: #ffffff; opacity: 0.8; stroke: #cccccc; stroke-linejoin: miter"/>
    </g>
    <g id="line2d_19">
     <path d="M 182.16 53.972 
L 192.16 53.972 
L 202.16 53.972 
" style="fill: none; stroke-dasharray: 1.5,2.475; stroke-dashoffset: 0; stroke: #e18a3b; stroke-width: 1.5"/>
     <g>
      <use xlink:href="#m814d2b6673" x="192.16" y="53.972" style="fill: #e18a3b; stroke: #e18a3b"/>
     </g>
    </g>
    <g id="text_13">
     <!-- Optimize policy -->
     <g style="fill: #262626" transform="translate(210.16 57.472) scale(0.1 -0.1)">
      <defs>
       <path id="SimHei-4f" d="M 2950 2275 
Q 2950 1100 2587 587 
Q 2225 75 1575 75 
Q 925 75 550 587 
Q 175 1100 175 2275 
Q 175 3450 550 3950 
Q 925 4450 1575 4450 
Q 2225 4450 2587 3950 
Q 2950 3450 2950 2275 
z
M 2350 2275 
Q 2350 3325 2125 3650 
Q 1900 3975 1575 3975 
Q 1250 3975 1012 3650 
Q 775 3325 775 2275 
Q 775 1225 1012 887 
Q 1250 550 1575 550 
Q 1900 550 2125 887 
Q 2350 1225 2350 2275 
z
" transform="scale(0.015625)"/>
       <path id="SimHei-70" d="M 2825 1525 
Q 2825 800 2475 425 
Q 2125 50 1625 50 
Q 1350 50 1150 162 
Q 950 275 800 500 
L 800 -800 
L 300 -800 
L 300 2925 
L 800 2925 
L 800 2550 
Q 950 2775 1150 2875 
Q 1350 2975 1625 2975 
Q 2125 2975 2475 2612 
Q 2825 2250 2825 1525 
z
M 2275 1525 
Q 2275 2000 2087 2262 
Q 1900 2525 1525 2525 
Q 1225 2525 1012 2262 
Q 800 2000 800 1525 
Q 800 1050 1012 775 
Q 1225 500 1525 500 
Q 1900 500 2087 775 
Q 2275 1050 2275 1525 
z
" transform="scale(0.015625)"/>
       <path id="SimHei-74" d="M 2750 200 
Q 2625 150 2462 112 
Q 2300 75 2025 75 
Q 1575 75 1300 325 
Q 1025 575 1025 1025 
L 1025 2525 
L 175 2525 
L 175 2925 
L 1025 2925 
L 1025 3900 
L 1525 3900 
L 1525 2925 
L 2550 2925 
L 2550 2525 
L 1525 2525 
L 1525 1000 
Q 1525 800 1625 662 
Q 1725 525 2000 525 
Q 2275 525 2450 575 
Q 2625 625 2750 700 
L 2750 200 
z
" transform="scale(0.015625)"/>
       <path id="SimHei-69" d="M 1800 3725 
L 1300 3725 
L 1300 4375 
L 1800 4375 
L 1800 3725 
z
M 1800 125 
L 1300 125 
L 1300 2925 
L 1800 2925 
L 1800 125 
z
" transform="scale(0.015625)"/>
       <path id="SimHei-6d" d="M 3050 125 
L 2550 125 
L 2550 2150 
Q 2550 2300 2500 2400 
Q 2450 2500 2300 2500 
Q 2125 2500 1975 2312 
Q 1825 2125 1825 1825 
L 1825 125 
L 1325 125 
L 1325 2150 
Q 1325 2300 1275 2400 
Q 1225 2500 1075 2500 
Q 900 2500 750 2312 
Q 600 2125 600 1825 
L 600 125 
L 100 125 
L 100 2925 
L 600 2925 
L 600 2550 
Q 725 2750 900 2862 
Q 1075 2975 1275 2975 
Q 1475 2975 1612 2862 
Q 1750 2750 1800 2550 
Q 1925 2750 2087 2862 
Q 2250 2975 2450 2975 
Q 2750 2975 2900 2812 
Q 3050 2650 3050 2350 
L 3050 125 
z
" transform="scale(0.015625)"/>
       <path id="SimHei-7a" d="M 2775 125 
L 350 125 
L 350 525 
L 2050 2525 
L 450 2525 
L 450 2925 
L 2650 2925 
L 2650 2525 
L 950 525 
L 2775 525 
L 2775 125 
z
" transform="scale(0.015625)"/>
       <path id="SimHei-65" d="M 2850 1075 
Q 2800 625 2450 350 
Q 2100 75 1625 75 
Q 1025 75 637 462 
Q 250 850 250 1525 
Q 250 2200 637 2587 
Q 1025 2975 1625 2975 
Q 2150 2975 2487 2637 
Q 2825 2300 2825 1525 
L 800 1525 
Q 800 975 1037 750 
Q 1275 525 1625 525 
Q 1900 525 2075 662 
Q 2250 800 2300 1075 
L 2850 1075 
z
M 2250 1925 
Q 2200 2275 2025 2412 
Q 1850 2550 1575 2550 
Q 1325 2550 1125 2412 
Q 925 2275 825 1925 
L 2250 1925 
z
" transform="scale(0.015625)"/>
       <path id="SimHei-20" transform="scale(0.015625)"/>
       <path id="SimHei-6f" d="M 2925 1525 
Q 2925 875 2525 475 
Q 2125 75 1575 75 
Q 1025 75 625 475 
Q 225 875 225 1525 
Q 225 2175 625 2575 
Q 1025 2975 1575 2975 
Q 2125 2975 2525 2575 
Q 2925 2175 2925 1525 
z
M 2375 1525 
Q 2375 2025 2125 2275 
Q 1875 2525 1575 2525 
Q 1275 2525 1025 2275 
Q 775 2025 775 1525 
Q 775 1025 1025 775 
Q 1275 525 1575 525 
Q 1875 525 2125 775 
Q 2375 1025 2375 1525 
z
" transform="scale(0.015625)"/>
       <path id="SimHei-6c" d="M 1825 125 
L 1325 125 
L 1325 4400 
L 1825 4400 
L 1825 125 
z
" transform="scale(0.015625)"/>
       <path id="SimHei-63" d="M 2850 1250 
Q 2850 725 2487 400 
Q 2125 75 1575 75 
Q 1025 75 625 462 
Q 225 850 225 1525 
Q 225 2200 625 2587 
Q 1025 2975 1575 2975 
Q 2125 2975 2450 2687 
Q 2775 2400 2775 2000 
L 2225 2000 
Q 2200 2300 2012 2412 
Q 1825 2525 1575 2525 
Q 1275 2525 1025 2287 
Q 775 2050 775 1525 
Q 775 1000 1025 762 
Q 1275 525 1575 525 
Q 1900 525 2100 700 
Q 2300 875 2300 1250 
L 2850 1250 
z
" transform="scale(0.015625)"/>
       <path id="SimHei-79" d="M 2900 2925 
L 1750 -100 
Q 1650 -450 1450 -625 
Q 1250 -800 950 -800 
Q 825 -800 712 -787 
Q 600 -775 500 -725 
L 500 -225 
Q 600 -275 700 -300 
Q 800 -325 875 -325 
Q 1075 -325 1150 -262 
Q 1225 -200 1300 25 
L 200 2925 
L 750 2925 
L 1550 725 
L 1575 725 
L 2350 2925 
L 2900 2925 
z
" transform="scale(0.015625)"/>
      </defs>
      <use xlink:href="#SimHei-4f"/>
      <use xlink:href="#SimHei-70" x="50"/>
      <use xlink:href="#SimHei-74" x="100"/>
      <use xlink:href="#SimHei-69" x="150"/>
      <use xlink:href="#SimHei-6d" x="200"/>
      <use xlink:href="#SimHei-69" x="250"/>
      <use xlink:href="#SimHei-7a" x="300"/>
      <use xlink:href="#SimHei-65" x="350"/>
      <use xlink:href="#SimHei-20" x="400"/>
      <use xlink:href="#SimHei-70" x="450"/>
      <use xlink:href="#SimHei-6f" x="500"/>
      <use xlink:href="#SimHei-6c" x="550"/>
      <use xlink:href="#SimHei-69" x="600"/>
      <use xlink:href="#SimHei-63" x="650"/>
      <use xlink:href="#SimHei-79" x="700"/>
     </g>
    </g>
    <g id="line2d_20">
     <path d="M 182.16 67.222 
L 192.16 67.222 
L 202.16 67.222 
" style="fill: none; stroke-dasharray: 1.5,2.475; stroke-dashoffset: 0; stroke: #3271ae; stroke-width: 1.5"/>
     <g>
      <use xlink:href="#md2dc94e029" x="192.16" y="67.222" style="fill-opacity: 0; stroke: #3271ae"/>
     </g>
    </g>
    <g id="text_14">
     <!-- Original policy -->
     <g style="fill: #262626" transform="translate(210.16 70.722) scale(0.1 -0.1)">
      <defs>
       <path id="SimHei-72" d="M 2500 2425 
Q 2025 2500 1700 2287 
Q 1375 2075 1150 1550 
L 1150 125 
L 650 125 
L 650 2925 
L 1150 2925 
L 1150 2200 
Q 1375 2600 1712 2787 
Q 2050 2975 2500 2975 
L 2500 2425 
z
" transform="scale(0.015625)"/>
       <path id="SimHei-67" d="M 2975 2500 
Q 2800 2550 2637 2562 
Q 2475 2575 2300 2525 
Q 2375 2450 2425 2337 
Q 2475 2225 2475 2000 
Q 2475 1575 2187 1300 
Q 1900 1025 1475 1025 
Q 1375 1025 1212 1062 
Q 1050 1100 950 1150 
Q 875 1100 850 1050 
Q 825 1000 825 925 
Q 825 800 1000 737 
Q 1175 675 1625 675 
Q 2350 675 2612 475 
Q 2875 275 2875 -25 
Q 2875 -425 2487 -612 
Q 2100 -800 1575 -800 
Q 900 -800 575 -625 
Q 250 -450 250 -150 
Q 250 0 375 150 
Q 500 300 700 400 
Q 550 475 462 587 
Q 375 700 375 875 
Q 375 1025 487 1137 
Q 600 1250 750 1325 
Q 625 1450 550 1625 
Q 475 1800 475 2000 
Q 475 2425 762 2700 
Q 1050 2975 1475 2975 
Q 1700 2975 1862 2912 
Q 2025 2850 2150 2725 
Q 2350 2875 2550 2937 
Q 2750 3000 2975 2975 
L 2975 2500 
z
M 1975 2000 
Q 1975 2250 1850 2400 
Q 1725 2550 1475 2550 
Q 1225 2550 1100 2400 
Q 975 2250 975 2000 
Q 975 1750 1100 1600 
Q 1225 1450 1475 1450 
Q 1725 1450 1850 1600 
Q 1975 1750 1975 2000 
z
M 2400 -75 
Q 2400 25 2287 125 
Q 2175 225 1725 225 
Q 1625 225 1450 237 
Q 1275 250 1050 275 
Q 850 200 775 100 
Q 700 0 700 -100 
Q 700 -250 900 -350 
Q 1100 -450 1600 -450 
Q 2025 -450 2212 -337 
Q 2400 -225 2400 -75 
z
" transform="scale(0.015625)"/>
       <path id="SimHei-6e" d="M 2800 125 
L 2300 125 
L 2300 1925 
Q 2300 2225 2150 2400 
Q 2000 2575 1750 2575 
Q 1425 2575 1137 2237 
Q 850 1900 850 1400 
L 850 125 
L 350 125 
L 350 2925 
L 850 2925 
L 850 2400 
Q 1050 2675 1287 2825 
Q 1525 2975 1900 2975 
Q 2350 2975 2575 2725 
Q 2800 2475 2800 2100 
L 2800 125 
z
" transform="scale(0.015625)"/>
       <path id="SimHei-61" d="M 2875 125 
L 2275 125 
Q 2225 175 2200 262 
Q 2175 350 2175 475 
Q 2000 275 1750 175 
Q 1500 75 1225 75 
Q 825 75 550 275 
Q 275 475 275 850 
Q 275 1225 525 1450 
Q 775 1675 1300 1750 
Q 1650 1800 1912 1875 
Q 2175 1950 2175 2075 
Q 2175 2225 2062 2375 
Q 1950 2525 1575 2525 
Q 1275 2525 1137 2412 
Q 1000 2300 950 2100 
L 400 2100 
Q 450 2500 762 2737 
Q 1075 2975 1575 2975 
Q 2125 2975 2400 2725 
Q 2675 2475 2675 2025 
L 2675 650 
Q 2675 500 2725 375 
Q 2775 250 2875 125 
z
M 2175 1050 
L 2175 1550 
Q 2025 1500 1887 1462 
Q 1750 1425 1425 1375 
Q 1050 1325 937 1200 
Q 825 1075 825 900 
Q 825 750 937 637 
Q 1050 525 1275 525 
Q 1500 525 1762 650 
Q 2025 775 2175 1050 
z
" transform="scale(0.015625)"/>
      </defs>
      <use xlink:href="#SimHei-4f"/>
      <use xlink:href="#SimHei-72" x="50"/>
      <use xlink:href="#SimHei-69" x="100"/>
      <use xlink:href="#SimHei-67" x="150"/>
      <use xlink:href="#SimHei-69" x="200"/>
      <use xlink:href="#SimHei-6e" x="250"/>
      <use xlink:href="#SimHei-61" x="300"/>
      <use xlink:href="#SimHei-6c" x="350"/>
      <use xlink:href="#SimHei-20" x="400"/>
      <use xlink:href="#SimHei-70" x="450"/>
      <use xlink:href="#SimHei-6f" x="500"/>
      <use xlink:href="#SimHei-6c" x="550"/>
      <use xlink:href="#SimHei-69" x="600"/>
      <use xlink:href="#SimHei-63" x="650"/>
      <use xlink:href="#SimHei-79" x="700"/>
     </g>
    </g>
    <g id="line2d_21">
     <path d="M 182.16 80.472 
L 192.16 80.472 
L 202.16 80.472 
" style="fill: none; stroke: #e18a3b; stroke-width: 1.5; stroke-linecap: round"/>
    </g>
    <g id="text_15">
     <!-- Optimize-GM -->
     <g style="fill: #262626" transform="translate(210.16 83.972) scale(0.1 -0.1)">
      <defs>
       <path id="SimHei-2d" d="M 2975 2125 
L 125 2125 
L 125 2525 
L 2975 2525 
L 2975 2125 
z
" transform="scale(0.015625)"/>
       <path id="SimHei-47" d="M 2850 75 
L 2425 75 
L 2350 425 
Q 2250 275 2037 175 
Q 1825 75 1575 75 
Q 1050 75 637 562 
Q 225 1050 225 2125 
Q 225 3300 600 3875 
Q 975 4450 1625 4450 
Q 2200 4450 2525 4025 
Q 2850 3600 2850 2925 
L 2300 2925 
Q 2300 3450 2125 3712 
Q 1950 3975 1625 3975 
Q 1225 3975 1025 3562 
Q 825 3150 825 2175 
Q 825 1250 1075 900 
Q 1325 550 1650 550 
Q 1975 550 2162 787 
Q 2350 1025 2350 1525 
L 2350 1800 
L 1575 1800 
L 1575 2275 
L 2850 2275 
L 2850 75 
z
" transform="scale(0.015625)"/>
       <path id="SimHei-4d" d="M 2925 125 
L 2425 125 
L 2425 3175 
L 2375 3175 
L 1775 125 
L 1375 125 
L 775 3175 
L 725 3175 
L 725 125 
L 225 125 
L 225 4400 
L 1000 4400 
L 1550 1575 
L 1600 1575 
L 2150 4400 
L 2925 4400 
L 2925 125 
z
" transform="scale(0.015625)"/>
      </defs>
      <use xlink:href="#SimHei-4f"/>
      <use xlink:href="#SimHei-70" x="50"/>
      <use xlink:href="#SimHei-74" x="100"/>
      <use xlink:href="#SimHei-69" x="150"/>
      <use xlink:href="#SimHei-6d" x="200"/>
      <use xlink:href="#SimHei-69" x="250"/>
      <use xlink:href="#SimHei-7a" x="300"/>
      <use xlink:href="#SimHei-65" x="350"/>
      <use xlink:href="#SimHei-2d" x="400"/>
      <use xlink:href="#SimHei-47" x="450"/>
      <use xlink:href="#SimHei-4d" x="500"/>
     </g>
    </g>
    <g id="line2d_22">
     <path d="M 182.16 93.722 
L 192.16 93.722 
L 202.16 93.722 
" style="fill: none; stroke: #3271ae; stroke-width: 1.5; stroke-linecap: round"/>
    </g>
    <g id="text_16">
     <!-- Original-GM -->
     <g style="fill: #262626" transform="translate(210.16 97.222) scale(0.1 -0.1)">
      <use xlink:href="#SimHei-4f"/>
      <use xlink:href="#SimHei-72" x="50"/>
      <use xlink:href="#SimHei-69" x="100"/>
      <use xlink:href="#SimHei-67" x="150"/>
      <use xlink:href="#SimHei-69" x="200"/>
      <use xlink:href="#SimHei-6e" x="250"/>
      <use xlink:href="#SimHei-61" x="300"/>
      <use xlink:href="#SimHei-6c" x="350"/>
      <use xlink:href="#SimHei-2d" x="400"/>
      <use xlink:href="#SimHei-47" x="450"/>
      <use xlink:href="#SimHei-4d" x="500"/>
     </g>
    </g>
    <g id="line2d_23">
     <path d="M 182.16 107.00325 
L 192.16 107.00325 
L 202.16 107.00325 
" style="fill: none; stroke-dasharray: 1.5,2.475; stroke-dashoffset: 0; stroke: #ff0000; stroke-width: 1.5"/>
    </g>
    <g id="text_17">
     <!-- Asymptote 0.3579 -->
     <g style="fill: #262626" transform="translate(210.16 110.50325) scale(0.1 -0.1)">
      <defs>
       <path id="SimHei-41" d="M 3075 125 
L 2475 125 
L 2125 1450 
L 1025 1450 
L 675 125 
L 75 125 
L 1325 4450 
L 1825 4450 
L 3075 125 
z
M 2000 1925 
L 1600 3450 
L 1550 3450 
L 1150 1925 
L 2000 1925 
z
" transform="scale(0.015625)"/>
       <path id="SimHei-73" d="M 2750 900 
Q 2750 500 2437 287 
Q 2125 75 1650 75 
Q 1050 75 725 312 
Q 400 550 400 1000 
L 900 1000 
Q 900 700 1112 600 
Q 1325 500 1625 500 
Q 1925 500 2075 612 
Q 2225 725 2225 900 
Q 2225 1025 2100 1150 
Q 1975 1275 1475 1350 
Q 900 1425 687 1637 
Q 475 1850 475 2200 
Q 475 2500 762 2737 
Q 1050 2975 1600 2975 
Q 2100 2975 2387 2750 
Q 2675 2525 2675 2150 
L 2175 2150 
Q 2175 2375 2012 2462 
Q 1850 2550 1600 2550 
Q 1275 2550 1137 2437 
Q 1000 2325 1000 2175 
Q 1000 2000 1125 1900 
Q 1250 1800 1650 1750 
Q 2300 1650 2525 1437 
Q 2750 1225 2750 900 
z
" transform="scale(0.015625)"/>
      </defs>
      <use xlink:href="#SimHei-41"/>
      <use xlink:href="#SimHei-73" x="50"/>
      <use xlink:href="#SimHei-79" x="100"/>
      <use xlink:href="#SimHei-6d" x="150"/>
      <use xlink:href="#SimHei-70" x="200"/>
      <use xlink:href="#SimHei-74" x="250"/>
      <use xlink:href="#SimHei-6f" x="300"/>
      <use xlink:href="#SimHei-74" x="350"/>
      <use xlink:href="#SimHei-65" x="400"/>
      <use xlink:href="#SimHei-20" x="450"/>
      <use xlink:href="#SimHei-30" x="500"/>
      <use xlink:href="#SimHei-2e" x="550"/>
      <use xlink:href="#SimHei-33" x="600"/>
      <use xlink:href="#SimHei-35" x="650"/>
      <use xlink:href="#SimHei-37" x="700"/>
      <use xlink:href="#SimHei-39" x="750"/>
     </g>
    </g>
    <g id="line2d_24">
     <path d="M 182.16 120.2845 
L 192.16 120.2845 
L 202.16 120.2845 
" style="fill: none; stroke-dasharray: 1.5,2.475; stroke-dashoffset: 0; stroke: #000000; stroke-width: 1.5"/>
    </g>
    <g id="text_18">
     <!-- Asymptote 0.3805 -->
     <g style="fill: #262626" transform="translate(210.16 123.7845) scale(0.1 -0.1)">
      <use xlink:href="#SimHei-41"/>
      <use xlink:href="#SimHei-73" x="50"/>
      <use xlink:href="#SimHei-79" x="100"/>
      <use xlink:href="#SimHei-6d" x="150"/>
      <use xlink:href="#SimHei-70" x="200"/>
      <use xlink:href="#SimHei-74" x="250"/>
      <use xlink:href="#SimHei-6f" x="300"/>
      <use xlink:href="#SimHei-74" x="350"/>
      <use xlink:href="#SimHei-65" x="400"/>
      <use xlink:href="#SimHei-20" x="450"/>
      <use xlink:href="#SimHei-30" x="500"/>
      <use xlink:href="#SimHei-2e" x="550"/>
      <use xlink:href="#SimHei-33" x="600"/>
      <use xlink:href="#SimHei-38" x="650"/>
      <use xlink:href="#SimHei-30" x="700"/>
      <use xlink:href="#SimHei-35" x="750"/>
     </g>
    </g>
   </g>
  </g>
 </g>
 <defs>
  <clipPath id="p0c438dc112">
   <rect x="57.6" y="41.472" width="357.12" height="266.112"/>
  </clipPath>
 </defs>
</svg>
