<?xml version="1.0" encoding="utf-8" standalone="no"?>
<!DOCTYPE svg PUBLIC "-//W3C//DTD SVG 1.1//EN"
  "http://www.w3.org/Graphics/SVG/1.1/DTD/svg11.dtd">
<svg xmlns:xlink="http://www.w3.org/1999/xlink" width="720pt" height="432pt" viewBox="0 0 720 432" xmlns="http://www.w3.org/2000/svg" version="1.1">
 <metadata>
  <rdf:RDF xmlns:dc="http://purl.org/dc/elements/1.1/" xmlns:cc="http://creativecommons.org/ns#" xmlns:rdf="http://www.w3.org/1999/02/22-rdf-syntax-ns#">
   <cc:Work>
    <dc:type rdf:resource="http://purl.org/dc/dcmitype/StillImage"/>
    <dc:date>2023-02-20T22:35:43.178052</dc:date>
    <dc:format>image/svg+xml</dc:format>
    <dc:creator>
     <cc:Agent>
      <dc:title>Matplotlib v3.6.3, https://matplotlib.org/</dc:title>
     </cc:Agent>
    </dc:creator>
   </cc:Work>
  </rdf:RDF>
 </metadata>
 <defs>
  <style type="text/css">*{stroke-linejoin: round; stroke-linecap: butt}</style>
 </defs>
 <g id="figure_1">
  <g id="patch_1">
   <path d="M 0 432 
L 720 432 
L 720 0 
L 0 0 
z
" style="fill: #ffffff"/>
  </g>
  <g id="axes_1">
   <g id="patch_2">
    <path d="M 25.903365 391.597835 
L 716.99976 391.597835 
L 716.99976 3.00024 
L 25.903365 3.00024 
z
" style="fill: #ffffff"/>
   </g>
   <g id="patch_3">
    <path d="M 57.316837 391.597835 
L 61.590779 391.597835 
L 61.590779 324.762912 
L 57.316837 324.762912 
z
" clip-path="url(#p31cd4d75b2)" style="fill: #6698c4"/>
   </g>
   <g id="patch_4">
    <path d="M 74.412605 391.597835 
L 78.686547 391.597835 
L 78.686547 348.424348 
L 74.412605 348.424348 
z
" clip-path="url(#p31cd4d75b2)" style="fill: #6698c4"/>
   </g>
   <g id="patch_5">
    <path d="M 91.508372 391.597835 
L 95.782314 391.597835 
L 95.782314 352.321119 
L 91.508372 352.321119 
z
" clip-path="url(#p31cd4d75b2)" style="fill: #6698c4"/>
   </g>
   <g id="patch_6">
    <path d="M 108.60414 391.597835 
L 112.878081 391.597835 
L 112.878081 344.637182 
L 108.60414 344.637182 
z
" clip-path="url(#p31cd4d75b2)" style="fill: #6698c4"/>
   </g>
   <g id="patch_7">
    <path d="M 125.699907 391.597835 
L 129.973849 391.597835 
L 129.973849 344.818445 
L 125.699907 344.818445 
z
" clip-path="url(#p31cd4d75b2)" style="fill: #6698c4"/>
   </g>
   <g id="patch_8">
    <path d="M 142.795674 391.597835 
L 147.069616 391.597835 
L 147.069616 335.201443 
L 142.795674 335.201443 
z
" clip-path="url(#p31cd4d75b2)" style="fill: #6698c4"/>
   </g>
   <g id="patch_9">
    <path d="M 159.891442 391.597835 
L 164.165383 391.597835 
L 164.165383 313.927745 
L 159.891442 313.927745 
z
" clip-path="url(#p31cd4d75b2)" style="fill: #6698c4"/>
   </g>
   <g id="patch_10">
    <path d="M 176.987209 391.597835 
L 181.261151 391.597835 
L 181.261151 348.757502 
L 176.987209 348.757502 
z
" clip-path="url(#p31cd4d75b2)" style="fill: #6698c4"/>
   </g>
   <g id="patch_11">
    <path d="M 194.082976 391.597835 
L 198.356918 391.597835 
L 198.356918 348.86043 
L 194.082976 348.86043 
z
" clip-path="url(#p31cd4d75b2)" style="fill: #6698c4"/>
   </g>
   <g id="patch_12">
    <path d="M 211.178744 391.597835 
L 215.452685 391.597835 
L 215.452685 344.209722 
L 211.178744 344.209722 
z
" clip-path="url(#p31cd4d75b2)" style="fill: #6698c4"/>
   </g>
   <g id="patch_13">
    <path d="M 228.274511 391.597835 
L 232.548453 391.597835 
L 232.548453 341.707715 
L 228.274511 341.707715 
z
" clip-path="url(#p31cd4d75b2)" style="fill: #6698c4"/>
   </g>
   <g id="patch_14">
    <path d="M 245.370278 391.597835 
L 249.64422 391.597835 
L 249.64422 338.139416 
L 245.370278 338.139416 
z
" clip-path="url(#p31cd4d75b2)" style="fill: #6698c4"/>
   </g>
   <g id="patch_15">
    <path d="M 262.466046 391.597835 
L 266.739987 391.597835 
L 266.739987 336.285108 
L 262.466046 336.285108 
z
" clip-path="url(#p31cd4d75b2)" style="fill: #6698c4"/>
   </g>
   <g id="patch_16">
    <path d="M 279.561813 391.597835 
L 283.835755 391.597835 
L 283.835755 356.63931 
L 279.561813 356.63931 
z
" clip-path="url(#p31cd4d75b2)" style="fill: #6698c4"/>
   </g>
   <g id="patch_17">
    <path d="M 296.65758 391.597835 
L 300.931522 391.597835 
L 300.931522 357.675967 
L 296.65758 357.675967 
z
" clip-path="url(#p31cd4d75b2)" style="fill: #6698c4"/>
   </g>
   <g id="patch_18">
    <path d="M 313.753348 391.597835 
L 318.02729 391.597835 
L 318.02729 355.769925 
L 313.753348 355.769925 
z
" clip-path="url(#p31cd4d75b2)" style="fill: #6698c4"/>
   </g>
   <g id="patch_19">
    <path d="M 330.849115 391.597835 
L 335.123057 391.597835 
L 335.123057 327.583581 
L 330.849115 327.583581 
z
" clip-path="url(#p31cd4d75b2)" style="fill: #6698c4"/>
   </g>
   <g id="patch_20">
    <path d="M 347.944882 391.597835 
L 352.218824 391.597835 
L 352.218824 328.609073 
L 347.944882 328.609073 
z
" clip-path="url(#p31cd4d75b2)" style="fill: #6698c4"/>
   </g>
   <g id="patch_21">
    <path d="M 365.04065 391.597835 
L 369.314592 391.597835 
L 369.314592 357.56278 
L 365.04065 357.56278 
z
" clip-path="url(#p31cd4d75b2)" style="fill: #6698c4"/>
   </g>
   <g id="patch_22">
    <path d="M 382.136417 391.597835 
L 386.410359 391.597835 
L 386.410359 358.878414 
L 382.136417 358.878414 
z
" clip-path="url(#p31cd4d75b2)" style="fill: #6698c4"/>
   </g>
   <g id="patch_23">
    <path d="M 399.232184 391.597835 
L 403.506126 391.597835 
L 403.506126 359.778516 
L 399.232184 359.778516 
z
" clip-path="url(#p31cd4d75b2)" style="fill: #6698c4"/>
   </g>
   <g id="patch_24">
    <path d="M 416.327952 391.597835 
L 420.601894 391.597835 
L 420.601894 355.999454 
L 416.327952 355.999454 
z
" clip-path="url(#p31cd4d75b2)" style="fill: #6698c4"/>
   </g>
   <g id="patch_25">
    <path d="M 433.423719 391.597835 
L 437.697661 391.597835 
L 437.697661 359.154419 
L 433.423719 359.154419 
z
" clip-path="url(#p31cd4d75b2)" style="fill: #6698c4"/>
   </g>
   <g id="patch_26">
    <path d="M 450.519486 391.597835 
L 454.793428 391.597835 
L 454.793428 358.339331 
L 450.519486 358.339331 
z
" clip-path="url(#p31cd4d75b2)" style="fill: #6698c4"/>
   </g>
   <g id="patch_27">
    <path d="M 467.615254 391.597835 
L 471.889196 391.597835 
L 471.889196 329.546498 
L 467.615254 329.546498 
z
" clip-path="url(#p31cd4d75b2)" style="fill: #6698c4"/>
   </g>
   <g id="patch_28">
    <path d="M 484.711021 391.597835 
L 488.984963 391.597835 
L 488.984963 354.464996 
L 484.711021 354.464996 
z
" clip-path="url(#p31cd4d75b2)" style="fill: #6698c4"/>
   </g>
   <g id="patch_29">
    <path d="M 501.806789 391.597835 
L 506.08073 391.597835 
L 506.08073 361.274961 
L 501.806789 361.274961 
z
" clip-path="url(#p31cd4d75b2)" style="fill: #6698c4"/>
   </g>
   <g id="patch_30">
    <path d="M 518.902556 391.597835 
L 523.176498 391.597835 
L 523.176498 363.572471 
L 518.902556 363.572471 
z
" clip-path="url(#p31cd4d75b2)" style="fill: #6698c4"/>
   </g>
   <g id="patch_31">
    <path d="M 535.998323 391.597835 
L 540.272265 391.597835 
L 540.272265 355.769925 
L 535.998323 355.769925 
z
" clip-path="url(#p31cd4d75b2)" style="fill: #6698c4"/>
   </g>
   <g id="patch_32">
    <path d="M 553.094091 391.597835 
L 557.368032 391.597835 
L 557.368032 329.858564 
L 553.094091 329.858564 
z
" clip-path="url(#p31cd4d75b2)" style="fill: #6698c4"/>
   </g>
   <g id="patch_33">
    <path d="M 570.189858 391.597835 
L 574.4638 391.597835 
L 574.4638 362.013253 
L 570.189858 362.013253 
z
" clip-path="url(#p31cd4d75b2)" style="fill: #6698c4"/>
   </g>
   <g id="patch_34">
    <path d="M 587.285625 391.597835 
L 591.559567 391.597835 
L 591.559567 361.941157 
L 587.285625 361.941157 
z
" clip-path="url(#p31cd4d75b2)" style="fill: #6698c4"/>
   </g>
   <g id="patch_35">
    <path d="M 604.381393 391.597835 
L 608.655334 391.597835 
L 608.655334 355.940001 
L 604.381393 355.940001 
z
" clip-path="url(#p31cd4d75b2)" style="fill: #6698c4"/>
   </g>
   <g id="patch_36">
    <path d="M 621.47716 391.597835 
L 625.751102 391.597835 
L 625.751102 331.725803 
L 621.47716 331.725803 
z
" clip-path="url(#p31cd4d75b2)" style="fill: #6698c4"/>
   </g>
   <g id="patch_37">
    <path d="M 638.572927 391.597835 
L 642.846869 391.597835 
L 642.846869 324.821519 
L 638.572927 324.821519 
z
" clip-path="url(#p31cd4d75b2)" style="fill: #6698c4"/>
   </g>
   <g id="patch_38">
    <path d="M 655.668695 391.597835 
L 659.942636 391.597835 
L 659.942636 339.811659 
L 655.668695 339.811659 
z
" clip-path="url(#p31cd4d75b2)" style="fill: #6698c4"/>
   </g>
   <g id="patch_39">
    <path d="M 672.764462 391.597835 
L 677.038404 391.597835 
L 677.038404 347.255054 
L 672.764462 347.255054 
z
" clip-path="url(#p31cd4d75b2)" style="fill: #6698c4"/>
   </g>
   <g id="patch_40">
    <path d="M 61.590779 391.597835 
L 65.864721 391.597835 
L 65.864721 352.490861 
L 61.590779 352.490861 
z
" clip-path="url(#p31cd4d75b2)" style="fill: #ffe69a"/>
   </g>
   <g id="patch_41">
    <path d="M 78.686547 391.597835 
L 82.960489 391.597835 
L 82.960489 339.026848 
L 78.686547 339.026848 
z
" clip-path="url(#p31cd4d75b2)" style="fill: #ffe69a"/>
   </g>
   <g id="patch_42">
    <path d="M 95.782314 391.597835 
L 100.056256 391.597835 
L 100.056256 329.057419 
L 95.782314 329.057419 
z
" clip-path="url(#p31cd4d75b2)" style="fill: #ffe69a"/>
   </g>
   <g id="patch_43">
    <path d="M 112.878081 391.597835 
L 117.152023 391.597835 
L 117.152023 341.858262 
L 112.878081 341.858262 
z
" clip-path="url(#p31cd4d75b2)" style="fill: #ffe69a"/>
   </g>
   <g id="patch_44">
    <path d="M 129.973849 391.597835 
L 134.247791 391.597835 
L 134.247791 342.01954 
L 129.973849 342.01954 
z
" clip-path="url(#p31cd4d75b2)" style="fill: #ffe69a"/>
   </g>
   <g id="patch_45">
    <path d="M 147.069616 391.597835 
L 151.343558 391.597835 
L 151.343558 347.498408 
L 147.069616 347.498408 
z
" clip-path="url(#p31cd4d75b2)" style="fill: #ffe69a"/>
   </g>
   <g id="patch_46">
    <path d="M 164.165383 391.597835 
L 168.439325 391.597835 
L 168.439325 360.762583 
L 164.165383 360.762583 
z
" clip-path="url(#p31cd4d75b2)" style="fill: #ffe69a"/>
   </g>
   <g id="patch_47">
    <path d="M 181.261151 391.597835 
L 185.535093 391.597835 
L 185.535093 334.350726 
L 181.261151 334.350726 
z
" clip-path="url(#p31cd4d75b2)" style="fill: #ffe69a"/>
   </g>
   <g id="patch_48">
    <path d="M 198.356918 391.597835 
L 202.63086 391.597835 
L 202.63086 329.276697 
L 198.356918 329.276697 
z
" clip-path="url(#p31cd4d75b2)" style="fill: #ffe69a"/>
   </g>
   <g id="patch_49">
    <path d="M 215.452685 391.597835 
L 219.726627 391.597835 
L 219.726627 343.38659 
L 215.452685 343.38659 
z
" clip-path="url(#p31cd4d75b2)" style="fill: #ffe69a"/>
   </g>
   <g id="patch_50">
    <path d="M 232.548453 391.597835 
L 236.822395 391.597835 
L 236.822395 336.877861 
L 232.548453 336.877861 
z
" clip-path="url(#p31cd4d75b2)" style="fill: #ffe69a"/>
   </g>
   <g id="patch_51">
    <path d="M 249.64422 391.597835 
L 253.918162 391.597835 
L 253.918162 343.968489 
L 249.64422 343.968489 
z
" clip-path="url(#p31cd4d75b2)" style="fill: #ffe69a"/>
   </g>
   <g id="patch_52">
    <path d="M 266.739987 391.597835 
L 271.013929 391.597835 
L 271.013929 346.601284 
L 266.739987 346.601284 
z
" clip-path="url(#p31cd4d75b2)" style="fill: #ffe69a"/>
   </g>
   <g id="patch_53">
    <path d="M 283.835755 391.597835 
L 288.109697 391.597835 
L 288.109697 329.892462 
L 283.835755 329.892462 
z
" clip-path="url(#p31cd4d75b2)" style="fill: #ffe69a"/>
   </g>
   <g id="patch_54">
    <path d="M 300.931522 391.597835 
L 305.205464 391.597835 
L 305.205464 327.138176 
L 300.931522 327.138176 
z
" clip-path="url(#p31cd4d75b2)" style="fill: #ffe69a"/>
   </g>
   <g id="patch_55">
    <path d="M 318.02729 391.597835 
L 322.301231 391.597835 
L 322.301231 329.741542 
L 318.02729 329.741542 
z
" clip-path="url(#p31cd4d75b2)" style="fill: #ffe69a"/>
   </g>
   <g id="patch_56">
    <path d="M 335.123057 391.597835 
L 339.396999 391.597835 
L 339.396999 349.955303 
L 335.123057 349.955303 
z
" clip-path="url(#p31cd4d75b2)" style="fill: #ffe69a"/>
   </g>
   <g id="patch_57">
    <path d="M 352.218824 391.597835 
L 356.492766 391.597835 
L 356.492766 345.812429 
L 352.218824 345.812429 
z
" clip-path="url(#p31cd4d75b2)" style="fill: #ffe69a"/>
   </g>
   <g id="patch_58">
    <path d="M 369.314592 391.597835 
L 373.588533 391.597835 
L 373.588533 328.83389 
L 369.314592 328.83389 
z
" clip-path="url(#p31cd4d75b2)" style="fill: #ffe69a"/>
   </g>
   <g id="patch_59">
    <path d="M 386.410359 391.597835 
L 390.684301 391.597835 
L 390.684301 324.01869 
L 386.410359 324.01869 
z
" clip-path="url(#p31cd4d75b2)" style="fill: #ffe69a"/>
   </g>
   <g id="patch_60">
    <path d="M 403.506126 391.597835 
L 407.780068 391.597835 
L 407.780068 320.264648 
L 403.506126 320.264648 
z
" clip-path="url(#p31cd4d75b2)" style="fill: #ffe69a"/>
   </g>
   <g id="patch_61">
    <path d="M 420.601894 391.597835 
L 424.875835 391.597835 
L 424.875835 329.963346 
L 420.601894 329.963346 
z
" clip-path="url(#p31cd4d75b2)" style="fill: #ffe69a"/>
   </g>
   <g id="patch_62">
    <path d="M 437.697661 391.597835 
L 441.971603 391.597835 
L 441.971603 321.516335 
L 437.697661 321.516335 
z
" clip-path="url(#p31cd4d75b2)" style="fill: #ffe69a"/>
   </g>
   <g id="patch_63">
    <path d="M 454.793428 391.597835 
L 459.06737 391.597835 
L 459.06737 328.137121 
L 454.793428 328.137121 
z
" clip-path="url(#p31cd4d75b2)" style="fill: #ffe69a"/>
   </g>
   <g id="patch_64">
    <path d="M 471.889196 391.597835 
L 476.163137 391.597835 
L 476.163137 343.972513 
L 471.889196 343.972513 
z
" clip-path="url(#p31cd4d75b2)" style="fill: #ffe69a"/>
   </g>
   <g id="patch_65">
    <path d="M 488.984963 391.597835 
L 493.258905 391.597835 
L 493.258905 322.249471 
L 488.984963 322.249471 
z
" clip-path="url(#p31cd4d75b2)" style="fill: #ffe69a"/>
   </g>
   <g id="patch_66">
    <path d="M 506.08073 391.597835 
L 510.354672 391.597835 
L 510.354672 325.298027 
L 506.08073 325.298027 
z
" clip-path="url(#p31cd4d75b2)" style="fill: #ffe69a"/>
   </g>
   <g id="patch_67">
    <path d="M 523.176498 391.597835 
L 527.45044 391.597835 
L 527.45044 317.551339 
L 523.176498 317.551339 
z
" clip-path="url(#p31cd4d75b2)" style="fill: #ffe69a"/>
   </g>
   <g id="patch_68">
    <path d="M 540.272265 391.597835 
L 544.546207 391.597835 
L 544.546207 329.741542 
L 540.272265 329.741542 
z
" clip-path="url(#p31cd4d75b2)" style="fill: #ffe69a"/>
   </g>
   <g id="patch_69">
    <path d="M 557.368032 391.597835 
L 561.641974 391.597835 
L 561.641974 342.161784 
L 557.368032 342.161784 
z
" clip-path="url(#p31cd4d75b2)" style="fill: #ffe69a"/>
   </g>
   <g id="patch_70">
    <path d="M 574.4638 391.597835 
L 578.737742 391.597835 
L 578.737742 318.667583 
L 574.4638 318.667583 
z
" clip-path="url(#p31cd4d75b2)" style="fill: #ffe69a"/>
   </g>
   <g id="patch_71">
    <path d="M 591.559567 391.597835 
L 595.833509 391.597835 
L 595.833509 324.464427 
L 591.559567 324.464427 
z
" clip-path="url(#p31cd4d75b2)" style="fill: #ffe69a"/>
   </g>
   <g id="patch_72">
    <path d="M 608.655334 391.597835 
L 612.929276 391.597835 
L 612.929276 332.293958 
L 608.655334 332.293958 
z
" clip-path="url(#p31cd4d75b2)" style="fill: #ffe69a"/>
   </g>
   <g id="patch_73">
    <path d="M 625.751102 391.597835 
L 630.025044 391.597835 
L 630.025044 336.340999 
L 625.751102 336.340999 
z
" clip-path="url(#p31cd4d75b2)" style="fill: #ffe69a"/>
   </g>
   <g id="patch_74">
    <path d="M 642.846869 391.597835 
L 647.120811 391.597835 
L 647.120811 356.752826 
L 642.846869 356.752826 
z
" clip-path="url(#p31cd4d75b2)" style="fill: #ffe69a"/>
   </g>
   <g id="patch_75">
    <path d="M 659.942636 391.597835 
L 664.216578 391.597835 
L 664.216578 336.876805 
L 659.942636 336.876805 
z
" clip-path="url(#p31cd4d75b2)" style="fill: #ffe69a"/>
   </g>
   <g id="patch_76">
    <path d="M 677.038404 391.597835 
L 681.312346 391.597835 
L 681.312346 319.980301 
L 677.038404 319.980301 
z
" clip-path="url(#p31cd4d75b2)" style="fill: #ffe69a"/>
   </g>
   <g id="patch_77">
    <path d="M 65.864721 391.597835 
L 70.138663 391.597835 
L 70.138663 203.276816 
L 65.864721 203.276816 
z
" clip-path="url(#p31cd4d75b2)" style="fill: #fab28c"/>
   </g>
   <g id="patch_78">
    <path d="M 82.960489 391.597835 
L 87.23443 391.597835 
L 87.23443 111.477432 
L 82.960489 111.477432 
z
" clip-path="url(#p31cd4d75b2)" style="fill: #fab28c"/>
   </g>
   <g id="patch_79">
    <path d="M 100.056256 391.597835 
L 104.330198 391.597835 
L 104.330198 78.231577 
L 100.056256 78.231577 
z
" clip-path="url(#p31cd4d75b2)" style="fill: #fab28c"/>
   </g>
   <g id="patch_80">
    <path d="M 117.152023 391.597835 
L 121.425965 391.597835 
L 121.425965 129.183903 
L 117.152023 129.183903 
z
" clip-path="url(#p31cd4d75b2)" style="fill: #fab28c"/>
   </g>
   <g id="patch_81">
    <path d="M 134.247791 391.597835 
L 138.521732 391.597835 
L 138.521732 129.104938 
L 134.247791 129.104938 
z
" clip-path="url(#p31cd4d75b2)" style="fill: #fab28c"/>
   </g>
   <g id="patch_82">
    <path d="M 151.343558 391.597835 
L 155.6175 391.597835 
L 155.6175 167.727124 
L 151.343558 167.727124 
z
" clip-path="url(#p31cd4d75b2)" style="fill: #fab28c"/>
   </g>
   <g id="patch_83">
    <path d="M 168.439325 391.597835 
L 172.713267 391.597835 
L 172.713267 246.617632 
L 168.439325 246.617632 
z
" clip-path="url(#p31cd4d75b2)" style="fill: #fab28c"/>
   </g>
   <g id="patch_84">
    <path d="M 185.535093 391.597835 
L 189.809034 391.597835 
L 189.809034 99.797159 
L 185.535093 99.797159 
z
" clip-path="url(#p31cd4d75b2)" style="fill: #fab28c"/>
   </g>
   <g id="patch_85">
    <path d="M 202.63086 391.597835 
L 206.904802 391.597835 
L 206.904802 88.964806 
L 202.63086 88.964806 
z
" clip-path="url(#p31cd4d75b2)" style="fill: #fab28c"/>
   </g>
   <g id="patch_86">
    <path d="M 219.726627 391.597835 
L 224.000569 391.597835 
L 224.000569 134.318031 
L 219.726627 134.318031 
z
" clip-path="url(#p31cd4d75b2)" style="fill: #fab28c"/>
   </g>
   <g id="patch_87">
    <path d="M 236.822395 391.597835 
L 241.096336 391.597835 
L 241.096336 124.73714 
L 236.822395 124.73714 
z
" clip-path="url(#p31cd4d75b2)" style="fill: #fab28c"/>
   </g>
   <g id="patch_88">
    <path d="M 253.918162 391.597835 
L 258.192104 391.597835 
L 258.192104 151.223361 
L 253.918162 151.223361 
z
" clip-path="url(#p31cd4d75b2)" style="fill: #fab28c"/>
   </g>
   <g id="patch_89">
    <path d="M 271.013929 391.597835 
L 275.287871 391.597835 
L 275.287871 162.748084 
L 271.013929 162.748084 
z
" clip-path="url(#p31cd4d75b2)" style="fill: #fab28c"/>
   </g>
   <g id="patch_90">
    <path d="M 288.109697 391.597835 
L 292.383639 391.597835 
L 292.383639 65.932898 
L 288.109697 65.932898 
z
" clip-path="url(#p31cd4d75b2)" style="fill: #fab28c"/>
   </g>
   <g id="patch_91">
    <path d="M 305.205464 391.597835 
L 309.479406 391.597835 
L 309.479406 57.336016 
L 305.205464 57.336016 
z
" clip-path="url(#p31cd4d75b2)" style="fill: #fab28c"/>
   </g>
   <g id="patch_92">
    <path d="M 322.301231 391.597835 
L 326.575173 391.597835 
L 326.575173 68.54625 
L 322.301231 68.54625 
z
" clip-path="url(#p31cd4d75b2)" style="fill: #fab28c"/>
   </g>
   <g id="patch_93">
    <path d="M 339.396999 391.597835 
L 343.670941 391.597835 
L 343.670941 190.525621 
L 339.396999 190.525621 
z
" clip-path="url(#p31cd4d75b2)" style="fill: #fab28c"/>
   </g>
   <g id="patch_94">
    <path d="M 356.492766 391.597835 
L 360.766708 391.597835 
L 360.766708 176.857501 
L 356.492766 176.857501 
z
" clip-path="url(#p31cd4d75b2)" style="fill: #fab28c"/>
   </g>
   <g id="patch_95">
    <path d="M 373.588533 391.597835 
L 377.862475 391.597835 
L 377.862475 60.808357 
L 373.588533 60.808357 
z
" clip-path="url(#p31cd4d75b2)" style="fill: #fab28c"/>
   </g>
   <g id="patch_96">
    <path d="M 390.684301 391.597835 
L 394.958243 391.597835 
L 394.958243 47.857661 
L 390.684301 47.857661 
z
" clip-path="url(#p31cd4d75b2)" style="fill: #fab28c"/>
   </g>
   <g id="patch_97">
    <path d="M 407.780068 391.597835 
L 412.05401 391.597835 
L 412.05401 38.801414 
L 407.780068 38.801414 
z
" clip-path="url(#p31cd4d75b2)" style="fill: #fab28c"/>
   </g>
   <g id="patch_98">
    <path d="M 424.875835 391.597835 
L 429.149777 391.597835 
L 429.149777 68.21049 
L 424.875835 68.21049 
z
" clip-path="url(#p31cd4d75b2)" style="fill: #fab28c"/>
   </g>
   <g id="patch_99">
    <path d="M 441.971603 391.597835 
L 446.245545 391.597835 
L 446.245545 42.870257 
L 441.971603 42.870257 
z
" clip-path="url(#p31cd4d75b2)" style="fill: #fab28c"/>
   </g>
   <g id="patch_100">
    <path d="M 459.06737 391.597835 
L 463.341312 391.597835 
L 463.341312 56.860231 
L 459.06737 56.860231 
z
" clip-path="url(#p31cd4d75b2)" style="fill: #fab28c"/>
   </g>
   <g id="patch_101">
    <path d="M 476.163137 391.597835 
L 480.437079 391.597835 
L 480.437079 170.066054 
L 476.163137 170.066054 
z
" clip-path="url(#p31cd4d75b2)" style="fill: #fab28c"/>
   </g>
   <g id="patch_102">
    <path d="M 493.258905 391.597835 
L 497.532847 391.597835 
L 497.532847 59.339721 
L 493.258905 59.339721 
z
" clip-path="url(#p31cd4d75b2)" style="fill: #fab28c"/>
   </g>
   <g id="patch_103">
    <path d="M 510.354672 391.597835 
L 514.628614 391.597835 
L 514.628614 41.535399 
L 510.354672 41.535399 
z
" clip-path="url(#p31cd4d75b2)" style="fill: #fab28c"/>
   </g>
   <g id="patch_104">
    <path d="M 527.45044 391.597835 
L 531.724381 391.597835 
L 531.724381 21.504887 
L 527.45044 21.504887 
z
" clip-path="url(#p31cd4d75b2)" style="fill: #fab28c"/>
   </g>
   <g id="patch_105">
    <path d="M 544.546207 391.597835 
L 548.820149 391.597835 
L 548.820149 68.54625 
L 544.546207 68.54625 
z
" clip-path="url(#p31cd4d75b2)" style="fill: #fab28c"/>
   </g>
   <g id="patch_106">
    <path d="M 561.641974 391.597835 
L 565.915916 391.597835 
L 565.915916 164.743177 
L 561.641974 164.743177 
z
" clip-path="url(#p31cd4d75b2)" style="fill: #fab28c"/>
   </g>
   <g id="patch_107">
    <path d="M 578.737742 391.597835 
L 583.011683 391.597835 
L 583.011683 28.659096 
L 578.737742 28.659096 
z
" clip-path="url(#p31cd4d75b2)" style="fill: #fab28c"/>
   </g>
   <g id="patch_108">
    <path d="M 595.833509 391.597835 
L 600.107451 391.597835 
L 600.107451 37.747066 
L 595.833509 37.747066 
z
" clip-path="url(#p31cd4d75b2)" style="fill: #fab28c"/>
   </g>
   <g id="patch_109">
    <path d="M 612.929276 391.597835 
L 617.203218 391.597835 
L 617.203218 72.997023 
L 612.929276 72.997023 
z
" clip-path="url(#p31cd4d75b2)" style="fill: #fab28c"/>
   </g>
   <g id="patch_110">
    <path d="M 630.025044 391.597835 
L 634.298985 391.597835 
L 634.298985 146.739943 
L 630.025044 146.739943 
z
" clip-path="url(#p31cd4d75b2)" style="fill: #fab28c"/>
   </g>
   <g id="patch_111">
    <path d="M 647.120811 391.597835 
L 651.394753 391.597835 
L 651.394753 216.666319 
L 647.120811 216.666319 
z
" clip-path="url(#p31cd4d75b2)" style="fill: #fab28c"/>
   </g>
   <g id="patch_112">
    <path d="M 664.216578 391.597835 
L 668.49052 391.597835 
L 668.49052 129.485417 
L 664.216578 129.485417 
z
" clip-path="url(#p31cd4d75b2)" style="fill: #fab28c"/>
   </g>
   <g id="patch_113">
    <path d="M 681.312346 391.597835 
L 685.586287 391.597835 
L 685.586287 76.516771 
L 681.312346 76.516771 
z
" clip-path="url(#p31cd4d75b2)" style="fill: #fab28c"/>
   </g>
   <g id="matplotlib.axis_1">
    <g id="xtick_1">
     <g id="line2d_1">
      <defs>
       <path id="m6668aae2ac" d="M 0 0 
L 0 3.5 
" style="stroke: #000000; stroke-width: 0.8"/>
      </defs>
      <g>
       <use xlink:href="#m6668aae2ac" x="63.72775" y="391.597835" style="stroke: #000000; stroke-width: 0.8"/>
      </g>
     </g>
     <g id="text_1">
      <!-- 1 -->
      <g transform="translate(60.5465 406.196273) scale(0.1 -0.1)">
       <defs>
        <path id="DejaVuSans-31" d="M 794 531 
L 1825 531 
L 1825 4091 
L 703 3866 
L 703 4441 
L 1819 4666 
L 2450 4666 
L 2450 531 
L 3481 531 
L 3481 0 
L 794 0 
L 794 531 
z
" transform="scale(0.015625)"/>
       </defs>
       <use xlink:href="#DejaVuSans-31"/>
      </g>
     </g>
    </g>
    <g id="xtick_2">
     <g id="line2d_2">
      <g>
       <use xlink:href="#m6668aae2ac" x="80.823518" y="391.597835" style="stroke: #000000; stroke-width: 0.8"/>
      </g>
     </g>
     <g id="text_2">
      <!-- 2 -->
      <g transform="translate(77.642268 406.196273) scale(0.1 -0.1)">
       <defs>
        <path id="DejaVuSans-32" d="M 1228 531 
L 3431 531 
L 3431 0 
L 469 0 
L 469 531 
Q 828 903 1448 1529 
Q 2069 2156 2228 2338 
Q 2531 2678 2651 2914 
Q 2772 3150 2772 3378 
Q 2772 3750 2511 3984 
Q 2250 4219 1831 4219 
Q 1534 4219 1204 4116 
Q 875 4013 500 3803 
L 500 4441 
Q 881 4594 1212 4672 
Q 1544 4750 1819 4750 
Q 2544 4750 2975 4387 
Q 3406 4025 3406 3419 
Q 3406 3131 3298 2873 
Q 3191 2616 2906 2266 
Q 2828 2175 2409 1742 
Q 1991 1309 1228 531 
z
" transform="scale(0.015625)"/>
       </defs>
       <use xlink:href="#DejaVuSans-32"/>
      </g>
     </g>
    </g>
    <g id="xtick_3">
     <g id="line2d_3">
      <g>
       <use xlink:href="#m6668aae2ac" x="97.919285" y="391.597835" style="stroke: #000000; stroke-width: 0.8"/>
      </g>
     </g>
     <g id="text_3">
      <!-- 3 -->
      <g transform="translate(94.738035 406.196273) scale(0.1 -0.1)">
       <defs>
        <path id="DejaVuSans-33" d="M 2597 2516 
Q 3050 2419 3304 2112 
Q 3559 1806 3559 1356 
Q 3559 666 3084 287 
Q 2609 -91 1734 -91 
Q 1441 -91 1130 -33 
Q 819 25 488 141 
L 488 750 
Q 750 597 1062 519 
Q 1375 441 1716 441 
Q 2309 441 2620 675 
Q 2931 909 2931 1356 
Q 2931 1769 2642 2001 
Q 2353 2234 1838 2234 
L 1294 2234 
L 1294 2753 
L 1863 2753 
Q 2328 2753 2575 2939 
Q 2822 3125 2822 3475 
Q 2822 3834 2567 4026 
Q 2313 4219 1838 4219 
Q 1578 4219 1281 4162 
Q 984 4106 628 3988 
L 628 4550 
Q 988 4650 1302 4700 
Q 1616 4750 1894 4750 
Q 2613 4750 3031 4423 
Q 3450 4097 3450 3541 
Q 3450 3153 3228 2886 
Q 3006 2619 2597 2516 
z
" transform="scale(0.015625)"/>
       </defs>
       <use xlink:href="#DejaVuSans-33"/>
      </g>
     </g>
    </g>
    <g id="xtick_4">
     <g id="line2d_4">
      <g>
       <use xlink:href="#m6668aae2ac" x="115.015052" y="391.597835" style="stroke: #000000; stroke-width: 0.8"/>
      </g>
     </g>
     <g id="text_4">
      <!-- 4 -->
      <g transform="translate(111.833802 406.196273) scale(0.1 -0.1)">
       <defs>
        <path id="DejaVuSans-34" d="M 2419 4116 
L 825 1625 
L 2419 1625 
L 2419 4116 
z
M 2253 4666 
L 3047 4666 
L 3047 1625 
L 3713 1625 
L 3713 1100 
L 3047 1100 
L 3047 0 
L 2419 0 
L 2419 1100 
L 313 1100 
L 313 1709 
L 2253 4666 
z
" transform="scale(0.015625)"/>
       </defs>
       <use xlink:href="#DejaVuSans-34"/>
      </g>
     </g>
    </g>
    <g id="xtick_5">
     <g id="line2d_5">
      <g>
       <use xlink:href="#m6668aae2ac" x="132.11082" y="391.597835" style="stroke: #000000; stroke-width: 0.8"/>
      </g>
     </g>
     <g id="text_5">
      <!-- 5 -->
      <g transform="translate(128.92957 406.196273) scale(0.1 -0.1)">
       <defs>
        <path id="DejaVuSans-35" d="M 691 4666 
L 3169 4666 
L 3169 4134 
L 1269 4134 
L 1269 2991 
Q 1406 3038 1543 3061 
Q 1681 3084 1819 3084 
Q 2600 3084 3056 2656 
Q 3513 2228 3513 1497 
Q 3513 744 3044 326 
Q 2575 -91 1722 -91 
Q 1428 -91 1123 -41 
Q 819 9 494 109 
L 494 744 
Q 775 591 1075 516 
Q 1375 441 1709 441 
Q 2250 441 2565 725 
Q 2881 1009 2881 1497 
Q 2881 1984 2565 2268 
Q 2250 2553 1709 2553 
Q 1456 2553 1204 2497 
Q 953 2441 691 2322 
L 691 4666 
z
" transform="scale(0.015625)"/>
       </defs>
       <use xlink:href="#DejaVuSans-35"/>
      </g>
     </g>
    </g>
    <g id="xtick_6">
     <g id="line2d_6">
      <g>
       <use xlink:href="#m6668aae2ac" x="149.206587" y="391.597835" style="stroke: #000000; stroke-width: 0.8"/>
      </g>
     </g>
     <g id="text_6">
      <!-- 6 -->
      <g transform="translate(146.025337 406.196273) scale(0.1 -0.1)">
       <defs>
        <path id="DejaVuSans-36" d="M 2113 2584 
Q 1688 2584 1439 2293 
Q 1191 2003 1191 1497 
Q 1191 994 1439 701 
Q 1688 409 2113 409 
Q 2538 409 2786 701 
Q 3034 994 3034 1497 
Q 3034 2003 2786 2293 
Q 2538 2584 2113 2584 
z
M 3366 4563 
L 3366 3988 
Q 3128 4100 2886 4159 
Q 2644 4219 2406 4219 
Q 1781 4219 1451 3797 
Q 1122 3375 1075 2522 
Q 1259 2794 1537 2939 
Q 1816 3084 2150 3084 
Q 2853 3084 3261 2657 
Q 3669 2231 3669 1497 
Q 3669 778 3244 343 
Q 2819 -91 2113 -91 
Q 1303 -91 875 529 
Q 447 1150 447 2328 
Q 447 3434 972 4092 
Q 1497 4750 2381 4750 
Q 2619 4750 2861 4703 
Q 3103 4656 3366 4563 
z
" transform="scale(0.015625)"/>
       </defs>
       <use xlink:href="#DejaVuSans-36"/>
      </g>
     </g>
    </g>
    <g id="xtick_7">
     <g id="line2d_7">
      <g>
       <use xlink:href="#m6668aae2ac" x="166.302354" y="391.597835" style="stroke: #000000; stroke-width: 0.8"/>
      </g>
     </g>
     <g id="text_7">
      <!-- 7 -->
      <g transform="translate(163.121104 406.196273) scale(0.1 -0.1)">
       <defs>
        <path id="DejaVuSans-37" d="M 525 4666 
L 3525 4666 
L 3525 4397 
L 1831 0 
L 1172 0 
L 2766 4134 
L 525 4134 
L 525 4666 
z
" transform="scale(0.015625)"/>
       </defs>
       <use xlink:href="#DejaVuSans-37"/>
      </g>
     </g>
    </g>
    <g id="xtick_8">
     <g id="line2d_8">
      <g>
       <use xlink:href="#m6668aae2ac" x="183.398122" y="391.597835" style="stroke: #000000; stroke-width: 0.8"/>
      </g>
     </g>
     <g id="text_8">
      <!-- 8 -->
      <g transform="translate(180.216872 406.196273) scale(0.1 -0.1)">
       <defs>
        <path id="DejaVuSans-38" d="M 2034 2216 
Q 1584 2216 1326 1975 
Q 1069 1734 1069 1313 
Q 1069 891 1326 650 
Q 1584 409 2034 409 
Q 2484 409 2743 651 
Q 3003 894 3003 1313 
Q 3003 1734 2745 1975 
Q 2488 2216 2034 2216 
z
M 1403 2484 
Q 997 2584 770 2862 
Q 544 3141 544 3541 
Q 544 4100 942 4425 
Q 1341 4750 2034 4750 
Q 2731 4750 3128 4425 
Q 3525 4100 3525 3541 
Q 3525 3141 3298 2862 
Q 3072 2584 2669 2484 
Q 3125 2378 3379 2068 
Q 3634 1759 3634 1313 
Q 3634 634 3220 271 
Q 2806 -91 2034 -91 
Q 1263 -91 848 271 
Q 434 634 434 1313 
Q 434 1759 690 2068 
Q 947 2378 1403 2484 
z
M 1172 3481 
Q 1172 3119 1398 2916 
Q 1625 2713 2034 2713 
Q 2441 2713 2670 2916 
Q 2900 3119 2900 3481 
Q 2900 3844 2670 4047 
Q 2441 4250 2034 4250 
Q 1625 4250 1398 4047 
Q 1172 3844 1172 3481 
z
" transform="scale(0.015625)"/>
       </defs>
       <use xlink:href="#DejaVuSans-38"/>
      </g>
     </g>
    </g>
    <g id="xtick_9">
     <g id="line2d_9">
      <g>
       <use xlink:href="#m6668aae2ac" x="200.493889" y="391.597835" style="stroke: #000000; stroke-width: 0.8"/>
      </g>
     </g>
     <g id="text_9">
      <!-- 9 -->
      <g transform="translate(197.312639 406.196273) scale(0.1 -0.1)">
       <defs>
        <path id="DejaVuSans-39" d="M 703 97 
L 703 672 
Q 941 559 1184 500 
Q 1428 441 1663 441 
Q 2288 441 2617 861 
Q 2947 1281 2994 2138 
Q 2813 1869 2534 1725 
Q 2256 1581 1919 1581 
Q 1219 1581 811 2004 
Q 403 2428 403 3163 
Q 403 3881 828 4315 
Q 1253 4750 1959 4750 
Q 2769 4750 3195 4129 
Q 3622 3509 3622 2328 
Q 3622 1225 3098 567 
Q 2575 -91 1691 -91 
Q 1453 -91 1209 -44 
Q 966 3 703 97 
z
M 1959 2075 
Q 2384 2075 2632 2365 
Q 2881 2656 2881 3163 
Q 2881 3666 2632 3958 
Q 2384 4250 1959 4250 
Q 1534 4250 1286 3958 
Q 1038 3666 1038 3163 
Q 1038 2656 1286 2365 
Q 1534 2075 1959 2075 
z
" transform="scale(0.015625)"/>
       </defs>
       <use xlink:href="#DejaVuSans-39"/>
      </g>
     </g>
    </g>
    <g id="xtick_10">
     <g id="line2d_10">
      <g>
       <use xlink:href="#m6668aae2ac" x="217.589656" y="391.597835" style="stroke: #000000; stroke-width: 0.8"/>
      </g>
     </g>
     <g id="text_10">
      <!-- 10 -->
      <g transform="translate(211.227156 406.196273) scale(0.1 -0.1)">
       <defs>
        <path id="DejaVuSans-30" d="M 2034 4250 
Q 1547 4250 1301 3770 
Q 1056 3291 1056 2328 
Q 1056 1369 1301 889 
Q 1547 409 2034 409 
Q 2525 409 2770 889 
Q 3016 1369 3016 2328 
Q 3016 3291 2770 3770 
Q 2525 4250 2034 4250 
z
M 2034 4750 
Q 2819 4750 3233 4129 
Q 3647 3509 3647 2328 
Q 3647 1150 3233 529 
Q 2819 -91 2034 -91 
Q 1250 -91 836 529 
Q 422 1150 422 2328 
Q 422 3509 836 4129 
Q 1250 4750 2034 4750 
z
" transform="scale(0.015625)"/>
       </defs>
       <use xlink:href="#DejaVuSans-31"/>
       <use xlink:href="#DejaVuSans-30" x="63.623047"/>
      </g>
     </g>
    </g>
    <g id="xtick_11">
     <g id="line2d_11">
      <g>
       <use xlink:href="#m6668aae2ac" x="234.685424" y="391.597835" style="stroke: #000000; stroke-width: 0.8"/>
      </g>
     </g>
     <g id="text_11">
      <!-- 11 -->
      <g transform="translate(228.322924 406.196273) scale(0.1 -0.1)">
       <use xlink:href="#DejaVuSans-31"/>
       <use xlink:href="#DejaVuSans-31" x="63.623047"/>
      </g>
     </g>
    </g>
    <g id="xtick_12">
     <g id="line2d_12">
      <g>
       <use xlink:href="#m6668aae2ac" x="251.781191" y="391.597835" style="stroke: #000000; stroke-width: 0.8"/>
      </g>
     </g>
     <g id="text_12">
      <!-- 12 -->
      <g transform="translate(245.418691 406.196273) scale(0.1 -0.1)">
       <use xlink:href="#DejaVuSans-31"/>
       <use xlink:href="#DejaVuSans-32" x="63.623047"/>
      </g>
     </g>
    </g>
    <g id="xtick_13">
     <g id="line2d_13">
      <g>
       <use xlink:href="#m6668aae2ac" x="268.876958" y="391.597835" style="stroke: #000000; stroke-width: 0.8"/>
      </g>
     </g>
     <g id="text_13">
      <!-- 13 -->
      <g transform="translate(262.514458 406.196273) scale(0.1 -0.1)">
       <use xlink:href="#DejaVuSans-31"/>
       <use xlink:href="#DejaVuSans-33" x="63.623047"/>
      </g>
     </g>
    </g>
    <g id="xtick_14">
     <g id="line2d_14">
      <g>
       <use xlink:href="#m6668aae2ac" x="285.972726" y="391.597835" style="stroke: #000000; stroke-width: 0.8"/>
      </g>
     </g>
     <g id="text_14">
      <!-- 14 -->
      <g transform="translate(279.610226 406.196273) scale(0.1 -0.1)">
       <use xlink:href="#DejaVuSans-31"/>
       <use xlink:href="#DejaVuSans-34" x="63.623047"/>
      </g>
     </g>
    </g>
    <g id="xtick_15">
     <g id="line2d_15">
      <g>
       <use xlink:href="#m6668aae2ac" x="303.068493" y="391.597835" style="stroke: #000000; stroke-width: 0.8"/>
      </g>
     </g>
     <g id="text_15">
      <!-- 15 -->
      <g transform="translate(296.705993 406.196273) scale(0.1 -0.1)">
       <use xlink:href="#DejaVuSans-31"/>
       <use xlink:href="#DejaVuSans-35" x="63.623047"/>
      </g>
     </g>
    </g>
    <g id="xtick_16">
     <g id="line2d_16">
      <g>
       <use xlink:href="#m6668aae2ac" x="320.16426" y="391.597835" style="stroke: #000000; stroke-width: 0.8"/>
      </g>
     </g>
     <g id="text_16">
      <!-- 16 -->
      <g transform="translate(313.80176 406.196273) scale(0.1 -0.1)">
       <use xlink:href="#DejaVuSans-31"/>
       <use xlink:href="#DejaVuSans-36" x="63.623047"/>
      </g>
     </g>
    </g>
    <g id="xtick_17">
     <g id="line2d_17">
      <g>
       <use xlink:href="#m6668aae2ac" x="337.260028" y="391.597835" style="stroke: #000000; stroke-width: 0.8"/>
      </g>
     </g>
     <g id="text_17">
      <!-- 17 -->
      <g transform="translate(330.897528 406.196273) scale(0.1 -0.1)">
       <use xlink:href="#DejaVuSans-31"/>
       <use xlink:href="#DejaVuSans-37" x="63.623047"/>
      </g>
     </g>
    </g>
    <g id="xtick_18">
     <g id="line2d_18">
      <g>
       <use xlink:href="#m6668aae2ac" x="354.355795" y="391.597835" style="stroke: #000000; stroke-width: 0.8"/>
      </g>
     </g>
     <g id="text_18">
      <!-- 18 -->
      <g transform="translate(347.993295 406.196273) scale(0.1 -0.1)">
       <use xlink:href="#DejaVuSans-31"/>
       <use xlink:href="#DejaVuSans-38" x="63.623047"/>
      </g>
     </g>
    </g>
    <g id="xtick_19">
     <g id="line2d_19">
      <g>
       <use xlink:href="#m6668aae2ac" x="371.451563" y="391.597835" style="stroke: #000000; stroke-width: 0.8"/>
      </g>
     </g>
     <g id="text_19">
      <!-- 19 -->
      <g transform="translate(365.089063 406.196273) scale(0.1 -0.1)">
       <use xlink:href="#DejaVuSans-31"/>
       <use xlink:href="#DejaVuSans-39" x="63.623047"/>
      </g>
     </g>
    </g>
    <g id="xtick_20">
     <g id="line2d_20">
      <g>
       <use xlink:href="#m6668aae2ac" x="388.54733" y="391.597835" style="stroke: #000000; stroke-width: 0.8"/>
      </g>
     </g>
     <g id="text_20">
      <!-- 20 -->
      <g transform="translate(382.18483 406.196273) scale(0.1 -0.1)">
       <use xlink:href="#DejaVuSans-32"/>
       <use xlink:href="#DejaVuSans-30" x="63.623047"/>
      </g>
     </g>
    </g>
    <g id="xtick_21">
     <g id="line2d_21">
      <g>
       <use xlink:href="#m6668aae2ac" x="405.643097" y="391.597835" style="stroke: #000000; stroke-width: 0.8"/>
      </g>
     </g>
     <g id="text_21">
      <!-- 21 -->
      <g transform="translate(399.280597 406.196273) scale(0.1 -0.1)">
       <use xlink:href="#DejaVuSans-32"/>
       <use xlink:href="#DejaVuSans-31" x="63.623047"/>
      </g>
     </g>
    </g>
    <g id="xtick_22">
     <g id="line2d_22">
      <g>
       <use xlink:href="#m6668aae2ac" x="422.738865" y="391.597835" style="stroke: #000000; stroke-width: 0.8"/>
      </g>
     </g>
     <g id="text_22">
      <!-- 22 -->
      <g transform="translate(416.376365 406.196273) scale(0.1 -0.1)">
       <use xlink:href="#DejaVuSans-32"/>
       <use xlink:href="#DejaVuSans-32" x="63.623047"/>
      </g>
     </g>
    </g>
    <g id="xtick_23">
     <g id="line2d_23">
      <g>
       <use xlink:href="#m6668aae2ac" x="439.834632" y="391.597835" style="stroke: #000000; stroke-width: 0.8"/>
      </g>
     </g>
     <g id="text_23">
      <!-- 23 -->
      <g transform="translate(433.472132 406.196273) scale(0.1 -0.1)">
       <use xlink:href="#DejaVuSans-32"/>
       <use xlink:href="#DejaVuSans-33" x="63.623047"/>
      </g>
     </g>
    </g>
    <g id="xtick_24">
     <g id="line2d_24">
      <g>
       <use xlink:href="#m6668aae2ac" x="456.930399" y="391.597835" style="stroke: #000000; stroke-width: 0.8"/>
      </g>
     </g>
     <g id="text_24">
      <!-- 24 -->
      <g transform="translate(450.567899 406.196273) scale(0.1 -0.1)">
       <use xlink:href="#DejaVuSans-32"/>
       <use xlink:href="#DejaVuSans-34" x="63.623047"/>
      </g>
     </g>
    </g>
    <g id="xtick_25">
     <g id="line2d_25">
      <g>
       <use xlink:href="#m6668aae2ac" x="474.026167" y="391.597835" style="stroke: #000000; stroke-width: 0.8"/>
      </g>
     </g>
     <g id="text_25">
      <!-- 25 -->
      <g transform="translate(467.663667 406.196273) scale(0.1 -0.1)">
       <use xlink:href="#DejaVuSans-32"/>
       <use xlink:href="#DejaVuSans-35" x="63.623047"/>
      </g>
     </g>
    </g>
    <g id="xtick_26">
     <g id="line2d_26">
      <g>
       <use xlink:href="#m6668aae2ac" x="491.121934" y="391.597835" style="stroke: #000000; stroke-width: 0.8"/>
      </g>
     </g>
     <g id="text_26">
      <!-- 26 -->
      <g transform="translate(484.759434 406.196273) scale(0.1 -0.1)">
       <use xlink:href="#DejaVuSans-32"/>
       <use xlink:href="#DejaVuSans-36" x="63.623047"/>
      </g>
     </g>
    </g>
    <g id="xtick_27">
     <g id="line2d_27">
      <g>
       <use xlink:href="#m6668aae2ac" x="508.217701" y="391.597835" style="stroke: #000000; stroke-width: 0.8"/>
      </g>
     </g>
     <g id="text_27">
      <!-- 27 -->
      <g transform="translate(501.855201 406.196273) scale(0.1 -0.1)">
       <use xlink:href="#DejaVuSans-32"/>
       <use xlink:href="#DejaVuSans-37" x="63.623047"/>
      </g>
     </g>
    </g>
    <g id="xtick_28">
     <g id="line2d_28">
      <g>
       <use xlink:href="#m6668aae2ac" x="525.313469" y="391.597835" style="stroke: #000000; stroke-width: 0.8"/>
      </g>
     </g>
     <g id="text_28">
      <!-- 28 -->
      <g transform="translate(518.950969 406.196273) scale(0.1 -0.1)">
       <use xlink:href="#DejaVuSans-32"/>
       <use xlink:href="#DejaVuSans-38" x="63.623047"/>
      </g>
     </g>
    </g>
    <g id="xtick_29">
     <g id="line2d_29">
      <g>
       <use xlink:href="#m6668aae2ac" x="542.409236" y="391.597835" style="stroke: #000000; stroke-width: 0.8"/>
      </g>
     </g>
     <g id="text_29">
      <!-- 29 -->
      <g transform="translate(536.046736 406.196273) scale(0.1 -0.1)">
       <use xlink:href="#DejaVuSans-32"/>
       <use xlink:href="#DejaVuSans-39" x="63.623047"/>
      </g>
     </g>
    </g>
    <g id="xtick_30">
     <g id="line2d_30">
      <g>
       <use xlink:href="#m6668aae2ac" x="559.505003" y="391.597835" style="stroke: #000000; stroke-width: 0.8"/>
      </g>
     </g>
     <g id="text_30">
      <!-- 30 -->
      <g transform="translate(553.142503 406.196273) scale(0.1 -0.1)">
       <use xlink:href="#DejaVuSans-33"/>
       <use xlink:href="#DejaVuSans-30" x="63.623047"/>
      </g>
     </g>
    </g>
    <g id="xtick_31">
     <g id="line2d_31">
      <g>
       <use xlink:href="#m6668aae2ac" x="576.600771" y="391.597835" style="stroke: #000000; stroke-width: 0.8"/>
      </g>
     </g>
     <g id="text_31">
      <!-- 31 -->
      <g transform="translate(570.238271 406.196273) scale(0.1 -0.1)">
       <use xlink:href="#DejaVuSans-33"/>
       <use xlink:href="#DejaVuSans-31" x="63.623047"/>
      </g>
     </g>
    </g>
    <g id="xtick_32">
     <g id="line2d_32">
      <g>
       <use xlink:href="#m6668aae2ac" x="593.696538" y="391.597835" style="stroke: #000000; stroke-width: 0.8"/>
      </g>
     </g>
     <g id="text_32">
      <!-- 32 -->
      <g transform="translate(587.334038 406.196273) scale(0.1 -0.1)">
       <use xlink:href="#DejaVuSans-33"/>
       <use xlink:href="#DejaVuSans-32" x="63.623047"/>
      </g>
     </g>
    </g>
    <g id="xtick_33">
     <g id="line2d_33">
      <g>
       <use xlink:href="#m6668aae2ac" x="610.792305" y="391.597835" style="stroke: #000000; stroke-width: 0.8"/>
      </g>
     </g>
     <g id="text_33">
      <!-- 33 -->
      <g transform="translate(604.429805 406.196273) scale(0.1 -0.1)">
       <use xlink:href="#DejaVuSans-33"/>
       <use xlink:href="#DejaVuSans-33" x="63.623047"/>
      </g>
     </g>
    </g>
    <g id="xtick_34">
     <g id="line2d_34">
      <g>
       <use xlink:href="#m6668aae2ac" x="627.888073" y="391.597835" style="stroke: #000000; stroke-width: 0.8"/>
      </g>
     </g>
     <g id="text_34">
      <!-- 34 -->
      <g transform="translate(621.525573 406.196273) scale(0.1 -0.1)">
       <use xlink:href="#DejaVuSans-33"/>
       <use xlink:href="#DejaVuSans-34" x="63.623047"/>
      </g>
     </g>
    </g>
    <g id="xtick_35">
     <g id="line2d_35">
      <g>
       <use xlink:href="#m6668aae2ac" x="644.98384" y="391.597835" style="stroke: #000000; stroke-width: 0.8"/>
      </g>
     </g>
     <g id="text_35">
      <!-- 35 -->
      <g transform="translate(638.62134 406.196273) scale(0.1 -0.1)">
       <use xlink:href="#DejaVuSans-33"/>
       <use xlink:href="#DejaVuSans-35" x="63.623047"/>
      </g>
     </g>
    </g>
    <g id="xtick_36">
     <g id="line2d_36">
      <g>
       <use xlink:href="#m6668aae2ac" x="662.079607" y="391.597835" style="stroke: #000000; stroke-width: 0.8"/>
      </g>
     </g>
     <g id="text_36">
      <!-- 36 -->
      <g transform="translate(655.717107 406.196273) scale(0.1 -0.1)">
       <use xlink:href="#DejaVuSans-33"/>
       <use xlink:href="#DejaVuSans-36" x="63.623047"/>
      </g>
     </g>
    </g>
    <g id="xtick_37">
     <g id="line2d_37">
      <g>
       <use xlink:href="#m6668aae2ac" x="679.175375" y="391.597835" style="stroke: #000000; stroke-width: 0.8"/>
      </g>
     </g>
     <g id="text_37">
      <!-- 37 -->
      <g transform="translate(672.812875 406.196273) scale(0.1 -0.1)">
       <use xlink:href="#DejaVuSans-33"/>
       <use xlink:href="#DejaVuSans-37" x="63.623047"/>
      </g>
     </g>
    </g>
    <g id="text_38">
     <!-- Policy type -->
     <g transform="translate(324.555262 425.40606) scale(0.1728 -0.1728)">
      <defs>
       <path id="DejaVuSans-50" d="M 1259 4147 
L 1259 2394 
L 2053 2394 
Q 2494 2394 2734 2622 
Q 2975 2850 2975 3272 
Q 2975 3691 2734 3919 
Q 2494 4147 2053 4147 
L 1259 4147 
z
M 628 4666 
L 2053 4666 
Q 2838 4666 3239 4311 
Q 3641 3956 3641 3272 
Q 3641 2581 3239 2228 
Q 2838 1875 2053 1875 
L 1259 1875 
L 1259 0 
L 628 0 
L 628 4666 
z
" transform="scale(0.015625)"/>
       <path id="DejaVuSans-6f" d="M 1959 3097 
Q 1497 3097 1228 2736 
Q 959 2375 959 1747 
Q 959 1119 1226 758 
Q 1494 397 1959 397 
Q 2419 397 2687 759 
Q 2956 1122 2956 1747 
Q 2956 2369 2687 2733 
Q 2419 3097 1959 3097 
z
M 1959 3584 
Q 2709 3584 3137 3096 
Q 3566 2609 3566 1747 
Q 3566 888 3137 398 
Q 2709 -91 1959 -91 
Q 1206 -91 779 398 
Q 353 888 353 1747 
Q 353 2609 779 3096 
Q 1206 3584 1959 3584 
z
" transform="scale(0.015625)"/>
       <path id="DejaVuSans-6c" d="M 603 4863 
L 1178 4863 
L 1178 0 
L 603 0 
L 603 4863 
z
" transform="scale(0.015625)"/>
       <path id="DejaVuSans-69" d="M 603 3500 
L 1178 3500 
L 1178 0 
L 603 0 
L 603 3500 
z
M 603 4863 
L 1178 4863 
L 1178 4134 
L 603 4134 
L 603 4863 
z
" transform="scale(0.015625)"/>
       <path id="DejaVuSans-63" d="M 3122 3366 
L 3122 2828 
Q 2878 2963 2633 3030 
Q 2388 3097 2138 3097 
Q 1578 3097 1268 2742 
Q 959 2388 959 1747 
Q 959 1106 1268 751 
Q 1578 397 2138 397 
Q 2388 397 2633 464 
Q 2878 531 3122 666 
L 3122 134 
Q 2881 22 2623 -34 
Q 2366 -91 2075 -91 
Q 1284 -91 818 406 
Q 353 903 353 1747 
Q 353 2603 823 3093 
Q 1294 3584 2113 3584 
Q 2378 3584 2631 3529 
Q 2884 3475 3122 3366 
z
" transform="scale(0.015625)"/>
       <path id="DejaVuSans-79" d="M 2059 -325 
Q 1816 -950 1584 -1140 
Q 1353 -1331 966 -1331 
L 506 -1331 
L 506 -850 
L 844 -850 
Q 1081 -850 1212 -737 
Q 1344 -625 1503 -206 
L 1606 56 
L 191 3500 
L 800 3500 
L 1894 763 
L 2988 3500 
L 3597 3500 
L 2059 -325 
z
" transform="scale(0.015625)"/>
       <path id="DejaVuSans-20" transform="scale(0.015625)"/>
       <path id="DejaVuSans-74" d="M 1172 4494 
L 1172 3500 
L 2356 3500 
L 2356 3053 
L 1172 3053 
L 1172 1153 
Q 1172 725 1289 603 
Q 1406 481 1766 481 
L 2356 481 
L 2356 0 
L 1766 0 
Q 1100 0 847 248 
Q 594 497 594 1153 
L 594 3053 
L 172 3053 
L 172 3500 
L 594 3500 
L 594 4494 
L 1172 4494 
z
" transform="scale(0.015625)"/>
       <path id="DejaVuSans-70" d="M 1159 525 
L 1159 -1331 
L 581 -1331 
L 581 3500 
L 1159 3500 
L 1159 2969 
Q 1341 3281 1617 3432 
Q 1894 3584 2278 3584 
Q 2916 3584 3314 3078 
Q 3713 2572 3713 1747 
Q 3713 922 3314 415 
Q 2916 -91 2278 -91 
Q 1894 -91 1617 61 
Q 1341 213 1159 525 
z
M 3116 1747 
Q 3116 2381 2855 2742 
Q 2594 3103 2138 3103 
Q 1681 3103 1420 2742 
Q 1159 2381 1159 1747 
Q 1159 1113 1420 752 
Q 1681 391 2138 391 
Q 2594 391 2855 752 
Q 3116 1113 3116 1747 
z
" transform="scale(0.015625)"/>
       <path id="DejaVuSans-65" d="M 3597 1894 
L 3597 1613 
L 953 1613 
Q 991 1019 1311 708 
Q 1631 397 2203 397 
Q 2534 397 2845 478 
Q 3156 559 3463 722 
L 3463 178 
Q 3153 47 2828 -22 
Q 2503 -91 2169 -91 
Q 1331 -91 842 396 
Q 353 884 353 1716 
Q 353 2575 817 3079 
Q 1281 3584 2069 3584 
Q 2775 3584 3186 3129 
Q 3597 2675 3597 1894 
z
M 3022 2063 
Q 3016 2534 2758 2815 
Q 2500 3097 2075 3097 
Q 1594 3097 1305 2825 
Q 1016 2553 972 2059 
L 3022 2063 
z
" transform="scale(0.015625)"/>
      </defs>
      <use xlink:href="#DejaVuSans-50"/>
      <use xlink:href="#DejaVuSans-6f" x="56.677734"/>
      <use xlink:href="#DejaVuSans-6c" x="117.859375"/>
      <use xlink:href="#DejaVuSans-69" x="145.642578"/>
      <use xlink:href="#DejaVuSans-63" x="173.425781"/>
      <use xlink:href="#DejaVuSans-79" x="228.40625"/>
      <use xlink:href="#DejaVuSans-20" x="287.585938"/>
      <use xlink:href="#DejaVuSans-74" x="319.373047"/>
      <use xlink:href="#DejaVuSans-79" x="358.582031"/>
      <use xlink:href="#DejaVuSans-70" x="417.761719"/>
      <use xlink:href="#DejaVuSans-65" x="481.238281"/>
     </g>
    </g>
   </g>
   <g id="matplotlib.axis_2">
    <g id="ytick_1">
     <g id="line2d_38">
      <defs>
       <path id="m58cf6f26e3" d="M 0 0 
L -3.5 0 
" style="stroke: #000000; stroke-width: 0.8"/>
      </defs>
      <g>
       <use xlink:href="#m58cf6f26e3" x="25.903365" y="391.597835" style="stroke: #000000; stroke-width: 0.8"/>
      </g>
     </g>
     <g id="text_39">
      <!-- 0.0 -->
      <g transform="translate(3.00024 395.397054) scale(0.1 -0.1)">
       <defs>
        <path id="DejaVuSans-2e" d="M 684 794 
L 1344 794 
L 1344 0 
L 684 0 
L 684 794 
z
" transform="scale(0.015625)"/>
       </defs>
       <use xlink:href="#DejaVuSans-30"/>
       <use xlink:href="#DejaVuSans-2e" x="63.623047"/>
       <use xlink:href="#DejaVuSans-30" x="95.410156"/>
      </g>
     </g>
    </g>
    <g id="ytick_2">
     <g id="line2d_39">
      <g>
       <use xlink:href="#m58cf6f26e3" x="25.903365" y="340.581139" style="stroke: #000000; stroke-width: 0.8"/>
      </g>
     </g>
     <g id="text_40">
      <!-- 0.1 -->
      <g transform="translate(3.00024 344.380358) scale(0.1 -0.1)">
       <use xlink:href="#DejaVuSans-30"/>
       <use xlink:href="#DejaVuSans-2e" x="63.623047"/>
       <use xlink:href="#DejaVuSans-31" x="95.410156"/>
      </g>
     </g>
    </g>
    <g id="ytick_3">
     <g id="line2d_40">
      <g>
       <use xlink:href="#m58cf6f26e3" x="25.903365" y="289.564444" style="stroke: #000000; stroke-width: 0.8"/>
      </g>
     </g>
     <g id="text_41">
      <!-- 0.2 -->
      <g transform="translate(3.00024 293.363662) scale(0.1 -0.1)">
       <use xlink:href="#DejaVuSans-30"/>
       <use xlink:href="#DejaVuSans-2e" x="63.623047"/>
       <use xlink:href="#DejaVuSans-32" x="95.410156"/>
      </g>
     </g>
    </g>
    <g id="ytick_4">
     <g id="line2d_41">
      <g>
       <use xlink:href="#m58cf6f26e3" x="25.903365" y="238.547748" style="stroke: #000000; stroke-width: 0.8"/>
      </g>
     </g>
     <g id="text_42">
      <!-- 0.3 -->
      <g transform="translate(3.00024 242.346967) scale(0.1 -0.1)">
       <use xlink:href="#DejaVuSans-30"/>
       <use xlink:href="#DejaVuSans-2e" x="63.623047"/>
       <use xlink:href="#DejaVuSans-33" x="95.410156"/>
      </g>
     </g>
    </g>
    <g id="ytick_5">
     <g id="line2d_42">
      <g>
       <use xlink:href="#m58cf6f26e3" x="25.903365" y="187.531052" style="stroke: #000000; stroke-width: 0.8"/>
      </g>
     </g>
     <g id="text_43">
      <!-- 0.4 -->
      <g transform="translate(3.00024 191.330271) scale(0.1 -0.1)">
       <use xlink:href="#DejaVuSans-30"/>
       <use xlink:href="#DejaVuSans-2e" x="63.623047"/>
       <use xlink:href="#DejaVuSans-34" x="95.410156"/>
      </g>
     </g>
    </g>
    <g id="ytick_6">
     <g id="line2d_43">
      <g>
       <use xlink:href="#m58cf6f26e3" x="25.903365" y="136.514357" style="stroke: #000000; stroke-width: 0.8"/>
      </g>
     </g>
     <g id="text_44">
      <!-- 0.5 -->
      <g transform="translate(3.00024 140.313576) scale(0.1 -0.1)">
       <use xlink:href="#DejaVuSans-30"/>
       <use xlink:href="#DejaVuSans-2e" x="63.623047"/>
       <use xlink:href="#DejaVuSans-35" x="95.410156"/>
      </g>
     </g>
    </g>
    <g id="ytick_7">
     <g id="line2d_44">
      <g>
       <use xlink:href="#m58cf6f26e3" x="25.903365" y="85.497661" style="stroke: #000000; stroke-width: 0.8"/>
      </g>
     </g>
     <g id="text_45">
      <!-- 0.6 -->
      <g transform="translate(3.00024 89.29688) scale(0.1 -0.1)">
       <use xlink:href="#DejaVuSans-30"/>
       <use xlink:href="#DejaVuSans-2e" x="63.623047"/>
       <use xlink:href="#DejaVuSans-36" x="95.410156"/>
      </g>
     </g>
    </g>
    <g id="ytick_8">
     <g id="line2d_45">
      <g>
       <use xlink:href="#m58cf6f26e3" x="25.903365" y="34.480966" style="stroke: #000000; stroke-width: 0.8"/>
      </g>
     </g>
     <g id="text_46">
      <!-- 0.7 -->
      <g transform="translate(3.00024 38.280184) scale(0.1 -0.1)">
       <use xlink:href="#DejaVuSans-30"/>
       <use xlink:href="#DejaVuSans-2e" x="63.623047"/>
       <use xlink:href="#DejaVuSans-37" x="95.410156"/>
      </g>
     </g>
    </g>
   </g>
   <g id="patch_114">
    <path d="M 25.903365 391.597835 
L 25.903365 3.00024 
" style="fill: none; stroke: #000000; stroke-width: 0.8; stroke-linejoin: miter; stroke-linecap: square"/>
   </g>
   <g id="patch_115">
    <path d="M 716.99976 391.597835 
L 716.99976 3.00024 
" style="fill: none; stroke: #000000; stroke-width: 0.8; stroke-linejoin: miter; stroke-linecap: square"/>
   </g>
   <g id="patch_116">
    <path d="M 25.903365 391.597835 
L 716.99976 391.597835 
" style="fill: none; stroke: #000000; stroke-width: 0.8; stroke-linejoin: miter; stroke-linecap: square"/>
   </g>
   <g id="patch_117">
    <path d="M 25.903365 3.00024 
L 716.99976 3.00024 
" style="fill: none; stroke: #000000; stroke-width: 0.8; stroke-linejoin: miter; stroke-linecap: square"/>
   </g>
   <g id="text_47">
    <!-- 0.369 -->
    <g transform="translate(53.68763 198.197129) scale(0.1 -0.1)">
     <use xlink:href="#DejaVuSans-30"/>
     <use xlink:href="#DejaVuSans-2e" x="63.623047"/>
     <use xlink:href="#DejaVuSans-33" x="95.410156"/>
     <use xlink:href="#DejaVuSans-36" x="159.033203"/>
     <use xlink:href="#DejaVuSans-39" x="222.65625"/>
    </g>
   </g>
   <g id="text_48">
    <!-- 0.549 -->
    <g transform="translate(70.783397 106.397745) scale(0.1 -0.1)">
     <use xlink:href="#DejaVuSans-30"/>
     <use xlink:href="#DejaVuSans-2e" x="63.623047"/>
     <use xlink:href="#DejaVuSans-35" x="95.410156"/>
     <use xlink:href="#DejaVuSans-34" x="159.033203"/>
     <use xlink:href="#DejaVuSans-39" x="222.65625"/>
    </g>
   </g>
   <g id="text_49">
    <!-- 0.614 -->
    <g transform="translate(87.879164 73.15189) scale(0.1 -0.1)">
     <use xlink:href="#DejaVuSans-30"/>
     <use xlink:href="#DejaVuSans-2e" x="63.623047"/>
     <use xlink:href="#DejaVuSans-36" x="95.410156"/>
     <use xlink:href="#DejaVuSans-31" x="159.033203"/>
     <use xlink:href="#DejaVuSans-34" x="222.65625"/>
    </g>
   </g>
   <g id="text_50">
    <!-- 0.514 -->
    <g transform="translate(104.974932 124.104216) scale(0.1 -0.1)">
     <use xlink:href="#DejaVuSans-30"/>
     <use xlink:href="#DejaVuSans-2e" x="63.623047"/>
     <use xlink:href="#DejaVuSans-35" x="95.410156"/>
     <use xlink:href="#DejaVuSans-31" x="159.033203"/>
     <use xlink:href="#DejaVuSans-34" x="222.65625"/>
    </g>
   </g>
   <g id="text_51">
    <!-- 0.515 -->
    <g transform="translate(122.070699 124.025251) scale(0.1 -0.1)">
     <use xlink:href="#DejaVuSans-30"/>
     <use xlink:href="#DejaVuSans-2e" x="63.623047"/>
     <use xlink:href="#DejaVuSans-35" x="95.410156"/>
     <use xlink:href="#DejaVuSans-31" x="159.033203"/>
     <use xlink:href="#DejaVuSans-35" x="222.65625"/>
    </g>
   </g>
   <g id="text_52">
    <!-- 0.439 -->
    <g transform="translate(139.166466 162.647437) scale(0.1 -0.1)">
     <use xlink:href="#DejaVuSans-30"/>
     <use xlink:href="#DejaVuSans-2e" x="63.623047"/>
     <use xlink:href="#DejaVuSans-34" x="95.410156"/>
     <use xlink:href="#DejaVuSans-33" x="159.033203"/>
     <use xlink:href="#DejaVuSans-39" x="222.65625"/>
    </g>
   </g>
   <g id="text_53">
    <!-- 0.284 -->
    <g transform="translate(156.262234 241.537944) scale(0.1 -0.1)">
     <use xlink:href="#DejaVuSans-30"/>
     <use xlink:href="#DejaVuSans-2e" x="63.623047"/>
     <use xlink:href="#DejaVuSans-32" x="95.410156"/>
     <use xlink:href="#DejaVuSans-38" x="159.033203"/>
     <use xlink:href="#DejaVuSans-34" x="222.65625"/>
    </g>
   </g>
   <g id="text_54">
    <!-- 0.572 -->
    <g transform="translate(173.358001 94.717472) scale(0.1 -0.1)">
     <use xlink:href="#DejaVuSans-30"/>
     <use xlink:href="#DejaVuSans-2e" x="63.623047"/>
     <use xlink:href="#DejaVuSans-35" x="95.410156"/>
     <use xlink:href="#DejaVuSans-37" x="159.033203"/>
     <use xlink:href="#DejaVuSans-32" x="222.65625"/>
    </g>
   </g>
   <g id="text_55">
    <!-- 0.593 -->
    <g transform="translate(190.453768 83.885118) scale(0.1 -0.1)">
     <use xlink:href="#DejaVuSans-30"/>
     <use xlink:href="#DejaVuSans-2e" x="63.623047"/>
     <use xlink:href="#DejaVuSans-35" x="95.410156"/>
     <use xlink:href="#DejaVuSans-39" x="159.033203"/>
     <use xlink:href="#DejaVuSans-33" x="222.65625"/>
    </g>
   </g>
   <g id="text_56">
    <!-- 0.504 -->
    <g transform="translate(207.549536 129.238343) scale(0.1 -0.1)">
     <use xlink:href="#DejaVuSans-30"/>
     <use xlink:href="#DejaVuSans-2e" x="63.623047"/>
     <use xlink:href="#DejaVuSans-35" x="95.410156"/>
     <use xlink:href="#DejaVuSans-30" x="159.033203"/>
     <use xlink:href="#DejaVuSans-34" x="222.65625"/>
    </g>
   </g>
   <g id="text_57">
    <!-- 0.523 -->
    <g transform="translate(224.645303 119.657452) scale(0.1 -0.1)">
     <use xlink:href="#DejaVuSans-30"/>
     <use xlink:href="#DejaVuSans-2e" x="63.623047"/>
     <use xlink:href="#DejaVuSans-35" x="95.410156"/>
     <use xlink:href="#DejaVuSans-32" x="159.033203"/>
     <use xlink:href="#DejaVuSans-33" x="222.65625"/>
    </g>
   </g>
   <g id="text_58">
    <!-- 0.471 -->
    <g transform="translate(241.74107 146.143673) scale(0.1 -0.1)">
     <use xlink:href="#DejaVuSans-30"/>
     <use xlink:href="#DejaVuSans-2e" x="63.623047"/>
     <use xlink:href="#DejaVuSans-34" x="95.410156"/>
     <use xlink:href="#DejaVuSans-37" x="159.033203"/>
     <use xlink:href="#DejaVuSans-31" x="222.65625"/>
    </g>
   </g>
   <g id="text_59">
    <!-- 0.449 -->
    <g transform="translate(258.836838 157.668397) scale(0.1 -0.1)">
     <use xlink:href="#DejaVuSans-30"/>
     <use xlink:href="#DejaVuSans-2e" x="63.623047"/>
     <use xlink:href="#DejaVuSans-34" x="95.410156"/>
     <use xlink:href="#DejaVuSans-34" x="159.033203"/>
     <use xlink:href="#DejaVuSans-39" x="222.65625"/>
    </g>
   </g>
   <g id="text_60">
    <!-- 0.638 -->
    <g transform="translate(275.932605 60.85321) scale(0.1 -0.1)">
     <use xlink:href="#DejaVuSans-30"/>
     <use xlink:href="#DejaVuSans-2e" x="63.623047"/>
     <use xlink:href="#DejaVuSans-36" x="95.410156"/>
     <use xlink:href="#DejaVuSans-33" x="159.033203"/>
     <use xlink:href="#DejaVuSans-38" x="222.65625"/>
    </g>
   </g>
   <g id="text_61">
    <!-- 0.655 -->
    <g transform="translate(293.028372 52.256328) scale(0.1 -0.1)">
     <use xlink:href="#DejaVuSans-30"/>
     <use xlink:href="#DejaVuSans-2e" x="63.623047"/>
     <use xlink:href="#DejaVuSans-36" x="95.410156"/>
     <use xlink:href="#DejaVuSans-35" x="159.033203"/>
     <use xlink:href="#DejaVuSans-35" x="222.65625"/>
    </g>
   </g>
   <g id="text_62">
    <!-- 0.633 -->
    <g transform="translate(310.12414 63.466563) scale(0.1 -0.1)">
     <use xlink:href="#DejaVuSans-30"/>
     <use xlink:href="#DejaVuSans-2e" x="63.623047"/>
     <use xlink:href="#DejaVuSans-36" x="95.410156"/>
     <use xlink:href="#DejaVuSans-33" x="159.033203"/>
     <use xlink:href="#DejaVuSans-33" x="222.65625"/>
    </g>
   </g>
   <g id="text_63">
    <!-- 0.394 -->
    <g transform="translate(327.219907 185.445933) scale(0.1 -0.1)">
     <use xlink:href="#DejaVuSans-30"/>
     <use xlink:href="#DejaVuSans-2e" x="63.623047"/>
     <use xlink:href="#DejaVuSans-33" x="95.410156"/>
     <use xlink:href="#DejaVuSans-39" x="159.033203"/>
     <use xlink:href="#DejaVuSans-34" x="222.65625"/>
    </g>
   </g>
   <g id="text_64">
    <!-- 0.421 -->
    <g transform="translate(344.315674 171.777813) scale(0.1 -0.1)">
     <use xlink:href="#DejaVuSans-30"/>
     <use xlink:href="#DejaVuSans-2e" x="63.623047"/>
     <use xlink:href="#DejaVuSans-34" x="95.410156"/>
     <use xlink:href="#DejaVuSans-32" x="159.033203"/>
     <use xlink:href="#DejaVuSans-31" x="222.65625"/>
    </g>
   </g>
   <g id="text_65">
    <!-- 0.648 -->
    <g transform="translate(361.411442 55.72867) scale(0.1 -0.1)">
     <use xlink:href="#DejaVuSans-30"/>
     <use xlink:href="#DejaVuSans-2e" x="63.623047"/>
     <use xlink:href="#DejaVuSans-36" x="95.410156"/>
     <use xlink:href="#DejaVuSans-34" x="159.033203"/>
     <use xlink:href="#DejaVuSans-38" x="222.65625"/>
    </g>
   </g>
   <g id="text_66">
    <!-- 0.674 -->
    <g transform="translate(378.507209 42.777974) scale(0.1 -0.1)">
     <use xlink:href="#DejaVuSans-30"/>
     <use xlink:href="#DejaVuSans-2e" x="63.623047"/>
     <use xlink:href="#DejaVuSans-36" x="95.410156"/>
     <use xlink:href="#DejaVuSans-37" x="159.033203"/>
     <use xlink:href="#DejaVuSans-34" x="222.65625"/>
    </g>
   </g>
   <g id="text_67">
    <!-- 0.692 -->
    <g transform="translate(395.602977 33.721726) scale(0.1 -0.1)">
     <use xlink:href="#DejaVuSans-30"/>
     <use xlink:href="#DejaVuSans-2e" x="63.623047"/>
     <use xlink:href="#DejaVuSans-36" x="95.410156"/>
     <use xlink:href="#DejaVuSans-39" x="159.033203"/>
     <use xlink:href="#DejaVuSans-32" x="222.65625"/>
    </g>
   </g>
   <g id="text_68">
    <!-- 0.634 -->
    <g transform="translate(412.698744 63.130803) scale(0.1 -0.1)">
     <use xlink:href="#DejaVuSans-30"/>
     <use xlink:href="#DejaVuSans-2e" x="63.623047"/>
     <use xlink:href="#DejaVuSans-36" x="95.410156"/>
     <use xlink:href="#DejaVuSans-33" x="159.033203"/>
     <use xlink:href="#DejaVuSans-34" x="222.65625"/>
    </g>
   </g>
   <g id="text_69">
    <!-- 0.684 -->
    <g transform="translate(429.794511 37.79057) scale(0.1 -0.1)">
     <use xlink:href="#DejaVuSans-30"/>
     <use xlink:href="#DejaVuSans-2e" x="63.623047"/>
     <use xlink:href="#DejaVuSans-36" x="95.410156"/>
     <use xlink:href="#DejaVuSans-38" x="159.033203"/>
     <use xlink:href="#DejaVuSans-34" x="222.65625"/>
    </g>
   </g>
   <g id="text_70">
    <!-- 0.656 -->
    <g transform="translate(446.890279 51.780544) scale(0.1 -0.1)">
     <use xlink:href="#DejaVuSans-30"/>
     <use xlink:href="#DejaVuSans-2e" x="63.623047"/>
     <use xlink:href="#DejaVuSans-36" x="95.410156"/>
     <use xlink:href="#DejaVuSans-35" x="159.033203"/>
     <use xlink:href="#DejaVuSans-36" x="222.65625"/>
    </g>
   </g>
   <g id="text_71">
    <!-- 0.434 -->
    <g transform="translate(463.986046 164.986367) scale(0.1 -0.1)">
     <use xlink:href="#DejaVuSans-30"/>
     <use xlink:href="#DejaVuSans-2e" x="63.623047"/>
     <use xlink:href="#DejaVuSans-34" x="95.410156"/>
     <use xlink:href="#DejaVuSans-33" x="159.033203"/>
     <use xlink:href="#DejaVuSans-34" x="222.65625"/>
    </g>
   </g>
   <g id="text_72">
    <!-- 0.651 -->
    <g transform="translate(481.081813 54.260033) scale(0.1 -0.1)">
     <use xlink:href="#DejaVuSans-30"/>
     <use xlink:href="#DejaVuSans-2e" x="63.623047"/>
     <use xlink:href="#DejaVuSans-36" x="95.410156"/>
     <use xlink:href="#DejaVuSans-35" x="159.033203"/>
     <use xlink:href="#DejaVuSans-31" x="222.65625"/>
    </g>
   </g>
   <g id="text_73">
    <!-- 0.686 -->
    <g transform="translate(498.177581 36.455712) scale(0.1 -0.1)">
     <use xlink:href="#DejaVuSans-30"/>
     <use xlink:href="#DejaVuSans-2e" x="63.623047"/>
     <use xlink:href="#DejaVuSans-36" x="95.410156"/>
     <use xlink:href="#DejaVuSans-38" x="159.033203"/>
     <use xlink:href="#DejaVuSans-36" x="222.65625"/>
    </g>
   </g>
   <g id="text_74">
    <!-- 0.725 -->
    <g transform="translate(515.273348 16.4252) scale(0.1 -0.1)">
     <use xlink:href="#DejaVuSans-30"/>
     <use xlink:href="#DejaVuSans-2e" x="63.623047"/>
     <use xlink:href="#DejaVuSans-37" x="95.410156"/>
     <use xlink:href="#DejaVuSans-32" x="159.033203"/>
     <use xlink:href="#DejaVuSans-35" x="222.65625"/>
    </g>
   </g>
   <g id="text_75">
    <!-- 0.633 -->
    <g transform="translate(532.369115 63.466563) scale(0.1 -0.1)">
     <use xlink:href="#DejaVuSans-30"/>
     <use xlink:href="#DejaVuSans-2e" x="63.623047"/>
     <use xlink:href="#DejaVuSans-36" x="95.410156"/>
     <use xlink:href="#DejaVuSans-33" x="159.033203"/>
     <use xlink:href="#DejaVuSans-33" x="222.65625"/>
    </g>
   </g>
   <g id="text_76">
    <!-- 0.445 -->
    <g transform="translate(549.464883 159.66349) scale(0.1 -0.1)">
     <use xlink:href="#DejaVuSans-30"/>
     <use xlink:href="#DejaVuSans-2e" x="63.623047"/>
     <use xlink:href="#DejaVuSans-34" x="95.410156"/>
     <use xlink:href="#DejaVuSans-34" x="159.033203"/>
     <use xlink:href="#DejaVuSans-35" x="222.65625"/>
    </g>
   </g>
   <g id="text_77">
    <!-- 0.711 -->
    <g transform="translate(566.56065 23.579409) scale(0.1 -0.1)">
     <use xlink:href="#DejaVuSans-30"/>
     <use xlink:href="#DejaVuSans-2e" x="63.623047"/>
     <use xlink:href="#DejaVuSans-37" x="95.410156"/>
     <use xlink:href="#DejaVuSans-31" x="159.033203"/>
     <use xlink:href="#DejaVuSans-31" x="222.65625"/>
    </g>
   </g>
   <g id="text_78">
    <!-- 0.694 -->
    <g transform="translate(583.656417 32.667378) scale(0.1 -0.1)">
     <use xlink:href="#DejaVuSans-30"/>
     <use xlink:href="#DejaVuSans-2e" x="63.623047"/>
     <use xlink:href="#DejaVuSans-36" x="95.410156"/>
     <use xlink:href="#DejaVuSans-39" x="159.033203"/>
     <use xlink:href="#DejaVuSans-34" x="222.65625"/>
    </g>
   </g>
   <g id="text_79">
    <!-- 0.625 -->
    <g transform="translate(600.752185 67.917335) scale(0.1 -0.1)">
     <use xlink:href="#DejaVuSans-30"/>
     <use xlink:href="#DejaVuSans-2e" x="63.623047"/>
     <use xlink:href="#DejaVuSans-36" x="95.410156"/>
     <use xlink:href="#DejaVuSans-32" x="159.033203"/>
     <use xlink:href="#DejaVuSans-35" x="222.65625"/>
    </g>
   </g>
   <g id="text_80">
    <!-- 0.480 -->
    <g transform="translate(617.847952 141.660255) scale(0.1 -0.1)">
     <use xlink:href="#DejaVuSans-30"/>
     <use xlink:href="#DejaVuSans-2e" x="63.623047"/>
     <use xlink:href="#DejaVuSans-34" x="95.410156"/>
     <use xlink:href="#DejaVuSans-38" x="159.033203"/>
     <use xlink:href="#DejaVuSans-30" x="222.65625"/>
    </g>
   </g>
   <g id="text_81">
    <!-- 0.343 -->
    <g transform="translate(634.943719 211.586632) scale(0.1 -0.1)">
     <use xlink:href="#DejaVuSans-30"/>
     <use xlink:href="#DejaVuSans-2e" x="63.623047"/>
     <use xlink:href="#DejaVuSans-33" x="95.410156"/>
     <use xlink:href="#DejaVuSans-34" x="159.033203"/>
     <use xlink:href="#DejaVuSans-33" x="222.65625"/>
    </g>
   </g>
   <g id="text_82">
    <!-- 0.514 -->
    <g transform="translate(652.039487 124.40573) scale(0.1 -0.1)">
     <use xlink:href="#DejaVuSans-30"/>
     <use xlink:href="#DejaVuSans-2e" x="63.623047"/>
     <use xlink:href="#DejaVuSans-35" x="95.410156"/>
     <use xlink:href="#DejaVuSans-31" x="159.033203"/>
     <use xlink:href="#DejaVuSans-34" x="222.65625"/>
    </g>
   </g>
   <g id="text_83">
    <!-- 0.618 -->
    <g transform="translate(669.135254 71.437084) scale(0.1 -0.1)">
     <use xlink:href="#DejaVuSans-30"/>
     <use xlink:href="#DejaVuSans-2e" x="63.623047"/>
     <use xlink:href="#DejaVuSans-36" x="95.410156"/>
     <use xlink:href="#DejaVuSans-31" x="159.033203"/>
     <use xlink:href="#DejaVuSans-38" x="222.65625"/>
    </g>
   </g>
   <g id="legend_1">
    <g id="patch_118">
     <path d="M 34.303365 30.21399 
L 340.83399 30.21399 
Q 343.23399 30.21399 343.23399 27.81399 
L 343.23399 11.40024 
Q 343.23399 9.00024 340.83399 9.00024 
L 34.303365 9.00024 
Q 31.903365 9.00024 31.903365 11.40024 
L 31.903365 27.81399 
Q 31.903365 30.21399 34.303365 30.21399 
z
" style="fill: #ffffff; opacity: 0.8; stroke: #cccccc; stroke-linejoin: miter"/>
    </g>
    <g id="patch_119">
     <path d="M 36.703365 22.918365 
L 60.703365 22.918365 
L 60.703365 14.518365 
L 36.703365 14.518365 
z
" style="fill: #6698c4"/>
    </g>
    <g id="text_84">
     <!-- Distance+ -->
     <g transform="translate(70.303365 22.918365) scale(0.12 -0.12)">
      <defs>
       <path id="DejaVuSans-44" d="M 1259 4147 
L 1259 519 
L 2022 519 
Q 2988 519 3436 956 
Q 3884 1394 3884 2338 
Q 3884 3275 3436 3711 
Q 2988 4147 2022 4147 
L 1259 4147 
z
M 628 4666 
L 1925 4666 
Q 3281 4666 3915 4102 
Q 4550 3538 4550 2338 
Q 4550 1131 3912 565 
Q 3275 0 1925 0 
L 628 0 
L 628 4666 
z
" transform="scale(0.015625)"/>
       <path id="DejaVuSans-73" d="M 2834 3397 
L 2834 2853 
Q 2591 2978 2328 3040 
Q 2066 3103 1784 3103 
Q 1356 3103 1142 2972 
Q 928 2841 928 2578 
Q 928 2378 1081 2264 
Q 1234 2150 1697 2047 
L 1894 2003 
Q 2506 1872 2764 1633 
Q 3022 1394 3022 966 
Q 3022 478 2636 193 
Q 2250 -91 1575 -91 
Q 1294 -91 989 -36 
Q 684 19 347 128 
L 347 722 
Q 666 556 975 473 
Q 1284 391 1588 391 
Q 1994 391 2212 530 
Q 2431 669 2431 922 
Q 2431 1156 2273 1281 
Q 2116 1406 1581 1522 
L 1381 1569 
Q 847 1681 609 1914 
Q 372 2147 372 2553 
Q 372 3047 722 3315 
Q 1072 3584 1716 3584 
Q 2034 3584 2315 3537 
Q 2597 3491 2834 3397 
z
" transform="scale(0.015625)"/>
       <path id="DejaVuSans-61" d="M 2194 1759 
Q 1497 1759 1228 1600 
Q 959 1441 959 1056 
Q 959 750 1161 570 
Q 1363 391 1709 391 
Q 2188 391 2477 730 
Q 2766 1069 2766 1631 
L 2766 1759 
L 2194 1759 
z
M 3341 1997 
L 3341 0 
L 2766 0 
L 2766 531 
Q 2569 213 2275 61 
Q 1981 -91 1556 -91 
Q 1019 -91 701 211 
Q 384 513 384 1019 
Q 384 1609 779 1909 
Q 1175 2209 1959 2209 
L 2766 2209 
L 2766 2266 
Q 2766 2663 2505 2880 
Q 2244 3097 1772 3097 
Q 1472 3097 1187 3025 
Q 903 2953 641 2809 
L 641 3341 
Q 956 3463 1253 3523 
Q 1550 3584 1831 3584 
Q 2591 3584 2966 3190 
Q 3341 2797 3341 1997 
z
" transform="scale(0.015625)"/>
       <path id="DejaVuSans-6e" d="M 3513 2113 
L 3513 0 
L 2938 0 
L 2938 2094 
Q 2938 2591 2744 2837 
Q 2550 3084 2163 3084 
Q 1697 3084 1428 2787 
Q 1159 2491 1159 1978 
L 1159 0 
L 581 0 
L 581 3500 
L 1159 3500 
L 1159 2956 
Q 1366 3272 1645 3428 
Q 1925 3584 2291 3584 
Q 2894 3584 3203 3211 
Q 3513 2838 3513 2113 
z
" transform="scale(0.015625)"/>
       <path id="DejaVuSans-2b" d="M 2944 4013 
L 2944 2272 
L 4684 2272 
L 4684 1741 
L 2944 1741 
L 2944 0 
L 2419 0 
L 2419 1741 
L 678 1741 
L 678 2272 
L 2419 2272 
L 2419 4013 
L 2944 4013 
z
" transform="scale(0.015625)"/>
      </defs>
      <use xlink:href="#DejaVuSans-44"/>
      <use xlink:href="#DejaVuSans-69" x="77.001953"/>
      <use xlink:href="#DejaVuSans-73" x="104.785156"/>
      <use xlink:href="#DejaVuSans-74" x="156.884766"/>
      <use xlink:href="#DejaVuSans-61" x="196.09375"/>
      <use xlink:href="#DejaVuSans-6e" x="257.373047"/>
      <use xlink:href="#DejaVuSans-63" x="320.751953"/>
      <use xlink:href="#DejaVuSans-65" x="375.732422"/>
      <use xlink:href="#DejaVuSans-2b" x="437.255859"/>
     </g>
    </g>
    <g id="patch_120">
     <path d="M 156.82899 22.918365 
L 180.82899 22.918365 
L 180.82899 14.518365 
L 156.82899 14.518365 
z
" style="fill: #ffe69a"/>
    </g>
    <g id="text_85">
     <!-- Distance- -->
     <g transform="translate(190.42899 22.918365) scale(0.12 -0.12)">
      <defs>
       <path id="DejaVuSans-2d" d="M 313 2009 
L 1997 2009 
L 1997 1497 
L 313 1497 
L 313 2009 
z
" transform="scale(0.015625)"/>
      </defs>
      <use xlink:href="#DejaVuSans-44"/>
      <use xlink:href="#DejaVuSans-69" x="77.001953"/>
      <use xlink:href="#DejaVuSans-73" x="104.785156"/>
      <use xlink:href="#DejaVuSans-74" x="156.884766"/>
      <use xlink:href="#DejaVuSans-61" x="196.09375"/>
      <use xlink:href="#DejaVuSans-6e" x="257.373047"/>
      <use xlink:href="#DejaVuSans-63" x="320.751953"/>
      <use xlink:href="#DejaVuSans-65" x="375.732422"/>
      <use xlink:href="#DejaVuSans-2d" x="437.255859"/>
     </g>
    </g>
    <g id="patch_121">
     <path d="M 271.228365 22.918365 
L 295.228365 22.918365 
L 295.228365 14.518365 
L 271.228365 14.518365 
z
" style="fill: #fab28c"/>
    </g>
    <g id="text_86">
     <!-- Score -->
     <g transform="translate(304.828365 22.918365) scale(0.12 -0.12)">
      <defs>
       <path id="DejaVuSans-53" d="M 3425 4513 
L 3425 3897 
Q 3066 4069 2747 4153 
Q 2428 4238 2131 4238 
Q 1616 4238 1336 4038 
Q 1056 3838 1056 3469 
Q 1056 3159 1242 3001 
Q 1428 2844 1947 2747 
L 2328 2669 
Q 3034 2534 3370 2195 
Q 3706 1856 3706 1288 
Q 3706 609 3251 259 
Q 2797 -91 1919 -91 
Q 1588 -91 1214 -16 
Q 841 59 441 206 
L 441 856 
Q 825 641 1194 531 
Q 1563 422 1919 422 
Q 2459 422 2753 634 
Q 3047 847 3047 1241 
Q 3047 1584 2836 1778 
Q 2625 1972 2144 2069 
L 1759 2144 
Q 1053 2284 737 2584 
Q 422 2884 422 3419 
Q 422 4038 858 4394 
Q 1294 4750 2059 4750 
Q 2388 4750 2728 4690 
Q 3069 4631 3425 4513 
z
" transform="scale(0.015625)"/>
       <path id="DejaVuSans-72" d="M 2631 2963 
Q 2534 3019 2420 3045 
Q 2306 3072 2169 3072 
Q 1681 3072 1420 2755 
Q 1159 2438 1159 1844 
L 1159 0 
L 581 0 
L 581 3500 
L 1159 3500 
L 1159 2956 
Q 1341 3275 1631 3429 
Q 1922 3584 2338 3584 
Q 2397 3584 2469 3576 
Q 2541 3569 2628 3553 
L 2631 2963 
z
" transform="scale(0.015625)"/>
      </defs>
      <use xlink:href="#DejaVuSans-53"/>
      <use xlink:href="#DejaVuSans-63" x="63.476562"/>
      <use xlink:href="#DejaVuSans-6f" x="118.457031"/>
      <use xlink:href="#DejaVuSans-72" x="179.638672"/>
      <use xlink:href="#DejaVuSans-65" x="218.501953"/>
     </g>
    </g>
   </g>
  </g>
 </g>
 <defs>
  <clipPath id="p31cd4d75b2">
   <rect x="25.903365" y="3.00024" width="691.096395" height="388.597595"/>
  </clipPath>
 </defs>
</svg>
