<?xml version="1.0" encoding="utf-8" standalone="no"?>
<!DOCTYPE svg PUBLIC "-//W3C//DTD SVG 1.1//EN"
  "http://www.w3.org/Graphics/SVG/1.1/DTD/svg11.dtd">
<svg xmlns:xlink="http://www.w3.org/1999/xlink" width="720pt" height="432pt" viewBox="0 0 720 432" xmlns="http://www.w3.org/2000/svg" version="1.1">
 <metadata>
  <rdf:RDF xmlns:dc="http://purl.org/dc/elements/1.1/" xmlns:cc="http://creativecommons.org/ns#" xmlns:rdf="http://www.w3.org/1999/02/22-rdf-syntax-ns#">
   <cc:Work>
    <dc:type rdf:resource="http://purl.org/dc/dcmitype/StillImage"/>
    <dc:date>2023-02-21T03:18:52.424267</dc:date>
    <dc:format>image/svg+xml</dc:format>
    <dc:creator>
     <cc:Agent>
      <dc:title>Matplotlib v3.6.3, https://matplotlib.org/</dc:title>
     </cc:Agent>
    </dc:creator>
   </cc:Work>
  </rdf:RDF>
 </metadata>
 <defs>
  <style type="text/css">*{stroke-linejoin: round; stroke-linecap: butt}</style>
 </defs>
 <g id="figure_1">
  <g id="patch_1">
   <path d="M 0 432 
L 720 432 
L 720 0 
L 0 0 
z
" style="fill: #ffffff"/>
  </g>
  <g id="axes_1">
   <g id="patch_2">
    <path d="M 25.903365 391.597835 
L 716.99976 391.597835 
L 716.99976 6.799459 
L 25.903365 6.799459 
z
" style="fill: #ffffff"/>
   </g>
   <g id="patch_3">
    <path d="M 57.316837 391.597835 
L 61.370189 391.597835 
L 61.370189 279.551444 
L 57.316837 279.551444 
z
" clip-path="url(#pee7763e416)" style="fill: #6698c4"/>
   </g>
   <g id="patch_4">
    <path d="M 73.530243 391.597835 
L 77.583594 391.597835 
L 77.583594 300.995035 
L 73.530243 300.995035 
z
" clip-path="url(#pee7763e416)" style="fill: #6698c4"/>
   </g>
   <g id="patch_5">
    <path d="M 89.743648 391.597835 
L 93.796999 391.597835 
L 93.796999 320.149113 
L 89.743648 320.149113 
z
" clip-path="url(#pee7763e416)" style="fill: #6698c4"/>
   </g>
   <g id="patch_6">
    <path d="M 105.957053 391.597835 
L 110.010404 391.597835 
L 110.010404 334.65443 
L 105.957053 334.65443 
z
" clip-path="url(#pee7763e416)" style="fill: #6698c4"/>
   </g>
   <g id="patch_7">
    <path d="M 122.170458 391.597835 
L 126.223809 391.597835 
L 126.223809 340.394692 
L 122.170458 340.394692 
z
" clip-path="url(#pee7763e416)" style="fill: #6698c4"/>
   </g>
   <g id="patch_8">
    <path d="M 138.383863 391.597835 
L 142.437215 391.597835 
L 142.437215 281.309772 
L 138.383863 281.309772 
z
" clip-path="url(#pee7763e416)" style="fill: #6698c4"/>
   </g>
   <g id="patch_9">
    <path d="M 154.597268 391.597835 
L 158.65062 391.597835 
L 158.65062 284.373364 
L 154.597268 284.373364 
z
" clip-path="url(#pee7763e416)" style="fill: #6698c4"/>
   </g>
   <g id="patch_10">
    <path d="M 170.810674 391.597835 
L 174.864025 391.597835 
L 174.864025 285.414202 
L 170.810674 285.414202 
z
" clip-path="url(#pee7763e416)" style="fill: #6698c4"/>
   </g>
   <g id="patch_11">
    <path d="M 187.024079 391.597835 
L 191.07743 391.597835 
L 191.07743 279.490706 
L 187.024079 279.490706 
z
" clip-path="url(#pee7763e416)" style="fill: #6698c4"/>
   </g>
   <g id="patch_12">
    <path d="M 203.237484 391.597835 
L 207.290835 391.597835 
L 207.290835 279.53384 
L 203.237484 279.53384 
z
" clip-path="url(#pee7763e416)" style="fill: #6698c4"/>
   </g>
   <g id="patch_13">
    <path d="M 219.450889 391.597835 
L 223.50424 391.597835 
L 223.50424 279.559729 
L 219.450889 279.559729 
z
" clip-path="url(#pee7763e416)" style="fill: #6698c4"/>
   </g>
   <g id="patch_14">
    <path d="M 235.664294 391.597835 
L 239.717646 391.597835 
L 239.717646 279.56836 
L 235.664294 279.56836 
z
" clip-path="url(#pee7763e416)" style="fill: #6698c4"/>
   </g>
   <g id="patch_15">
    <path d="M 251.877699 391.597835 
L 255.931051 391.597835 
L 255.931051 281.080953 
L 251.877699 281.080953 
z
" clip-path="url(#pee7763e416)" style="fill: #6698c4"/>
   </g>
   <g id="patch_16">
    <path d="M 268.091105 391.597835 
L 272.144456 391.597835 
L 272.144456 283.026647 
L 268.091105 283.026647 
z
" clip-path="url(#pee7763e416)" style="fill: #6698c4"/>
   </g>
   <g id="patch_17">
    <path d="M 284.30451 391.597835 
L 288.357861 391.597835 
L 288.357861 284.209906 
L 284.30451 284.209906 
z
" clip-path="url(#pee7763e416)" style="fill: #6698c4"/>
   </g>
   <g id="patch_18">
    <path d="M 300.517915 391.597835 
L 304.571266 391.597835 
L 304.571266 284.60442 
L 300.517915 284.60442 
z
" clip-path="url(#pee7763e416)" style="fill: #6698c4"/>
   </g>
   <g id="patch_19">
    <path d="M 316.73132 391.597835 
L 320.784671 391.597835 
L 320.784671 279.326142 
L 316.73132 279.326142 
z
" clip-path="url(#pee7763e416)" style="fill: #6698c4"/>
   </g>
   <g id="patch_20">
    <path d="M 332.944725 391.597835 
L 336.998077 391.597835 
L 336.998077 279.424656 
L 332.944725 279.424656 
z
" clip-path="url(#pee7763e416)" style="fill: #6698c4"/>
   </g>
   <g id="patch_21">
    <path d="M 349.15813 391.597835 
L 353.211482 391.597835 
L 353.211482 279.495076 
L 349.15813 279.495076 
z
" clip-path="url(#pee7763e416)" style="fill: #6698c4"/>
   </g>
   <g id="patch_22">
    <path d="M 365.371536 391.597835 
L 369.424887 391.597835 
L 369.424887 279.537349 
L 365.371536 279.537349 
z
" clip-path="url(#pee7763e416)" style="fill: #6698c4"/>
   </g>
   <g id="patch_23">
    <path d="M 381.584941 391.597835 
L 385.638292 391.597835 
L 385.638292 278.277634 
L 381.584941 278.277634 
z
" clip-path="url(#pee7763e416)" style="fill: #6698c4"/>
   </g>
   <g id="patch_24">
    <path d="M 397.798346 391.597835 
L 401.851697 391.597835 
L 401.851697 279.551444 
L 397.798346 279.551444 
z
" clip-path="url(#pee7763e416)" style="fill: #6698c4"/>
   </g>
   <g id="patch_25">
    <path d="M 414.011751 391.597835 
L 418.065102 391.597835 
L 418.065102 280.322728 
L 414.011751 280.322728 
z
" clip-path="url(#pee7763e416)" style="fill: #6698c4"/>
   </g>
   <g id="patch_26">
    <path d="M 430.225156 391.597835 
L 434.278507 391.597835 
L 434.278507 280.581014 
L 430.225156 280.581014 
z
" clip-path="url(#pee7763e416)" style="fill: #6698c4"/>
   </g>
   <g id="patch_27">
    <path d="M 446.438561 391.597835 
L 450.491913 391.597835 
L 450.491913 279.162053 
L 446.438561 279.162053 
z
" clip-path="url(#pee7763e416)" style="fill: #6698c4"/>
   </g>
   <g id="patch_28">
    <path d="M 462.651967 391.597835 
L 466.705318 391.597835 
L 466.705318 279.253196 
L 462.651967 279.253196 
z
" clip-path="url(#pee7763e416)" style="fill: #6698c4"/>
   </g>
   <g id="patch_29">
    <path d="M 478.865372 391.597835 
L 482.918723 391.597835 
L 482.918723 279.332246 
L 478.865372 279.332246 
z
" clip-path="url(#pee7763e416)" style="fill: #6698c4"/>
   </g>
   <g id="patch_30">
    <path d="M 495.078777 391.597835 
L 499.132128 391.597835 
L 499.132128 279.399177 
L 495.078777 279.399177 
z
" clip-path="url(#pee7763e416)" style="fill: #6698c4"/>
   </g>
   <g id="patch_31">
    <path d="M 511.292182 391.597835 
L 515.345533 391.597835 
L 515.345533 279.453969 
L 511.292182 279.453969 
z
" clip-path="url(#pee7763e416)" style="fill: #6698c4"/>
   </g>
   <g id="patch_32">
    <path d="M 527.505587 391.597835 
L 531.558938 391.597835 
L 531.558938 279.496604 
L 527.505587 279.496604 
z
" clip-path="url(#pee7763e416)" style="fill: #6698c4"/>
   </g>
   <g id="patch_33">
    <path d="M 543.718992 391.597835 
L 547.772344 391.597835 
L 547.772344 279.527067 
L 543.718992 279.527067 
z
" clip-path="url(#pee7763e416)" style="fill: #6698c4"/>
   </g>
   <g id="patch_34">
    <path d="M 559.932397 391.597835 
L 563.985749 391.597835 
L 563.985749 279.545349 
L 559.932397 279.545349 
z
" clip-path="url(#pee7763e416)" style="fill: #6698c4"/>
   </g>
   <g id="patch_35">
    <path d="M 576.145803 391.597835 
L 580.199154 391.597835 
L 580.199154 279.551444 
L 576.145803 279.551444 
z
" clip-path="url(#pee7763e416)" style="fill: #6698c4"/>
   </g>
   <g id="patch_36">
    <path d="M 592.359208 391.597835 
L 596.412559 391.597835 
L 596.412559 338.256987 
L 592.359208 338.256987 
z
" clip-path="url(#pee7763e416)" style="fill: #6698c4"/>
   </g>
   <g id="patch_37">
    <path d="M 608.572613 391.597835 
L 612.625964 391.597835 
L 612.625964 338.253844 
L 608.572613 338.253844 
z
" clip-path="url(#pee7763e416)" style="fill: #6698c4"/>
   </g>
   <g id="patch_38">
    <path d="M 624.786018 391.597835 
L 628.839369 391.597835 
L 628.839369 338.244467 
L 624.786018 338.244467 
z
" clip-path="url(#pee7763e416)" style="fill: #6698c4"/>
   </g>
   <g id="patch_39">
    <path d="M 640.999423 391.597835 
L 645.052775 391.597835 
L 645.052775 338.228858 
L 640.999423 338.228858 
z
" clip-path="url(#pee7763e416)" style="fill: #6698c4"/>
   </g>
   <g id="patch_40">
    <path d="M 657.212828 391.597835 
L 661.26618 391.597835 
L 661.26618 338.207024 
L 657.212828 338.207024 
z
" clip-path="url(#pee7763e416)" style="fill: #6698c4"/>
   </g>
   <g id="patch_41">
    <path d="M 673.426234 391.597835 
L 677.479585 391.597835 
L 677.479585 338.178971 
L 673.426234 338.178971 
z
" clip-path="url(#pee7763e416)" style="fill: #6698c4"/>
   </g>
   <g id="patch_42">
    <path d="M 61.370189 391.597835 
L 65.42354 391.597835 
L 65.42354 377.081486 
L 61.370189 377.081486 
z
" clip-path="url(#pee7763e416)" style="fill: #ffe69a"/>
   </g>
   <g id="patch_43">
    <path d="M 77.583594 391.597835 
L 81.636945 391.597835 
L 81.636945 362.761853 
L 77.583594 362.761853 
z
" clip-path="url(#pee7763e416)" style="fill: #ffe69a"/>
   </g>
   <g id="patch_44">
    <path d="M 93.796999 391.597835 
L 97.85035 391.597835 
L 97.85035 339.695211 
L 93.796999 339.695211 
z
" clip-path="url(#pee7763e416)" style="fill: #ffe69a"/>
   </g>
   <g id="patch_45">
    <path d="M 110.010404 391.597835 
L 114.063756 391.597835 
L 114.063756 315.454353 
L 110.010404 315.454353 
z
" clip-path="url(#pee7763e416)" style="fill: #ffe69a"/>
   </g>
   <g id="patch_46">
    <path d="M 126.223809 391.597835 
L 130.277161 391.597835 
L 130.277161 290.883604 
L 126.223809 290.883604 
z
" clip-path="url(#pee7763e416)" style="fill: #ffe69a"/>
   </g>
   <g id="patch_47">
    <path d="M 142.437215 391.597835 
L 146.490566 391.597835 
L 146.490566 375.905031 
L 142.437215 375.905031 
z
" clip-path="url(#pee7763e416)" style="fill: #ffe69a"/>
   </g>
   <g id="patch_48">
    <path d="M 158.65062 391.597835 
L 162.703971 391.597835 
L 162.703971 366.179614 
L 158.65062 366.179614 
z
" clip-path="url(#pee7763e416)" style="fill: #ffe69a"/>
   </g>
   <g id="patch_49">
    <path d="M 174.864025 391.597835 
L 178.917376 391.597835 
L 178.917376 352.995318 
L 174.864025 352.995318 
z
" clip-path="url(#pee7763e416)" style="fill: #ffe69a"/>
   </g>
   <g id="patch_50">
    <path d="M 191.07743 391.597835 
L 195.130781 391.597835 
L 195.130781 377.253023 
L 191.07743 377.253023 
z
" clip-path="url(#pee7763e416)" style="fill: #ffe69a"/>
   </g>
   <g id="patch_51">
    <path d="M 207.290835 391.597835 
L 211.344187 391.597835 
L 211.344187 377.185773 
L 207.290835 377.185773 
z
" clip-path="url(#pee7763e416)" style="fill: #ffe69a"/>
   </g>
   <g id="patch_52">
    <path d="M 223.50424 391.597835 
L 227.557592 391.597835 
L 227.557592 376.985882 
L 223.50424 376.985882 
z
" clip-path="url(#pee7763e416)" style="fill: #ffe69a"/>
   </g>
   <g id="patch_53">
    <path d="M 239.717646 391.597835 
L 243.770997 391.597835 
L 243.770997 376.658671 
L 239.717646 376.658671 
z
" clip-path="url(#pee7763e416)" style="fill: #ffe69a"/>
   </g>
   <g id="patch_54">
    <path d="M 255.931051 391.597835 
L 259.984402 391.597835 
L 259.984402 376.062628 
L 255.931051 376.062628 
z
" clip-path="url(#pee7763e416)" style="fill: #ffe69a"/>
   </g>
   <g id="patch_55">
    <path d="M 272.144456 391.597835 
L 276.197807 391.597835 
L 276.197807 370.893881 
L 272.144456 370.893881 
z
" clip-path="url(#pee7763e416)" style="fill: #ffe69a"/>
   </g>
   <g id="patch_56">
    <path d="M 288.357861 391.597835 
L 292.411212 391.597835 
L 292.411212 363.53343 
L 288.357861 363.53343 
z
" clip-path="url(#pee7763e416)" style="fill: #ffe69a"/>
   </g>
   <g id="patch_57">
    <path d="M 304.571266 391.597835 
L 308.624617 391.597835 
L 308.624617 355.300076 
L 304.571266 355.300076 
z
" clip-path="url(#pee7763e416)" style="fill: #ffe69a"/>
   </g>
   <g id="patch_58">
    <path d="M 320.784671 391.597835 
L 324.838023 391.597835 
L 324.838023 378.941413 
L 320.784671 378.941413 
z
" clip-path="url(#pee7763e416)" style="fill: #ffe69a"/>
   </g>
   <g id="patch_59">
    <path d="M 336.998077 391.597835 
L 341.051428 391.597835 
L 341.051428 378.817235 
L 336.998077 378.817235 
z
" clip-path="url(#pee7763e416)" style="fill: #ffe69a"/>
   </g>
   <g id="patch_60">
    <path d="M 353.211482 391.597835 
L 357.264833 391.597835 
L 357.264833 378.451738 
L 353.211482 378.451738 
z
" clip-path="url(#pee7763e416)" style="fill: #ffe69a"/>
   </g>
   <g id="patch_61">
    <path d="M 369.424887 391.597835 
L 373.478238 391.597835 
L 373.478238 377.864175 
L 369.424887 377.864175 
z
" clip-path="url(#pee7763e416)" style="fill: #ffe69a"/>
   </g>
   <g id="patch_62">
    <path d="M 385.638292 391.597835 
L 389.691643 391.597835 
L 389.691643 379.216011 
L 385.638292 379.216011 
z
" clip-path="url(#pee7763e416)" style="fill: #ffe69a"/>
   </g>
   <g id="patch_63">
    <path d="M 401.851697 391.597835 
L 405.905048 391.597835 
L 405.905048 377.081486 
L 401.851697 377.081486 
z
" clip-path="url(#pee7763e416)" style="fill: #ffe69a"/>
   </g>
   <g id="patch_64">
    <path d="M 418.065102 391.597835 
L 422.118454 391.597835 
L 422.118454 372.028245 
L 418.065102 372.028245 
z
" clip-path="url(#pee7763e416)" style="fill: #ffe69a"/>
   </g>
   <g id="patch_65">
    <path d="M 434.278507 391.597835 
L 438.331859 391.597835 
L 438.331859 365.712648 
L 434.278507 365.712648 
z
" clip-path="url(#pee7763e416)" style="fill: #ffe69a"/>
   </g>
   <g id="patch_66">
    <path d="M 450.491913 391.597835 
L 454.545264 391.597835 
L 454.545264 380.493188 
L 450.491913 380.493188 
z
" clip-path="url(#pee7763e416)" style="fill: #ffe69a"/>
   </g>
   <g id="patch_67">
    <path d="M 466.705318 391.597835 
L 470.758669 391.597835 
L 470.758669 380.43186 
L 466.705318 380.43186 
z
" clip-path="url(#pee7763e416)" style="fill: #ffe69a"/>
   </g>
   <g id="patch_68">
    <path d="M 482.918723 391.597835 
L 486.972074 391.597835 
L 486.972074 380.249866 
L 482.918723 380.249866 
z
" clip-path="url(#pee7763e416)" style="fill: #ffe69a"/>
   </g>
   <g id="patch_69">
    <path d="M 499.132128 391.597835 
L 503.185479 391.597835 
L 503.185479 379.952862 
L 499.132128 379.952862 
z
" clip-path="url(#pee7763e416)" style="fill: #ffe69a"/>
   </g>
   <g id="patch_70">
    <path d="M 515.345533 391.597835 
L 519.398885 391.597835 
L 519.398885 379.54935 
L 515.345533 379.54935 
z
" clip-path="url(#pee7763e416)" style="fill: #ffe69a"/>
   </g>
   <g id="patch_71">
    <path d="M 531.558938 391.597835 
L 535.61229 391.597835 
L 535.61229 379.0496 
L 531.558938 379.0496 
z
" clip-path="url(#pee7763e416)" style="fill: #ffe69a"/>
   </g>
   <g id="patch_72">
    <path d="M 547.772344 391.597835 
L 551.825695 391.597835 
L 551.825695 378.464595 
L 547.772344 378.464595 
z
" clip-path="url(#pee7763e416)" style="fill: #ffe69a"/>
   </g>
   <g id="patch_73">
    <path d="M 563.985749 391.597835 
L 568.0391 391.597835 
L 568.0391 377.805178 
L 563.985749 377.805178 
z
" clip-path="url(#pee7763e416)" style="fill: #ffe69a"/>
   </g>
   <g id="patch_74">
    <path d="M 580.199154 391.597835 
L 584.252505 391.597835 
L 584.252505 377.081486 
L 580.199154 377.081486 
z
" clip-path="url(#pee7763e416)" style="fill: #ffe69a"/>
   </g>
   <g id="patch_75">
    <path d="M 596.412559 391.597835 
L 600.46591 391.597835 
L 600.46591 305.649958 
L 596.412559 305.649958 
z
" clip-path="url(#pee7763e416)" style="fill: #ffe69a"/>
   </g>
   <g id="patch_76">
    <path d="M 612.625964 391.597835 
L 616.679316 391.597835 
L 616.679316 305.667375 
L 612.625964 305.667375 
z
" clip-path="url(#pee7763e416)" style="fill: #ffe69a"/>
   </g>
   <g id="patch_77">
    <path d="M 628.839369 391.597835 
L 632.892721 391.597835 
L 632.892721 305.680924 
L 628.839369 305.680924 
z
" clip-path="url(#pee7763e416)" style="fill: #ffe69a"/>
   </g>
   <g id="patch_78">
    <path d="M 645.052775 391.597835 
L 649.106126 391.597835 
L 649.106126 305.690603 
L 645.052775 305.690603 
z
" clip-path="url(#pee7763e416)" style="fill: #ffe69a"/>
   </g>
   <g id="patch_79">
    <path d="M 661.26618 391.597835 
L 665.319531 391.597835 
L 665.319531 305.696411 
L 661.26618 305.696411 
z
" clip-path="url(#pee7763e416)" style="fill: #ffe69a"/>
   </g>
   <g id="patch_80">
    <path d="M 677.479585 391.597835 
L 681.532936 391.597835 
L 681.532936 305.698347 
L 677.479585 305.698347 
z
" clip-path="url(#pee7763e416)" style="fill: #ffe69a"/>
   </g>
   <g id="patch_81">
    <path d="M 65.42354 391.597835 
L 69.476891 391.597835 
L 69.476891 328.547598 
L 65.42354 328.547598 
z
" clip-path="url(#pee7763e416)" style="fill: #fab28c"/>
   </g>
   <g id="patch_82">
    <path d="M 81.636945 391.597835 
L 85.690297 391.597835 
L 85.690297 258.88144 
L 81.636945 258.88144 
z
" clip-path="url(#pee7763e416)" style="fill: #fab28c"/>
   </g>
   <g id="patch_83">
    <path d="M 97.85035 391.597835 
L 101.903702 391.597835 
L 101.903702 160.295183 
L 97.85035 160.295183 
z
" clip-path="url(#pee7763e416)" style="fill: #fab28c"/>
   </g>
   <g id="patch_84">
    <path d="M 114.063756 391.597835 
L 118.117107 391.597835 
L 118.117107 77.08914 
L 114.063756 77.08914 
z
" clip-path="url(#pee7763e416)" style="fill: #fab28c"/>
   </g>
   <g id="patch_85">
    <path d="M 130.277161 391.597835 
L 134.330512 391.597835 
L 134.330512 27.164088 
L 130.277161 27.164088 
z
" clip-path="url(#pee7763e416)" style="fill: #fab28c"/>
   </g>
   <g id="patch_86">
    <path d="M 146.490566 391.597835 
L 150.543917 391.597835 
L 150.543917 323.122974 
L 146.490566 323.122974 
z
" clip-path="url(#pee7763e416)" style="fill: #fab28c"/>
   </g>
   <g id="patch_87">
    <path d="M 162.703971 391.597835 
L 166.757322 391.597835 
L 166.757322 286.256937 
L 162.703971 286.256937 
z
" clip-path="url(#pee7763e416)" style="fill: #fab28c"/>
   </g>
   <g id="patch_88">
    <path d="M 178.917376 391.597835 
L 182.970727 391.597835 
L 182.970727 245.035021 
L 178.917376 245.035021 
z
" clip-path="url(#pee7763e416)" style="fill: #fab28c"/>
   </g>
   <g id="patch_89">
    <path d="M 195.130781 391.597835 
L 199.184133 391.597835 
L 199.184133 329.238057 
L 195.130781 329.238057 
z
" clip-path="url(#pee7763e416)" style="fill: #fab28c"/>
   </g>
   <g id="patch_90">
    <path d="M 211.344187 391.597835 
L 215.397538 391.597835 
L 215.397538 328.957656 
L 211.344187 328.957656 
z
" clip-path="url(#pee7763e416)" style="fill: #fab28c"/>
   </g>
   <g id="patch_91">
    <path d="M 227.557592 391.597835 
L 231.610943 391.597835 
L 231.610943 328.176107 
L 227.557592 328.176107 
z
" clip-path="url(#pee7763e416)" style="fill: #fab28c"/>
   </g>
   <g id="patch_92">
    <path d="M 243.770997 391.597835 
L 247.824348 391.597835 
L 247.824348 326.91858 
L 243.770997 326.91858 
z
" clip-path="url(#pee7763e416)" style="fill: #fab28c"/>
   </g>
   <g id="patch_93">
    <path d="M 259.984402 391.597835 
L 264.037753 391.597835 
L 264.037753 323.848943 
L 259.984402 323.848943 
z
" clip-path="url(#pee7763e416)" style="fill: #fab28c"/>
   </g>
   <g id="patch_94">
    <path d="M 276.197807 391.597835 
L 280.251158 391.597835 
L 280.251158 303.559166 
L 276.197807 303.559166 
z
" clip-path="url(#pee7763e416)" style="fill: #fab28c"/>
   </g>
   <g id="patch_95">
    <path d="M 292.411212 391.597835 
L 296.464564 391.597835 
L 296.464564 277.702865 
L 292.411212 277.702865 
z
" clip-path="url(#pee7763e416)" style="fill: #fab28c"/>
   </g>
   <g id="patch_96">
    <path d="M 308.624617 391.597835 
L 312.677969 391.597835 
L 312.677969 252.34772 
L 308.624617 252.34772 
z
" clip-path="url(#pee7763e416)" style="fill: #fab28c"/>
   </g>
   <g id="patch_97">
    <path d="M 324.838023 391.597835 
L 328.891374 391.597835 
L 328.891374 335.906713 
L 324.838023 335.906713 
z
" clip-path="url(#pee7763e416)" style="fill: #fab28c"/>
   </g>
   <g id="patch_98">
    <path d="M 341.051428 391.597835 
L 345.104779 391.597835 
L 345.104779 335.371854 
L 341.051428 335.371854 
z
" clip-path="url(#pee7763e416)" style="fill: #fab28c"/>
   </g>
   <g id="patch_99">
    <path d="M 357.264833 391.597835 
L 361.318184 391.597835 
L 361.318184 333.900167 
L 357.264833 333.900167 
z
" clip-path="url(#pee7763e416)" style="fill: #fab28c"/>
   </g>
   <g id="patch_100">
    <path d="M 373.478238 391.597835 
L 377.531589 391.597835 
L 377.531589 331.582663 
L 373.478238 331.582663 
z
" clip-path="url(#pee7763e416)" style="fill: #fab28c"/>
   </g>
   <g id="patch_101">
    <path d="M 389.691643 391.597835 
L 393.744995 391.597835 
L 393.744995 337.450442 
L 389.691643 337.450442 
z
" clip-path="url(#pee7763e416)" style="fill: #fab28c"/>
   </g>
   <g id="patch_102">
    <path d="M 405.905048 391.597835 
L 409.9584 391.597835 
L 409.9584 328.547598 
L 405.905048 328.547598 
z
" clip-path="url(#pee7763e416)" style="fill: #fab28c"/>
   </g>
   <g id="patch_103">
    <path d="M 422.118454 391.597835 
L 426.171805 391.597835 
L 426.171805 309.380994 
L 422.118454 309.380994 
z
" clip-path="url(#pee7763e416)" style="fill: #fab28c"/>
   </g>
   <g id="patch_104">
    <path d="M 438.331859 391.597835 
L 442.38521 391.597835 
L 442.38521 287.659278 
L 438.331859 287.659278 
z
" clip-path="url(#pee7763e416)" style="fill: #fab28c"/>
   </g>
   <g id="patch_105">
    <path d="M 454.545264 391.597835 
L 458.598615 391.597835 
L 458.598615 342.186015 
L 454.545264 342.186015 
z
" clip-path="url(#pee7763e416)" style="fill: #fab28c"/>
   </g>
   <g id="patch_106">
    <path d="M 470.758669 391.597835 
L 474.81202 391.597835 
L 474.81202 341.901135 
L 470.758669 341.901135 
z
" clip-path="url(#pee7763e416)" style="fill: #fab28c"/>
   </g>
   <g id="patch_107">
    <path d="M 486.972074 391.597835 
L 491.025426 391.597835 
L 491.025426 341.133192 
L 486.972074 341.133192 
z
" clip-path="url(#pee7763e416)" style="fill: #fab28c"/>
   </g>
   <g id="patch_108">
    <path d="M 503.185479 391.597835 
L 507.238831 391.597835 
L 507.238831 339.908613 
L 503.185479 339.908613 
z
" clip-path="url(#pee7763e416)" style="fill: #fab28c"/>
   </g>
   <g id="patch_109">
    <path d="M 519.398885 391.597835 
L 523.452236 391.597835 
L 523.452236 338.267688 
L 519.398885 338.267688 
z
" clip-path="url(#pee7763e416)" style="fill: #fab28c"/>
   </g>
   <g id="patch_110">
    <path d="M 535.61229 391.597835 
L 539.665641 391.597835 
L 539.665641 336.259333 
L 535.61229 336.259333 
z
" clip-path="url(#pee7763e416)" style="fill: #fab28c"/>
   </g>
   <g id="patch_111">
    <path d="M 551.825695 391.597835 
L 555.879046 391.597835 
L 555.879046 333.93595 
L 551.825695 333.93595 
z
" clip-path="url(#pee7763e416)" style="fill: #fab28c"/>
   </g>
   <g id="patch_112">
    <path d="M 568.0391 391.597835 
L 572.092451 391.597835 
L 572.092451 331.349275 
L 568.0391 331.349275 
z
" clip-path="url(#pee7763e416)" style="fill: #fab28c"/>
   </g>
   <g id="patch_113">
    <path d="M 584.252505 391.597835 
L 588.305857 391.597835 
L 588.305857 328.547598 
L 584.252505 328.547598 
z
" clip-path="url(#pee7763e416)" style="fill: #fab28c"/>
   </g>
   <g id="patch_114">
    <path d="M 600.46591 391.597835 
L 604.519262 391.597835 
L 604.519262 52.398977 
L 600.46591 52.398977 
z
" clip-path="url(#pee7763e416)" style="fill: #fab28c"/>
   </g>
   <g id="patch_115">
    <path d="M 616.679316 391.597835 
L 620.732667 391.597835 
L 620.732667 52.432957 
L 616.679316 52.432957 
z
" clip-path="url(#pee7763e416)" style="fill: #fab28c"/>
   </g>
   <g id="patch_116">
    <path d="M 632.892721 391.597835 
L 636.946072 391.597835 
L 636.946072 52.476277 
L 632.892721 52.476277 
z
" clip-path="url(#pee7763e416)" style="fill: #fab28c"/>
   </g>
   <g id="patch_117">
    <path d="M 649.106126 391.597835 
L 653.159477 391.597835 
L 653.159477 52.528918 
L 649.106126 52.528918 
z
" clip-path="url(#pee7763e416)" style="fill: #fab28c"/>
   </g>
   <g id="patch_118">
    <path d="M 665.319531 391.597835 
L 669.372882 391.597835 
L 669.372882 52.590851 
L 665.319531 52.590851 
z
" clip-path="url(#pee7763e416)" style="fill: #fab28c"/>
   </g>
   <g id="patch_119">
    <path d="M 681.532936 391.597835 
L 685.586287 391.597835 
L 685.586287 52.66204 
L 681.532936 52.66204 
z
" clip-path="url(#pee7763e416)" style="fill: #fab28c"/>
   </g>
   <g id="matplotlib.axis_1">
    <g id="xtick_1">
     <g id="line2d_1">
      <defs>
       <path id="m83b7b556c1" d="M 0 0 
L 0 3.5 
" style="stroke: #000000; stroke-width: 0.8"/>
      </defs>
      <g>
       <use xlink:href="#m83b7b556c1" x="63.396864" y="391.597835" style="stroke: #000000; stroke-width: 0.8"/>
      </g>
     </g>
     <g id="text_1">
      <!-- 1 -->
      <g transform="translate(60.215614 406.196273) scale(0.1 -0.1)">
       <defs>
        <path id="DejaVuSans-31" d="M 794 531 
L 1825 531 
L 1825 4091 
L 703 3866 
L 703 4441 
L 1819 4666 
L 2450 4666 
L 2450 531 
L 3481 531 
L 3481 0 
L 794 0 
L 794 531 
z
" transform="scale(0.015625)"/>
       </defs>
       <use xlink:href="#DejaVuSans-31"/>
      </g>
     </g>
    </g>
    <g id="xtick_2">
     <g id="line2d_2">
      <g>
       <use xlink:href="#m83b7b556c1" x="79.61027" y="391.597835" style="stroke: #000000; stroke-width: 0.8"/>
      </g>
     </g>
     <g id="text_2">
      <!-- 2 -->
      <g transform="translate(76.42902 406.196273) scale(0.1 -0.1)">
       <defs>
        <path id="DejaVuSans-32" d="M 1228 531 
L 3431 531 
L 3431 0 
L 469 0 
L 469 531 
Q 828 903 1448 1529 
Q 2069 2156 2228 2338 
Q 2531 2678 2651 2914 
Q 2772 3150 2772 3378 
Q 2772 3750 2511 3984 
Q 2250 4219 1831 4219 
Q 1534 4219 1204 4116 
Q 875 4013 500 3803 
L 500 4441 
Q 881 4594 1212 4672 
Q 1544 4750 1819 4750 
Q 2544 4750 2975 4387 
Q 3406 4025 3406 3419 
Q 3406 3131 3298 2873 
Q 3191 2616 2906 2266 
Q 2828 2175 2409 1742 
Q 1991 1309 1228 531 
z
" transform="scale(0.015625)"/>
       </defs>
       <use xlink:href="#DejaVuSans-32"/>
      </g>
     </g>
    </g>
    <g id="xtick_3">
     <g id="line2d_3">
      <g>
       <use xlink:href="#m83b7b556c1" x="95.823675" y="391.597835" style="stroke: #000000; stroke-width: 0.8"/>
      </g>
     </g>
     <g id="text_3">
      <!-- 3 -->
      <g transform="translate(92.642425 406.196273) scale(0.1 -0.1)">
       <defs>
        <path id="DejaVuSans-33" d="M 2597 2516 
Q 3050 2419 3304 2112 
Q 3559 1806 3559 1356 
Q 3559 666 3084 287 
Q 2609 -91 1734 -91 
Q 1441 -91 1130 -33 
Q 819 25 488 141 
L 488 750 
Q 750 597 1062 519 
Q 1375 441 1716 441 
Q 2309 441 2620 675 
Q 2931 909 2931 1356 
Q 2931 1769 2642 2001 
Q 2353 2234 1838 2234 
L 1294 2234 
L 1294 2753 
L 1863 2753 
Q 2328 2753 2575 2939 
Q 2822 3125 2822 3475 
Q 2822 3834 2567 4026 
Q 2313 4219 1838 4219 
Q 1578 4219 1281 4162 
Q 984 4106 628 3988 
L 628 4550 
Q 988 4650 1302 4700 
Q 1616 4750 1894 4750 
Q 2613 4750 3031 4423 
Q 3450 4097 3450 3541 
Q 3450 3153 3228 2886 
Q 3006 2619 2597 2516 
z
" transform="scale(0.015625)"/>
       </defs>
       <use xlink:href="#DejaVuSans-33"/>
      </g>
     </g>
    </g>
    <g id="xtick_4">
     <g id="line2d_4">
      <g>
       <use xlink:href="#m83b7b556c1" x="112.03708" y="391.597835" style="stroke: #000000; stroke-width: 0.8"/>
      </g>
     </g>
     <g id="text_4">
      <!-- 4 -->
      <g transform="translate(108.85583 406.196273) scale(0.1 -0.1)">
       <defs>
        <path id="DejaVuSans-34" d="M 2419 4116 
L 825 1625 
L 2419 1625 
L 2419 4116 
z
M 2253 4666 
L 3047 4666 
L 3047 1625 
L 3713 1625 
L 3713 1100 
L 3047 1100 
L 3047 0 
L 2419 0 
L 2419 1100 
L 313 1100 
L 313 1709 
L 2253 4666 
z
" transform="scale(0.015625)"/>
       </defs>
       <use xlink:href="#DejaVuSans-34"/>
      </g>
     </g>
    </g>
    <g id="xtick_5">
     <g id="line2d_5">
      <g>
       <use xlink:href="#m83b7b556c1" x="128.250485" y="391.597835" style="stroke: #000000; stroke-width: 0.8"/>
      </g>
     </g>
     <g id="text_5">
      <!-- 5 -->
      <g transform="translate(125.069235 406.196273) scale(0.1 -0.1)">
       <defs>
        <path id="DejaVuSans-35" d="M 691 4666 
L 3169 4666 
L 3169 4134 
L 1269 4134 
L 1269 2991 
Q 1406 3038 1543 3061 
Q 1681 3084 1819 3084 
Q 2600 3084 3056 2656 
Q 3513 2228 3513 1497 
Q 3513 744 3044 326 
Q 2575 -91 1722 -91 
Q 1428 -91 1123 -41 
Q 819 9 494 109 
L 494 744 
Q 775 591 1075 516 
Q 1375 441 1709 441 
Q 2250 441 2565 725 
Q 2881 1009 2881 1497 
Q 2881 1984 2565 2268 
Q 2250 2553 1709 2553 
Q 1456 2553 1204 2497 
Q 953 2441 691 2322 
L 691 4666 
z
" transform="scale(0.015625)"/>
       </defs>
       <use xlink:href="#DejaVuSans-35"/>
      </g>
     </g>
    </g>
    <g id="xtick_6">
     <g id="line2d_6">
      <g>
       <use xlink:href="#m83b7b556c1" x="144.46389" y="391.597835" style="stroke: #000000; stroke-width: 0.8"/>
      </g>
     </g>
     <g id="text_6">
      <!-- 6 -->
      <g transform="translate(141.28264 406.196273) scale(0.1 -0.1)">
       <defs>
        <path id="DejaVuSans-36" d="M 2113 2584 
Q 1688 2584 1439 2293 
Q 1191 2003 1191 1497 
Q 1191 994 1439 701 
Q 1688 409 2113 409 
Q 2538 409 2786 701 
Q 3034 994 3034 1497 
Q 3034 2003 2786 2293 
Q 2538 2584 2113 2584 
z
M 3366 4563 
L 3366 3988 
Q 3128 4100 2886 4159 
Q 2644 4219 2406 4219 
Q 1781 4219 1451 3797 
Q 1122 3375 1075 2522 
Q 1259 2794 1537 2939 
Q 1816 3084 2150 3084 
Q 2853 3084 3261 2657 
Q 3669 2231 3669 1497 
Q 3669 778 3244 343 
Q 2819 -91 2113 -91 
Q 1303 -91 875 529 
Q 447 1150 447 2328 
Q 447 3434 972 4092 
Q 1497 4750 2381 4750 
Q 2619 4750 2861 4703 
Q 3103 4656 3366 4563 
z
" transform="scale(0.015625)"/>
       </defs>
       <use xlink:href="#DejaVuSans-36"/>
      </g>
     </g>
    </g>
    <g id="xtick_7">
     <g id="line2d_7">
      <g>
       <use xlink:href="#m83b7b556c1" x="160.677295" y="391.597835" style="stroke: #000000; stroke-width: 0.8"/>
      </g>
     </g>
     <g id="text_7">
      <!-- 7 -->
      <g transform="translate(157.496045 406.196273) scale(0.1 -0.1)">
       <defs>
        <path id="DejaVuSans-37" d="M 525 4666 
L 3525 4666 
L 3525 4397 
L 1831 0 
L 1172 0 
L 2766 4134 
L 525 4134 
L 525 4666 
z
" transform="scale(0.015625)"/>
       </defs>
       <use xlink:href="#DejaVuSans-37"/>
      </g>
     </g>
    </g>
    <g id="xtick_8">
     <g id="line2d_8">
      <g>
       <use xlink:href="#m83b7b556c1" x="176.890701" y="391.597835" style="stroke: #000000; stroke-width: 0.8"/>
      </g>
     </g>
     <g id="text_8">
      <!-- 8 -->
      <g transform="translate(173.709451 406.196273) scale(0.1 -0.1)">
       <defs>
        <path id="DejaVuSans-38" d="M 2034 2216 
Q 1584 2216 1326 1975 
Q 1069 1734 1069 1313 
Q 1069 891 1326 650 
Q 1584 409 2034 409 
Q 2484 409 2743 651 
Q 3003 894 3003 1313 
Q 3003 1734 2745 1975 
Q 2488 2216 2034 2216 
z
M 1403 2484 
Q 997 2584 770 2862 
Q 544 3141 544 3541 
Q 544 4100 942 4425 
Q 1341 4750 2034 4750 
Q 2731 4750 3128 4425 
Q 3525 4100 3525 3541 
Q 3525 3141 3298 2862 
Q 3072 2584 2669 2484 
Q 3125 2378 3379 2068 
Q 3634 1759 3634 1313 
Q 3634 634 3220 271 
Q 2806 -91 2034 -91 
Q 1263 -91 848 271 
Q 434 634 434 1313 
Q 434 1759 690 2068 
Q 947 2378 1403 2484 
z
M 1172 3481 
Q 1172 3119 1398 2916 
Q 1625 2713 2034 2713 
Q 2441 2713 2670 2916 
Q 2900 3119 2900 3481 
Q 2900 3844 2670 4047 
Q 2441 4250 2034 4250 
Q 1625 4250 1398 4047 
Q 1172 3844 1172 3481 
z
" transform="scale(0.015625)"/>
       </defs>
       <use xlink:href="#DejaVuSans-38"/>
      </g>
     </g>
    </g>
    <g id="xtick_9">
     <g id="line2d_9">
      <g>
       <use xlink:href="#m83b7b556c1" x="193.104106" y="391.597835" style="stroke: #000000; stroke-width: 0.8"/>
      </g>
     </g>
     <g id="text_9">
      <!-- 9 -->
      <g transform="translate(189.922856 406.196273) scale(0.1 -0.1)">
       <defs>
        <path id="DejaVuSans-39" d="M 703 97 
L 703 672 
Q 941 559 1184 500 
Q 1428 441 1663 441 
Q 2288 441 2617 861 
Q 2947 1281 2994 2138 
Q 2813 1869 2534 1725 
Q 2256 1581 1919 1581 
Q 1219 1581 811 2004 
Q 403 2428 403 3163 
Q 403 3881 828 4315 
Q 1253 4750 1959 4750 
Q 2769 4750 3195 4129 
Q 3622 3509 3622 2328 
Q 3622 1225 3098 567 
Q 2575 -91 1691 -91 
Q 1453 -91 1209 -44 
Q 966 3 703 97 
z
M 1959 2075 
Q 2384 2075 2632 2365 
Q 2881 2656 2881 3163 
Q 2881 3666 2632 3958 
Q 2384 4250 1959 4250 
Q 1534 4250 1286 3958 
Q 1038 3666 1038 3163 
Q 1038 2656 1286 2365 
Q 1534 2075 1959 2075 
z
" transform="scale(0.015625)"/>
       </defs>
       <use xlink:href="#DejaVuSans-39"/>
      </g>
     </g>
    </g>
    <g id="xtick_10">
     <g id="line2d_10">
      <g>
       <use xlink:href="#m83b7b556c1" x="209.317511" y="391.597835" style="stroke: #000000; stroke-width: 0.8"/>
      </g>
     </g>
     <g id="text_10">
      <!-- 10 -->
      <g transform="translate(202.955011 406.196273) scale(0.1 -0.1)">
       <defs>
        <path id="DejaVuSans-30" d="M 2034 4250 
Q 1547 4250 1301 3770 
Q 1056 3291 1056 2328 
Q 1056 1369 1301 889 
Q 1547 409 2034 409 
Q 2525 409 2770 889 
Q 3016 1369 3016 2328 
Q 3016 3291 2770 3770 
Q 2525 4250 2034 4250 
z
M 2034 4750 
Q 2819 4750 3233 4129 
Q 3647 3509 3647 2328 
Q 3647 1150 3233 529 
Q 2819 -91 2034 -91 
Q 1250 -91 836 529 
Q 422 1150 422 2328 
Q 422 3509 836 4129 
Q 1250 4750 2034 4750 
z
" transform="scale(0.015625)"/>
       </defs>
       <use xlink:href="#DejaVuSans-31"/>
       <use xlink:href="#DejaVuSans-30" x="63.623047"/>
      </g>
     </g>
    </g>
    <g id="xtick_11">
     <g id="line2d_11">
      <g>
       <use xlink:href="#m83b7b556c1" x="225.530916" y="391.597835" style="stroke: #000000; stroke-width: 0.8"/>
      </g>
     </g>
     <g id="text_11">
      <!-- 11 -->
      <g transform="translate(219.168416 406.196273) scale(0.1 -0.1)">
       <use xlink:href="#DejaVuSans-31"/>
       <use xlink:href="#DejaVuSans-31" x="63.623047"/>
      </g>
     </g>
    </g>
    <g id="xtick_12">
     <g id="line2d_12">
      <g>
       <use xlink:href="#m83b7b556c1" x="241.744321" y="391.597835" style="stroke: #000000; stroke-width: 0.8"/>
      </g>
     </g>
     <g id="text_12">
      <!-- 12 -->
      <g transform="translate(235.381821 406.196273) scale(0.1 -0.1)">
       <use xlink:href="#DejaVuSans-31"/>
       <use xlink:href="#DejaVuSans-32" x="63.623047"/>
      </g>
     </g>
    </g>
    <g id="xtick_13">
     <g id="line2d_13">
      <g>
       <use xlink:href="#m83b7b556c1" x="257.957726" y="391.597835" style="stroke: #000000; stroke-width: 0.8"/>
      </g>
     </g>
     <g id="text_13">
      <!-- 13 -->
      <g transform="translate(251.595226 406.196273) scale(0.1 -0.1)">
       <use xlink:href="#DejaVuSans-31"/>
       <use xlink:href="#DejaVuSans-33" x="63.623047"/>
      </g>
     </g>
    </g>
    <g id="xtick_14">
     <g id="line2d_14">
      <g>
       <use xlink:href="#m83b7b556c1" x="274.171132" y="391.597835" style="stroke: #000000; stroke-width: 0.8"/>
      </g>
     </g>
     <g id="text_14">
      <!-- 14 -->
      <g transform="translate(267.808632 406.196273) scale(0.1 -0.1)">
       <use xlink:href="#DejaVuSans-31"/>
       <use xlink:href="#DejaVuSans-34" x="63.623047"/>
      </g>
     </g>
    </g>
    <g id="xtick_15">
     <g id="line2d_15">
      <g>
       <use xlink:href="#m83b7b556c1" x="290.384537" y="391.597835" style="stroke: #000000; stroke-width: 0.8"/>
      </g>
     </g>
     <g id="text_15">
      <!-- 15 -->
      <g transform="translate(284.022037 406.196273) scale(0.1 -0.1)">
       <use xlink:href="#DejaVuSans-31"/>
       <use xlink:href="#DejaVuSans-35" x="63.623047"/>
      </g>
     </g>
    </g>
    <g id="xtick_16">
     <g id="line2d_16">
      <g>
       <use xlink:href="#m83b7b556c1" x="306.597942" y="391.597835" style="stroke: #000000; stroke-width: 0.8"/>
      </g>
     </g>
     <g id="text_16">
      <!-- 16 -->
      <g transform="translate(300.235442 406.196273) scale(0.1 -0.1)">
       <use xlink:href="#DejaVuSans-31"/>
       <use xlink:href="#DejaVuSans-36" x="63.623047"/>
      </g>
     </g>
    </g>
    <g id="xtick_17">
     <g id="line2d_17">
      <g>
       <use xlink:href="#m83b7b556c1" x="322.811347" y="391.597835" style="stroke: #000000; stroke-width: 0.8"/>
      </g>
     </g>
     <g id="text_17">
      <!-- 17 -->
      <g transform="translate(316.448847 406.196273) scale(0.1 -0.1)">
       <use xlink:href="#DejaVuSans-31"/>
       <use xlink:href="#DejaVuSans-37" x="63.623047"/>
      </g>
     </g>
    </g>
    <g id="xtick_18">
     <g id="line2d_18">
      <g>
       <use xlink:href="#m83b7b556c1" x="339.024752" y="391.597835" style="stroke: #000000; stroke-width: 0.8"/>
      </g>
     </g>
     <g id="text_18">
      <!-- 18 -->
      <g transform="translate(332.662252 406.196273) scale(0.1 -0.1)">
       <use xlink:href="#DejaVuSans-31"/>
       <use xlink:href="#DejaVuSans-38" x="63.623047"/>
      </g>
     </g>
    </g>
    <g id="xtick_19">
     <g id="line2d_19">
      <g>
       <use xlink:href="#m83b7b556c1" x="355.238157" y="391.597835" style="stroke: #000000; stroke-width: 0.8"/>
      </g>
     </g>
     <g id="text_19">
      <!-- 19 -->
      <g transform="translate(348.875657 406.196273) scale(0.1 -0.1)">
       <use xlink:href="#DejaVuSans-31"/>
       <use xlink:href="#DejaVuSans-39" x="63.623047"/>
      </g>
     </g>
    </g>
    <g id="xtick_20">
     <g id="line2d_20">
      <g>
       <use xlink:href="#m83b7b556c1" x="371.451562" y="391.597835" style="stroke: #000000; stroke-width: 0.8"/>
      </g>
     </g>
     <g id="text_20">
      <!-- 20 -->
      <g transform="translate(365.089062 406.196273) scale(0.1 -0.1)">
       <use xlink:href="#DejaVuSans-32"/>
       <use xlink:href="#DejaVuSans-30" x="63.623047"/>
      </g>
     </g>
    </g>
    <g id="xtick_21">
     <g id="line2d_21">
      <g>
       <use xlink:href="#m83b7b556c1" x="387.664968" y="391.597835" style="stroke: #000000; stroke-width: 0.8"/>
      </g>
     </g>
     <g id="text_21">
      <!-- 21 -->
      <g transform="translate(381.302468 406.196273) scale(0.1 -0.1)">
       <use xlink:href="#DejaVuSans-32"/>
       <use xlink:href="#DejaVuSans-31" x="63.623047"/>
      </g>
     </g>
    </g>
    <g id="xtick_22">
     <g id="line2d_22">
      <g>
       <use xlink:href="#m83b7b556c1" x="403.878373" y="391.597835" style="stroke: #000000; stroke-width: 0.8"/>
      </g>
     </g>
     <g id="text_22">
      <!-- 22 -->
      <g transform="translate(397.515873 406.196273) scale(0.1 -0.1)">
       <use xlink:href="#DejaVuSans-32"/>
       <use xlink:href="#DejaVuSans-32" x="63.623047"/>
      </g>
     </g>
    </g>
    <g id="xtick_23">
     <g id="line2d_23">
      <g>
       <use xlink:href="#m83b7b556c1" x="420.091778" y="391.597835" style="stroke: #000000; stroke-width: 0.8"/>
      </g>
     </g>
     <g id="text_23">
      <!-- 23 -->
      <g transform="translate(413.729278 406.196273) scale(0.1 -0.1)">
       <use xlink:href="#DejaVuSans-32"/>
       <use xlink:href="#DejaVuSans-33" x="63.623047"/>
      </g>
     </g>
    </g>
    <g id="xtick_24">
     <g id="line2d_24">
      <g>
       <use xlink:href="#m83b7b556c1" x="436.305183" y="391.597835" style="stroke: #000000; stroke-width: 0.8"/>
      </g>
     </g>
     <g id="text_24">
      <!-- 24 -->
      <g transform="translate(429.942683 406.196273) scale(0.1 -0.1)">
       <use xlink:href="#DejaVuSans-32"/>
       <use xlink:href="#DejaVuSans-34" x="63.623047"/>
      </g>
     </g>
    </g>
    <g id="xtick_25">
     <g id="line2d_25">
      <g>
       <use xlink:href="#m83b7b556c1" x="452.518588" y="391.597835" style="stroke: #000000; stroke-width: 0.8"/>
      </g>
     </g>
     <g id="text_25">
      <!-- 25 -->
      <g transform="translate(446.156088 406.196273) scale(0.1 -0.1)">
       <use xlink:href="#DejaVuSans-32"/>
       <use xlink:href="#DejaVuSans-35" x="63.623047"/>
      </g>
     </g>
    </g>
    <g id="xtick_26">
     <g id="line2d_26">
      <g>
       <use xlink:href="#m83b7b556c1" x="468.731993" y="391.597835" style="stroke: #000000; stroke-width: 0.8"/>
      </g>
     </g>
     <g id="text_26">
      <!-- 26 -->
      <g transform="translate(462.369493 406.196273) scale(0.1 -0.1)">
       <use xlink:href="#DejaVuSans-32"/>
       <use xlink:href="#DejaVuSans-36" x="63.623047"/>
      </g>
     </g>
    </g>
    <g id="xtick_27">
     <g id="line2d_27">
      <g>
       <use xlink:href="#m83b7b556c1" x="484.945399" y="391.597835" style="stroke: #000000; stroke-width: 0.8"/>
      </g>
     </g>
     <g id="text_27">
      <!-- 27 -->
      <g transform="translate(478.582899 406.196273) scale(0.1 -0.1)">
       <use xlink:href="#DejaVuSans-32"/>
       <use xlink:href="#DejaVuSans-37" x="63.623047"/>
      </g>
     </g>
    </g>
    <g id="xtick_28">
     <g id="line2d_28">
      <g>
       <use xlink:href="#m83b7b556c1" x="501.158804" y="391.597835" style="stroke: #000000; stroke-width: 0.8"/>
      </g>
     </g>
     <g id="text_28">
      <!-- 28 -->
      <g transform="translate(494.796304 406.196273) scale(0.1 -0.1)">
       <use xlink:href="#DejaVuSans-32"/>
       <use xlink:href="#DejaVuSans-38" x="63.623047"/>
      </g>
     </g>
    </g>
    <g id="xtick_29">
     <g id="line2d_29">
      <g>
       <use xlink:href="#m83b7b556c1" x="517.372209" y="391.597835" style="stroke: #000000; stroke-width: 0.8"/>
      </g>
     </g>
     <g id="text_29">
      <!-- 29 -->
      <g transform="translate(511.009709 406.196273) scale(0.1 -0.1)">
       <use xlink:href="#DejaVuSans-32"/>
       <use xlink:href="#DejaVuSans-39" x="63.623047"/>
      </g>
     </g>
    </g>
    <g id="xtick_30">
     <g id="line2d_30">
      <g>
       <use xlink:href="#m83b7b556c1" x="533.585614" y="391.597835" style="stroke: #000000; stroke-width: 0.8"/>
      </g>
     </g>
     <g id="text_30">
      <!-- 30 -->
      <g transform="translate(527.223114 406.196273) scale(0.1 -0.1)">
       <use xlink:href="#DejaVuSans-33"/>
       <use xlink:href="#DejaVuSans-30" x="63.623047"/>
      </g>
     </g>
    </g>
    <g id="xtick_31">
     <g id="line2d_31">
      <g>
       <use xlink:href="#m83b7b556c1" x="549.799019" y="391.597835" style="stroke: #000000; stroke-width: 0.8"/>
      </g>
     </g>
     <g id="text_31">
      <!-- 31 -->
      <g transform="translate(543.436519 406.196273) scale(0.1 -0.1)">
       <use xlink:href="#DejaVuSans-33"/>
       <use xlink:href="#DejaVuSans-31" x="63.623047"/>
      </g>
     </g>
    </g>
    <g id="xtick_32">
     <g id="line2d_32">
      <g>
       <use xlink:href="#m83b7b556c1" x="566.012424" y="391.597835" style="stroke: #000000; stroke-width: 0.8"/>
      </g>
     </g>
     <g id="text_32">
      <!-- 32 -->
      <g transform="translate(559.649924 406.196273) scale(0.1 -0.1)">
       <use xlink:href="#DejaVuSans-33"/>
       <use xlink:href="#DejaVuSans-32" x="63.623047"/>
      </g>
     </g>
    </g>
    <g id="xtick_33">
     <g id="line2d_33">
      <g>
       <use xlink:href="#m83b7b556c1" x="582.22583" y="391.597835" style="stroke: #000000; stroke-width: 0.8"/>
      </g>
     </g>
     <g id="text_33">
      <!-- 33 -->
      <g transform="translate(575.86333 406.196273) scale(0.1 -0.1)">
       <use xlink:href="#DejaVuSans-33"/>
       <use xlink:href="#DejaVuSans-33" x="63.623047"/>
      </g>
     </g>
    </g>
    <g id="xtick_34">
     <g id="line2d_34">
      <g>
       <use xlink:href="#m83b7b556c1" x="598.439235" y="391.597835" style="stroke: #000000; stroke-width: 0.8"/>
      </g>
     </g>
     <g id="text_34">
      <!-- 34 -->
      <g transform="translate(592.076735 406.196273) scale(0.1 -0.1)">
       <use xlink:href="#DejaVuSans-33"/>
       <use xlink:href="#DejaVuSans-34" x="63.623047"/>
      </g>
     </g>
    </g>
    <g id="xtick_35">
     <g id="line2d_35">
      <g>
       <use xlink:href="#m83b7b556c1" x="614.65264" y="391.597835" style="stroke: #000000; stroke-width: 0.8"/>
      </g>
     </g>
     <g id="text_35">
      <!-- 35 -->
      <g transform="translate(608.29014 406.196273) scale(0.1 -0.1)">
       <use xlink:href="#DejaVuSans-33"/>
       <use xlink:href="#DejaVuSans-35" x="63.623047"/>
      </g>
     </g>
    </g>
    <g id="xtick_36">
     <g id="line2d_36">
      <g>
       <use xlink:href="#m83b7b556c1" x="630.866045" y="391.597835" style="stroke: #000000; stroke-width: 0.8"/>
      </g>
     </g>
     <g id="text_36">
      <!-- 36 -->
      <g transform="translate(624.503545 406.196273) scale(0.1 -0.1)">
       <use xlink:href="#DejaVuSans-33"/>
       <use xlink:href="#DejaVuSans-36" x="63.623047"/>
      </g>
     </g>
    </g>
    <g id="xtick_37">
     <g id="line2d_37">
      <g>
       <use xlink:href="#m83b7b556c1" x="647.07945" y="391.597835" style="stroke: #000000; stroke-width: 0.8"/>
      </g>
     </g>
     <g id="text_37">
      <!-- 37 -->
      <g transform="translate(640.71695 406.196273) scale(0.1 -0.1)">
       <use xlink:href="#DejaVuSans-33"/>
       <use xlink:href="#DejaVuSans-37" x="63.623047"/>
      </g>
     </g>
    </g>
    <g id="xtick_38">
     <g id="line2d_38">
      <g>
       <use xlink:href="#m83b7b556c1" x="663.292855" y="391.597835" style="stroke: #000000; stroke-width: 0.8"/>
      </g>
     </g>
     <g id="text_38">
      <!-- 38 -->
      <g transform="translate(656.930355 406.196273) scale(0.1 -0.1)">
       <use xlink:href="#DejaVuSans-33"/>
       <use xlink:href="#DejaVuSans-38" x="63.623047"/>
      </g>
     </g>
    </g>
    <g id="xtick_39">
     <g id="line2d_39">
      <g>
       <use xlink:href="#m83b7b556c1" x="679.506261" y="391.597835" style="stroke: #000000; stroke-width: 0.8"/>
      </g>
     </g>
     <g id="text_39">
      <!-- 39 -->
      <g transform="translate(673.143761 406.196273) scale(0.1 -0.1)">
       <use xlink:href="#DejaVuSans-33"/>
       <use xlink:href="#DejaVuSans-39" x="63.623047"/>
      </g>
     </g>
    </g>
    <g id="text_40">
     <!-- Policy type -->
     <g transform="translate(324.555262 425.40606) scale(0.1728 -0.1728)">
      <defs>
       <path id="DejaVuSans-50" d="M 1259 4147 
L 1259 2394 
L 2053 2394 
Q 2494 2394 2734 2622 
Q 2975 2850 2975 3272 
Q 2975 3691 2734 3919 
Q 2494 4147 2053 4147 
L 1259 4147 
z
M 628 4666 
L 2053 4666 
Q 2838 4666 3239 4311 
Q 3641 3956 3641 3272 
Q 3641 2581 3239 2228 
Q 2838 1875 2053 1875 
L 1259 1875 
L 1259 0 
L 628 0 
L 628 4666 
z
" transform="scale(0.015625)"/>
       <path id="DejaVuSans-6f" d="M 1959 3097 
Q 1497 3097 1228 2736 
Q 959 2375 959 1747 
Q 959 1119 1226 758 
Q 1494 397 1959 397 
Q 2419 397 2687 759 
Q 2956 1122 2956 1747 
Q 2956 2369 2687 2733 
Q 2419 3097 1959 3097 
z
M 1959 3584 
Q 2709 3584 3137 3096 
Q 3566 2609 3566 1747 
Q 3566 888 3137 398 
Q 2709 -91 1959 -91 
Q 1206 -91 779 398 
Q 353 888 353 1747 
Q 353 2609 779 3096 
Q 1206 3584 1959 3584 
z
" transform="scale(0.015625)"/>
       <path id="DejaVuSans-6c" d="M 603 4863 
L 1178 4863 
L 1178 0 
L 603 0 
L 603 4863 
z
" transform="scale(0.015625)"/>
       <path id="DejaVuSans-69" d="M 603 3500 
L 1178 3500 
L 1178 0 
L 603 0 
L 603 3500 
z
M 603 4863 
L 1178 4863 
L 1178 4134 
L 603 4134 
L 603 4863 
z
" transform="scale(0.015625)"/>
       <path id="DejaVuSans-63" d="M 3122 3366 
L 3122 2828 
Q 2878 2963 2633 3030 
Q 2388 3097 2138 3097 
Q 1578 3097 1268 2742 
Q 959 2388 959 1747 
Q 959 1106 1268 751 
Q 1578 397 2138 397 
Q 2388 397 2633 464 
Q 2878 531 3122 666 
L 3122 134 
Q 2881 22 2623 -34 
Q 2366 -91 2075 -91 
Q 1284 -91 818 406 
Q 353 903 353 1747 
Q 353 2603 823 3093 
Q 1294 3584 2113 3584 
Q 2378 3584 2631 3529 
Q 2884 3475 3122 3366 
z
" transform="scale(0.015625)"/>
       <path id="DejaVuSans-79" d="M 2059 -325 
Q 1816 -950 1584 -1140 
Q 1353 -1331 966 -1331 
L 506 -1331 
L 506 -850 
L 844 -850 
Q 1081 -850 1212 -737 
Q 1344 -625 1503 -206 
L 1606 56 
L 191 3500 
L 800 3500 
L 1894 763 
L 2988 3500 
L 3597 3500 
L 2059 -325 
z
" transform="scale(0.015625)"/>
       <path id="DejaVuSans-20" transform="scale(0.015625)"/>
       <path id="DejaVuSans-74" d="M 1172 4494 
L 1172 3500 
L 2356 3500 
L 2356 3053 
L 1172 3053 
L 1172 1153 
Q 1172 725 1289 603 
Q 1406 481 1766 481 
L 2356 481 
L 2356 0 
L 1766 0 
Q 1100 0 847 248 
Q 594 497 594 1153 
L 594 3053 
L 172 3053 
L 172 3500 
L 594 3500 
L 594 4494 
L 1172 4494 
z
" transform="scale(0.015625)"/>
       <path id="DejaVuSans-70" d="M 1159 525 
L 1159 -1331 
L 581 -1331 
L 581 3500 
L 1159 3500 
L 1159 2969 
Q 1341 3281 1617 3432 
Q 1894 3584 2278 3584 
Q 2916 3584 3314 3078 
Q 3713 2572 3713 1747 
Q 3713 922 3314 415 
Q 2916 -91 2278 -91 
Q 1894 -91 1617 61 
Q 1341 213 1159 525 
z
M 3116 1747 
Q 3116 2381 2855 2742 
Q 2594 3103 2138 3103 
Q 1681 3103 1420 2742 
Q 1159 2381 1159 1747 
Q 1159 1113 1420 752 
Q 1681 391 2138 391 
Q 2594 391 2855 752 
Q 3116 1113 3116 1747 
z
" transform="scale(0.015625)"/>
       <path id="DejaVuSans-65" d="M 3597 1894 
L 3597 1613 
L 953 1613 
Q 991 1019 1311 708 
Q 1631 397 2203 397 
Q 2534 397 2845 478 
Q 3156 559 3463 722 
L 3463 178 
Q 3153 47 2828 -22 
Q 2503 -91 2169 -91 
Q 1331 -91 842 396 
Q 353 884 353 1716 
Q 353 2575 817 3079 
Q 1281 3584 2069 3584 
Q 2775 3584 3186 3129 
Q 3597 2675 3597 1894 
z
M 3022 2063 
Q 3016 2534 2758 2815 
Q 2500 3097 2075 3097 
Q 1594 3097 1305 2825 
Q 1016 2553 972 2059 
L 3022 2063 
z
" transform="scale(0.015625)"/>
      </defs>
      <use xlink:href="#DejaVuSans-50"/>
      <use xlink:href="#DejaVuSans-6f" x="56.677734"/>
      <use xlink:href="#DejaVuSans-6c" x="117.859375"/>
      <use xlink:href="#DejaVuSans-69" x="145.642578"/>
      <use xlink:href="#DejaVuSans-63" x="173.425781"/>
      <use xlink:href="#DejaVuSans-79" x="228.40625"/>
      <use xlink:href="#DejaVuSans-20" x="287.585938"/>
      <use xlink:href="#DejaVuSans-74" x="319.373047"/>
      <use xlink:href="#DejaVuSans-79" x="358.582031"/>
      <use xlink:href="#DejaVuSans-70" x="417.761719"/>
      <use xlink:href="#DejaVuSans-65" x="481.238281"/>
     </g>
    </g>
   </g>
   <g id="matplotlib.axis_2">
    <g id="ytick_1">
     <g id="line2d_40">
      <defs>
       <path id="mee1174498c" d="M 0 0 
L -3.5 0 
" style="stroke: #000000; stroke-width: 0.8"/>
      </defs>
      <g>
       <use xlink:href="#mee1174498c" x="25.903365" y="391.597835" style="stroke: #000000; stroke-width: 0.8"/>
      </g>
     </g>
     <g id="text_41">
      <!-- 0.0 -->
      <g transform="translate(3.00024 395.397054) scale(0.1 -0.1)">
       <defs>
        <path id="DejaVuSans-2e" d="M 684 794 
L 1344 794 
L 1344 0 
L 684 0 
L 684 794 
z
" transform="scale(0.015625)"/>
       </defs>
       <use xlink:href="#DejaVuSans-30"/>
       <use xlink:href="#DejaVuSans-2e" x="63.623047"/>
       <use xlink:href="#DejaVuSans-30" x="95.410156"/>
      </g>
     </g>
    </g>
    <g id="ytick_2">
     <g id="line2d_41">
      <g>
       <use xlink:href="#mee1174498c" x="25.903365" y="336.626638" style="stroke: #000000; stroke-width: 0.8"/>
      </g>
     </g>
     <g id="text_42">
      <!-- 0.1 -->
      <g transform="translate(3.00024 340.425857) scale(0.1 -0.1)">
       <use xlink:href="#DejaVuSans-30"/>
       <use xlink:href="#DejaVuSans-2e" x="63.623047"/>
       <use xlink:href="#DejaVuSans-31" x="95.410156"/>
      </g>
     </g>
    </g>
    <g id="ytick_3">
     <g id="line2d_42">
      <g>
       <use xlink:href="#mee1174498c" x="25.903365" y="281.655442" style="stroke: #000000; stroke-width: 0.8"/>
      </g>
     </g>
     <g id="text_43">
      <!-- 0.2 -->
      <g transform="translate(3.00024 285.454661) scale(0.1 -0.1)">
       <use xlink:href="#DejaVuSans-30"/>
       <use xlink:href="#DejaVuSans-2e" x="63.623047"/>
       <use xlink:href="#DejaVuSans-32" x="95.410156"/>
      </g>
     </g>
    </g>
    <g id="ytick_4">
     <g id="line2d_43">
      <g>
       <use xlink:href="#mee1174498c" x="25.903365" y="226.684245" style="stroke: #000000; stroke-width: 0.8"/>
      </g>
     </g>
     <g id="text_44">
      <!-- 0.3 -->
      <g transform="translate(3.00024 230.483464) scale(0.1 -0.1)">
       <use xlink:href="#DejaVuSans-30"/>
       <use xlink:href="#DejaVuSans-2e" x="63.623047"/>
       <use xlink:href="#DejaVuSans-33" x="95.410156"/>
      </g>
     </g>
    </g>
    <g id="ytick_5">
     <g id="line2d_44">
      <g>
       <use xlink:href="#mee1174498c" x="25.903365" y="171.713049" style="stroke: #000000; stroke-width: 0.8"/>
      </g>
     </g>
     <g id="text_45">
      <!-- 0.4 -->
      <g transform="translate(3.00024 175.512267) scale(0.1 -0.1)">
       <use xlink:href="#DejaVuSans-30"/>
       <use xlink:href="#DejaVuSans-2e" x="63.623047"/>
       <use xlink:href="#DejaVuSans-34" x="95.410156"/>
      </g>
     </g>
    </g>
    <g id="ytick_6">
     <g id="line2d_45">
      <g>
       <use xlink:href="#mee1174498c" x="25.903365" y="116.741852" style="stroke: #000000; stroke-width: 0.8"/>
      </g>
     </g>
     <g id="text_46">
      <!-- 0.5 -->
      <g transform="translate(3.00024 120.541071) scale(0.1 -0.1)">
       <use xlink:href="#DejaVuSans-30"/>
       <use xlink:href="#DejaVuSans-2e" x="63.623047"/>
       <use xlink:href="#DejaVuSans-35" x="95.410156"/>
      </g>
     </g>
    </g>
    <g id="ytick_7">
     <g id="line2d_46">
      <g>
       <use xlink:href="#mee1174498c" x="25.903365" y="61.770655" style="stroke: #000000; stroke-width: 0.8"/>
      </g>
     </g>
     <g id="text_47">
      <!-- 0.6 -->
      <g transform="translate(3.00024 65.569874) scale(0.1 -0.1)">
       <use xlink:href="#DejaVuSans-30"/>
       <use xlink:href="#DejaVuSans-2e" x="63.623047"/>
       <use xlink:href="#DejaVuSans-36" x="95.410156"/>
      </g>
     </g>
    </g>
    <g id="ytick_8">
     <g id="line2d_47">
      <g>
       <use xlink:href="#mee1174498c" x="25.903365" y="6.799459" style="stroke: #000000; stroke-width: 0.8"/>
      </g>
     </g>
     <g id="text_48">
      <!-- 0.7 -->
      <g transform="translate(3.00024 10.598678) scale(0.1 -0.1)">
       <use xlink:href="#DejaVuSans-30"/>
       <use xlink:href="#DejaVuSans-2e" x="63.623047"/>
       <use xlink:href="#DejaVuSans-37" x="95.410156"/>
      </g>
     </g>
    </g>
   </g>
   <g id="patch_120">
    <path d="M 25.903365 391.597835 
L 25.903365 6.799459 
" style="fill: none; stroke: #000000; stroke-width: 0.8; stroke-linejoin: miter; stroke-linecap: square"/>
   </g>
   <g id="patch_121">
    <path d="M 716.99976 391.597835 
L 716.99976 6.799459 
" style="fill: none; stroke: #000000; stroke-width: 0.8; stroke-linejoin: miter; stroke-linecap: square"/>
   </g>
   <g id="patch_122">
    <path d="M 25.903365 391.597835 
L 716.99976 391.597835 
" style="fill: none; stroke: #000000; stroke-width: 0.8; stroke-linejoin: miter; stroke-linecap: square"/>
   </g>
   <g id="patch_123">
    <path d="M 25.903365 6.799459 
L 716.99976 6.799459 
" style="fill: none; stroke: #000000; stroke-width: 0.8; stroke-linejoin: miter; stroke-linecap: square"/>
   </g>
   <g id="legend_1">
    <g id="patch_124">
     <path d="M 402.069135 34.013209 
L 708.59976 34.013209 
Q 710.99976 34.013209 710.99976 31.613209 
L 710.99976 15.199459 
Q 710.99976 12.799459 708.59976 12.799459 
L 402.069135 12.799459 
Q 399.669135 12.799459 399.669135 15.199459 
L 399.669135 31.613209 
Q 399.669135 34.013209 402.069135 34.013209 
z
" style="fill: #ffffff; opacity: 0.8; stroke: #cccccc; stroke-linejoin: miter"/>
    </g>
    <g id="patch_125">
     <path d="M 404.469135 26.717584 
L 428.469135 26.717584 
L 428.469135 18.317584 
L 404.469135 18.317584 
z
" style="fill: #6698c4"/>
    </g>
    <g id="text_49">
     <!-- Distance+ -->
     <g transform="translate(438.069135 26.717584) scale(0.12 -0.12)">
      <defs>
       <path id="DejaVuSans-44" d="M 1259 4147 
L 1259 519 
L 2022 519 
Q 2988 519 3436 956 
Q 3884 1394 3884 2338 
Q 3884 3275 3436 3711 
Q 2988 4147 2022 4147 
L 1259 4147 
z
M 628 4666 
L 1925 4666 
Q 3281 4666 3915 4102 
Q 4550 3538 4550 2338 
Q 4550 1131 3912 565 
Q 3275 0 1925 0 
L 628 0 
L 628 4666 
z
" transform="scale(0.015625)"/>
       <path id="DejaVuSans-73" d="M 2834 3397 
L 2834 2853 
Q 2591 2978 2328 3040 
Q 2066 3103 1784 3103 
Q 1356 3103 1142 2972 
Q 928 2841 928 2578 
Q 928 2378 1081 2264 
Q 1234 2150 1697 2047 
L 1894 2003 
Q 2506 1872 2764 1633 
Q 3022 1394 3022 966 
Q 3022 478 2636 193 
Q 2250 -91 1575 -91 
Q 1294 -91 989 -36 
Q 684 19 347 128 
L 347 722 
Q 666 556 975 473 
Q 1284 391 1588 391 
Q 1994 391 2212 530 
Q 2431 669 2431 922 
Q 2431 1156 2273 1281 
Q 2116 1406 1581 1522 
L 1381 1569 
Q 847 1681 609 1914 
Q 372 2147 372 2553 
Q 372 3047 722 3315 
Q 1072 3584 1716 3584 
Q 2034 3584 2315 3537 
Q 2597 3491 2834 3397 
z
" transform="scale(0.015625)"/>
       <path id="DejaVuSans-61" d="M 2194 1759 
Q 1497 1759 1228 1600 
Q 959 1441 959 1056 
Q 959 750 1161 570 
Q 1363 391 1709 391 
Q 2188 391 2477 730 
Q 2766 1069 2766 1631 
L 2766 1759 
L 2194 1759 
z
M 3341 1997 
L 3341 0 
L 2766 0 
L 2766 531 
Q 2569 213 2275 61 
Q 1981 -91 1556 -91 
Q 1019 -91 701 211 
Q 384 513 384 1019 
Q 384 1609 779 1909 
Q 1175 2209 1959 2209 
L 2766 2209 
L 2766 2266 
Q 2766 2663 2505 2880 
Q 2244 3097 1772 3097 
Q 1472 3097 1187 3025 
Q 903 2953 641 2809 
L 641 3341 
Q 956 3463 1253 3523 
Q 1550 3584 1831 3584 
Q 2591 3584 2966 3190 
Q 3341 2797 3341 1997 
z
" transform="scale(0.015625)"/>
       <path id="DejaVuSans-6e" d="M 3513 2113 
L 3513 0 
L 2938 0 
L 2938 2094 
Q 2938 2591 2744 2837 
Q 2550 3084 2163 3084 
Q 1697 3084 1428 2787 
Q 1159 2491 1159 1978 
L 1159 0 
L 581 0 
L 581 3500 
L 1159 3500 
L 1159 2956 
Q 1366 3272 1645 3428 
Q 1925 3584 2291 3584 
Q 2894 3584 3203 3211 
Q 3513 2838 3513 2113 
z
" transform="scale(0.015625)"/>
       <path id="DejaVuSans-2b" d="M 2944 4013 
L 2944 2272 
L 4684 2272 
L 4684 1741 
L 2944 1741 
L 2944 0 
L 2419 0 
L 2419 1741 
L 678 1741 
L 678 2272 
L 2419 2272 
L 2419 4013 
L 2944 4013 
z
" transform="scale(0.015625)"/>
      </defs>
      <use xlink:href="#DejaVuSans-44"/>
      <use xlink:href="#DejaVuSans-69" x="77.001953"/>
      <use xlink:href="#DejaVuSans-73" x="104.785156"/>
      <use xlink:href="#DejaVuSans-74" x="156.884766"/>
      <use xlink:href="#DejaVuSans-61" x="196.09375"/>
      <use xlink:href="#DejaVuSans-6e" x="257.373047"/>
      <use xlink:href="#DejaVuSans-63" x="320.751953"/>
      <use xlink:href="#DejaVuSans-65" x="375.732422"/>
      <use xlink:href="#DejaVuSans-2b" x="437.255859"/>
     </g>
    </g>
    <g id="patch_126">
     <path d="M 524.59476 26.717584 
L 548.59476 26.717584 
L 548.59476 18.317584 
L 524.59476 18.317584 
z
" style="fill: #ffe69a"/>
    </g>
    <g id="text_50">
     <!-- Distance- -->
     <g transform="translate(558.19476 26.717584) scale(0.12 -0.12)">
      <defs>
       <path id="DejaVuSans-2d" d="M 313 2009 
L 1997 2009 
L 1997 1497 
L 313 1497 
L 313 2009 
z
" transform="scale(0.015625)"/>
      </defs>
      <use xlink:href="#DejaVuSans-44"/>
      <use xlink:href="#DejaVuSans-69" x="77.001953"/>
      <use xlink:href="#DejaVuSans-73" x="104.785156"/>
      <use xlink:href="#DejaVuSans-74" x="156.884766"/>
      <use xlink:href="#DejaVuSans-61" x="196.09375"/>
      <use xlink:href="#DejaVuSans-6e" x="257.373047"/>
      <use xlink:href="#DejaVuSans-63" x="320.751953"/>
      <use xlink:href="#DejaVuSans-65" x="375.732422"/>
      <use xlink:href="#DejaVuSans-2d" x="437.255859"/>
     </g>
    </g>
    <g id="patch_127">
     <path d="M 638.994135 26.717584 
L 662.994135 26.717584 
L 662.994135 18.317584 
L 638.994135 18.317584 
z
" style="fill: #fab28c"/>
    </g>
    <g id="text_51">
     <!-- Score -->
     <g transform="translate(672.594135 26.717584) scale(0.12 -0.12)">
      <defs>
       <path id="DejaVuSans-53" d="M 3425 4513 
L 3425 3897 
Q 3066 4069 2747 4153 
Q 2428 4238 2131 4238 
Q 1616 4238 1336 4038 
Q 1056 3838 1056 3469 
Q 1056 3159 1242 3001 
Q 1428 2844 1947 2747 
L 2328 2669 
Q 3034 2534 3370 2195 
Q 3706 1856 3706 1288 
Q 3706 609 3251 259 
Q 2797 -91 1919 -91 
Q 1588 -91 1214 -16 
Q 841 59 441 206 
L 441 856 
Q 825 641 1194 531 
Q 1563 422 1919 422 
Q 2459 422 2753 634 
Q 3047 847 3047 1241 
Q 3047 1584 2836 1778 
Q 2625 1972 2144 2069 
L 1759 2144 
Q 1053 2284 737 2584 
Q 422 2884 422 3419 
Q 422 4038 858 4394 
Q 1294 4750 2059 4750 
Q 2388 4750 2728 4690 
Q 3069 4631 3425 4513 
z
" transform="scale(0.015625)"/>
       <path id="DejaVuSans-72" d="M 2631 2963 
Q 2534 3019 2420 3045 
Q 2306 3072 2169 3072 
Q 1681 3072 1420 2755 
Q 1159 2438 1159 1844 
L 1159 0 
L 581 0 
L 581 3500 
L 1159 3500 
L 1159 2956 
Q 1341 3275 1631 3429 
Q 1922 3584 2338 3584 
Q 2397 3584 2469 3576 
Q 2541 3569 2628 3553 
L 2631 2963 
z
" transform="scale(0.015625)"/>
      </defs>
      <use xlink:href="#DejaVuSans-53"/>
      <use xlink:href="#DejaVuSans-63" x="63.476562"/>
      <use xlink:href="#DejaVuSans-6f" x="118.457031"/>
      <use xlink:href="#DejaVuSans-72" x="179.638672"/>
      <use xlink:href="#DejaVuSans-65" x="218.501953"/>
     </g>
    </g>
   </g>
  </g>
 </g>
 <defs>
  <clipPath id="pee7763e416">
   <rect x="25.903365" y="6.799459" width="691.096395" height="384.798376"/>
  </clipPath>
 </defs>
</svg>
