<?xml version="1.0" encoding="utf-8" standalone="no"?>
<!DOCTYPE svg PUBLIC "-//W3C//DTD SVG 1.1//EN"
  "http://www.w3.org/Graphics/SVG/1.1/DTD/svg11.dtd">
<svg xmlns:xlink="http://www.w3.org/1999/xlink" width="720pt" height="432pt" viewBox="0 0 720 432" xmlns="http://www.w3.org/2000/svg" version="1.1">
 <metadata>
  <rdf:RDF xmlns:dc="http://purl.org/dc/elements/1.1/" xmlns:cc="http://creativecommons.org/ns#" xmlns:rdf="http://www.w3.org/1999/02/22-rdf-syntax-ns#">
   <cc:Work>
    <dc:type rdf:resource="http://purl.org/dc/dcmitype/StillImage"/>
    <dc:date>2023-02-21T04:13:46.045753</dc:date>
    <dc:format>image/svg+xml</dc:format>
    <dc:creator>
     <cc:Agent>
      <dc:title>Matplotlib v3.6.3, https://matplotlib.org/</dc:title>
     </cc:Agent>
    </dc:creator>
   </cc:Work>
  </rdf:RDF>
 </metadata>
 <defs>
  <style type="text/css">*{stroke-linejoin: round; stroke-linecap: butt}</style>
 </defs>
 <g id="figure_1">
  <g id="patch_1">
   <path d="M 0 432 
L 720 432 
L 720 0 
L 0 0 
z
" style="fill: #ffffff"/>
  </g>
  <g id="axes_1">
   <g id="patch_2">
    <path d="M 25.903365 391.597835 
L 716.99976 391.597835 
L 716.99976 6.799459 
L 25.903365 6.799459 
z
" style="fill: #ffffff"/>
   </g>
   <g id="patch_3">
    <path d="M 57.316837 391.597835 
L 63.416541 391.597835 
L 63.416541 325.668473 
L 57.316837 325.668473 
z
" clip-path="url(#pde067b3f91)" style="fill: #6698c4"/>
   </g>
   <g id="patch_4">
    <path d="M 81.715651 391.597835 
L 87.815354 391.597835 
L 87.815354 326.254515 
L 81.715651 326.254515 
z
" clip-path="url(#pde067b3f91)" style="fill: #6698c4"/>
   </g>
   <g id="patch_5">
    <path d="M 106.114465 391.597835 
L 112.214168 391.597835 
L 112.214168 326.64134 
L 106.114465 326.64134 
z
" clip-path="url(#pde067b3f91)" style="fill: #6698c4"/>
   </g>
   <g id="patch_6">
    <path d="M 130.513278 391.597835 
L 136.612982 391.597835 
L 136.612982 332.466025 
L 130.513278 332.466025 
z
" clip-path="url(#pde067b3f91)" style="fill: #6698c4"/>
   </g>
   <g id="patch_7">
    <path d="M 154.912092 391.597835 
L 161.011795 391.597835 
L 161.011795 343.547013 
L 154.912092 343.547013 
z
" clip-path="url(#pde067b3f91)" style="fill: #6698c4"/>
   </g>
   <g id="patch_8">
    <path d="M 179.310905 391.597835 
L 185.410609 391.597835 
L 185.410609 347.86015 
L 179.310905 347.86015 
z
" clip-path="url(#pde067b3f91)" style="fill: #6698c4"/>
   </g>
   <g id="patch_9">
    <path d="M 203.709719 391.597835 
L 209.809422 391.597835 
L 209.809422 326.689521 
L 203.709719 326.689521 
z
" clip-path="url(#pde067b3f91)" style="fill: #6698c4"/>
   </g>
   <g id="patch_10">
    <path d="M 228.108533 391.597835 
L 234.208236 391.597835 
L 234.208236 326.80843 
L 228.108533 326.80843 
z
" clip-path="url(#pde067b3f91)" style="fill: #6698c4"/>
   </g>
   <g id="patch_11">
    <path d="M 252.507346 391.597835 
L 258.60705 391.597835 
L 258.60705 326.848115 
L 252.507346 326.848115 
z
" clip-path="url(#pde067b3f91)" style="fill: #6698c4"/>
   </g>
   <g id="patch_12">
    <path d="M 276.90616 391.597835 
L 283.005863 391.597835 
L 283.005863 331.544556 
L 276.90616 331.544556 
z
" clip-path="url(#pde067b3f91)" style="fill: #6698c4"/>
   </g>
   <g id="patch_13">
    <path d="M 301.304973 391.597835 
L 307.404677 391.597835 
L 307.404677 338.00383 
L 301.304973 338.00383 
z
" clip-path="url(#pde067b3f91)" style="fill: #6698c4"/>
   </g>
   <g id="patch_14">
    <path d="M 325.703787 391.597835 
L 331.80349 391.597835 
L 331.80349 342.276076 
L 325.703787 342.276076 
z
" clip-path="url(#pde067b3f91)" style="fill: #6698c4"/>
   </g>
   <g id="patch_15">
    <path d="M 350.102601 391.597835 
L 356.202304 391.597835 
L 356.202304 343.764074 
L 350.102601 343.764074 
z
" clip-path="url(#pde067b3f91)" style="fill: #6698c4"/>
   </g>
   <g id="patch_16">
    <path d="M 374.501414 391.597835 
L 380.601118 391.597835 
L 380.601118 326.080008 
L 374.501414 326.080008 
z
" clip-path="url(#pde067b3f91)" style="fill: #6698c4"/>
   </g>
   <g id="patch_17">
    <path d="M 398.900228 391.597835 
L 404.999931 391.597835 
L 404.999931 326.841764 
L 398.900228 326.841764 
z
" clip-path="url(#pde067b3f91)" style="fill: #6698c4"/>
   </g>
   <g id="patch_18">
    <path d="M 423.299041 391.597835 
L 429.398745 391.597835 
L 429.398745 325.551762 
L 423.299041 325.551762 
z
" clip-path="url(#pde067b3f91)" style="fill: #6698c4"/>
   </g>
   <g id="patch_19">
    <path d="M 447.697855 391.597835 
L 453.797558 391.597835 
L 453.797558 325.851835 
L 447.697855 325.851835 
z
" clip-path="url(#pde067b3f91)" style="fill: #6698c4"/>
   </g>
   <g id="patch_20">
    <path d="M 472.096669 391.597835 
L 478.196372 391.597835 
L 478.196372 325.523075 
L 472.096669 325.523075 
z
" clip-path="url(#pde067b3f91)" style="fill: #6698c4"/>
   </g>
   <g id="patch_21">
    <path d="M 496.495482 391.597835 
L 502.595186 391.597835 
L 502.595186 326.096735 
L 496.495482 326.096735 
z
" clip-path="url(#pde067b3f91)" style="fill: #6698c4"/>
   </g>
   <g id="patch_22">
    <path d="M 520.894296 391.597835 
L 526.993999 391.597835 
L 526.993999 326.509587 
L 520.894296 326.509587 
z
" clip-path="url(#pde067b3f91)" style="fill: #6698c4"/>
   </g>
   <g id="patch_23">
    <path d="M 545.293109 391.597835 
L 551.392813 391.597835 
L 551.392813 326.75856 
L 545.293109 326.75856 
z
" clip-path="url(#pde067b3f91)" style="fill: #6698c4"/>
   </g>
   <g id="patch_24">
    <path d="M 569.691923 391.597835 
L 575.791626 391.597835 
L 575.791626 326.833084 
L 569.691923 326.833084 
z
" clip-path="url(#pde067b3f91)" style="fill: #6698c4"/>
   </g>
   <g id="patch_25">
    <path d="M 594.090737 391.597835 
L 600.19044 391.597835 
L 600.19044 326.807187 
L 594.090737 326.807187 
z
" clip-path="url(#pde067b3f91)" style="fill: #6698c4"/>
   </g>
   <g id="patch_26">
    <path d="M 618.48955 391.597835 
L 624.589254 391.597835 
L 624.589254 326.764095 
L 618.48955 326.764095 
z
" clip-path="url(#pde067b3f91)" style="fill: #6698c4"/>
   </g>
   <g id="patch_27">
    <path d="M 642.888364 391.597835 
L 648.988067 391.597835 
L 648.988067 326.703842 
L 642.888364 326.703842 
z
" clip-path="url(#pde067b3f91)" style="fill: #6698c4"/>
   </g>
   <g id="patch_28">
    <path d="M 667.287177 391.597835 
L 673.386881 391.597835 
L 673.386881 326.626475 
L 667.287177 326.626475 
z
" clip-path="url(#pde067b3f91)" style="fill: #6698c4"/>
   </g>
   <g id="patch_29">
    <path d="M 63.416541 391.597835 
L 69.516244 391.597835 
L 69.516244 369.496503 
L 63.416541 369.496503 
z
" clip-path="url(#pde067b3f91)" style="fill: #ffe69a"/>
   </g>
   <g id="patch_30">
    <path d="M 87.815354 391.597835 
L 93.915058 391.597835 
L 93.915058 369.19844 
L 87.815354 369.19844 
z
" clip-path="url(#pde067b3f91)" style="fill: #ffe69a"/>
   </g>
   <g id="patch_31">
    <path d="M 112.214168 391.597835 
L 118.313871 391.597835 
L 118.313871 368.327146 
L 112.214168 368.327146 
z
" clip-path="url(#pde067b3f91)" style="fill: #ffe69a"/>
   </g>
   <g id="patch_32">
    <path d="M 136.612982 391.597835 
L 142.712685 391.597835 
L 142.712685 365.043279 
L 136.612982 365.043279 
z
" clip-path="url(#pde067b3f91)" style="fill: #ffe69a"/>
   </g>
   <g id="patch_33">
    <path d="M 161.011795 391.597835 
L 167.111499 391.597835 
L 167.111499 353.944707 
L 161.011795 353.944707 
z
" clip-path="url(#pde067b3f91)" style="fill: #ffe69a"/>
   </g>
   <g id="patch_34">
    <path d="M 185.410609 391.597835 
L 191.510312 391.597835 
L 191.510312 337.540785 
L 185.410609 337.540785 
z
" clip-path="url(#pde067b3f91)" style="fill: #ffe69a"/>
   </g>
   <g id="patch_35">
    <path d="M 209.809422 391.597835 
L 215.909126 391.597835 
L 215.909126 366.525127 
L 209.809422 366.525127 
z
" clip-path="url(#pde067b3f91)" style="fill: #ffe69a"/>
   </g>
   <g id="patch_36">
    <path d="M 234.208236 391.597835 
L 240.307939 391.597835 
L 240.307939 366.422819 
L 234.208236 366.422819 
z
" clip-path="url(#pde067b3f91)" style="fill: #ffe69a"/>
   </g>
   <g id="patch_37">
    <path d="M 258.60705 391.597835 
L 264.706753 391.597835 
L 264.706753 366.11836 
L 258.60705 366.11836 
z
" clip-path="url(#pde067b3f91)" style="fill: #ffe69a"/>
   </g>
   <g id="patch_38">
    <path d="M 283.005863 391.597835 
L 289.105567 391.597835 
L 289.105567 365.257918 
L 283.005863 365.257918 
z
" clip-path="url(#pde067b3f91)" style="fill: #ffe69a"/>
   </g>
   <g id="patch_39">
    <path d="M 307.404677 391.597835 
L 313.50438 391.597835 
L 313.50438 359.73995 
L 307.404677 359.73995 
z
" clip-path="url(#pde067b3f91)" style="fill: #ffe69a"/>
   </g>
   <g id="patch_40">
    <path d="M 331.80349 391.597835 
L 337.903194 391.597835 
L 337.903194 351.181925 
L 331.80349 351.181925 
z
" clip-path="url(#pde067b3f91)" style="fill: #ffe69a"/>
   </g>
   <g id="patch_41">
    <path d="M 356.202304 391.597835 
L 362.302007 391.597835 
L 362.302007 341.129221 
L 356.202304 341.129221 
z
" clip-path="url(#pde067b3f91)" style="fill: #ffe69a"/>
   </g>
   <g id="patch_42">
    <path d="M 380.601118 391.597835 
L 386.700821 391.597835 
L 386.700821 368.304832 
L 380.601118 368.304832 
z
" clip-path="url(#pde067b3f91)" style="fill: #ffe69a"/>
   </g>
   <g id="patch_43">
    <path d="M 404.999931 391.597835 
L 411.099635 391.597835 
L 411.099635 366.264044 
L 404.999931 366.264044 
z
" clip-path="url(#pde067b3f91)" style="fill: #ffe69a"/>
   </g>
   <g id="patch_44">
    <path d="M 429.398745 391.597835 
L 435.498448 391.597835 
L 435.498448 369.847756 
L 429.398745 369.847756 
z
" clip-path="url(#pde067b3f91)" style="fill: #ffe69a"/>
   </g>
   <g id="patch_45">
    <path d="M 453.797558 391.597835 
L 459.897262 391.597835 
L 459.897262 369.787231 
L 453.797558 369.787231 
z
" clip-path="url(#pde067b3f91)" style="fill: #ffe69a"/>
   </g>
   <g id="patch_46">
    <path d="M 478.196372 391.597835 
L 484.296075 391.597835 
L 484.296075 369.93506 
L 478.196372 369.93506 
z
" clip-path="url(#pde067b3f91)" style="fill: #ffe69a"/>
   </g>
   <g id="patch_47">
    <path d="M 502.595186 391.597835 
L 508.694889 391.597835 
L 508.694889 369.687594 
L 502.595186 369.687594 
z
" clip-path="url(#pde067b3f91)" style="fill: #ffe69a"/>
   </g>
   <g id="patch_48">
    <path d="M 526.993999 391.597835 
L 533.093703 391.597835 
L 533.093703 368.961424 
L 526.993999 368.961424 
z
" clip-path="url(#pde067b3f91)" style="fill: #ffe69a"/>
   </g>
   <g id="patch_49">
    <path d="M 551.392813 391.597835 
L 557.492516 391.597835 
L 557.492516 367.80033 
L 551.392813 367.80033 
z
" clip-path="url(#pde067b3f91)" style="fill: #ffe69a"/>
   </g>
   <g id="patch_50">
    <path d="M 575.791626 391.597835 
L 581.89133 391.597835 
L 581.89133 366.463834 
L 575.791626 366.463834 
z
" clip-path="url(#pde067b3f91)" style="fill: #ffe69a"/>
   </g>
   <g id="patch_51">
    <path d="M 600.19044 391.597835 
L 606.290143 391.597835 
L 606.290143 366.619636 
L 600.19044 366.619636 
z
" clip-path="url(#pde067b3f91)" style="fill: #ffe69a"/>
   </g>
   <g id="patch_52">
    <path d="M 624.589254 391.597835 
L 630.688957 391.597835 
L 630.688957 366.731521 
L 624.589254 366.731521 
z
" clip-path="url(#pde067b3f91)" style="fill: #ffe69a"/>
   </g>
   <g id="patch_53">
    <path d="M 648.988067 391.597835 
L 655.087771 391.597835 
L 655.087771 366.798894 
L 648.988067 366.798894 
z
" clip-path="url(#pde067b3f91)" style="fill: #ffe69a"/>
   </g>
   <g id="patch_54">
    <path d="M 673.386881 391.597835 
L 679.486584 391.597835 
L 679.486584 366.821393 
L 673.386881 366.821393 
z
" clip-path="url(#pde067b3f91)" style="fill: #ffe69a"/>
   </g>
   <g id="patch_55">
    <path d="M 69.516244 391.597835 
L 75.615948 391.597835 
L 75.615948 253.58499 
L 69.516244 253.58499 
z
" clip-path="url(#pde067b3f91)" style="fill: #fab28c"/>
   </g>
   <g id="patch_56">
    <path d="M 93.915058 391.597835 
L 100.014761 391.597835 
L 100.014761 251.264642 
L 93.915058 251.264642 
z
" clip-path="url(#pde067b3f91)" style="fill: #fab28c"/>
   </g>
   <g id="patch_57">
    <path d="M 118.313871 391.597835 
L 124.413575 391.597835 
L 124.413575 246.606511 
L 118.313871 246.606511 
z
" clip-path="url(#pde067b3f91)" style="fill: #fab28c"/>
   </g>
   <g id="patch_58">
    <path d="M 142.712685 391.597835 
L 148.812388 391.597835 
L 148.812388 221.239846 
L 142.712685 221.239846 
z
" clip-path="url(#pde067b3f91)" style="fill: #fab28c"/>
   </g>
   <g id="patch_59">
    <path d="M 167.111499 391.597835 
L 173.211202 391.597835 
L 173.211202 150.087672 
L 167.111499 150.087672 
z
" clip-path="url(#pde067b3f91)" style="fill: #fab28c"/>
   </g>
   <g id="patch_60">
    <path d="M 191.510312 391.597835 
L 197.610016 391.597835 
L 197.610016 87.738867 
L 191.510312 87.738867 
z
" clip-path="url(#pde067b3f91)" style="fill: #fab28c"/>
   </g>
   <g id="patch_61">
    <path d="M 215.909126 391.597835 
L 222.008829 391.597835 
L 222.008829 238.423673 
L 215.909126 238.423673 
z
" clip-path="url(#pde067b3f91)" style="fill: #fab28c"/>
   </g>
   <g id="patch_62">
    <path d="M 240.307939 391.597835 
L 246.407643 391.597835 
L 246.407643 237.770273 
L 240.307939 237.770273 
z
" clip-path="url(#pde067b3f91)" style="fill: #fab28c"/>
   </g>
   <g id="patch_63">
    <path d="M 264.706753 391.597835 
L 270.806456 391.597835 
L 270.806456 236.366788 
L 264.706753 236.366788 
z
" clip-path="url(#pde067b3f91)" style="fill: #fab28c"/>
   </g>
   <g id="patch_64">
    <path d="M 289.105567 391.597835 
L 295.20527 391.597835 
L 295.20527 223.999363 
L 289.105567 223.999363 
z
" clip-path="url(#pde067b3f91)" style="fill: #fab28c"/>
   </g>
   <g id="patch_65">
    <path d="M 313.50438 391.597835 
L 319.604084 391.597835 
L 319.604084 186.656076 
L 313.50438 186.656076 
z
" clip-path="url(#pde067b3f91)" style="fill: #fab28c"/>
   </g>
   <g id="patch_66">
    <path d="M 337.903194 391.597835 
L 344.002897 391.597835 
L 344.002897 144.019424 
L 337.903194 144.019424 
z
" clip-path="url(#pde067b3f91)" style="fill: #fab28c"/>
   </g>
   <g id="patch_67">
    <path d="M 362.302007 391.597835 
L 368.401711 391.597835 
L 368.401711 109.374732 
L 362.302007 109.374732 
z
" clip-path="url(#pde067b3f91)" style="fill: #fab28c"/>
   </g>
   <g id="patch_68">
    <path d="M 386.700821 391.597835 
L 392.800524 391.597835 
L 392.800524 247.421245 
L 386.700821 247.421245 
z
" clip-path="url(#pde067b3f91)" style="fill: #fab28c"/>
   </g>
   <g id="patch_69">
    <path d="M 411.099635 391.597835 
L 417.199338 391.597835 
L 417.199338 237.015644 
L 411.099635 237.015644 
z
" clip-path="url(#pde067b3f91)" style="fill: #fab28c"/>
   </g>
   <g id="patch_70">
    <path d="M 435.498448 391.597835 
L 441.598152 391.597835 
L 441.598152 255.41557 
L 435.498448 255.41557 
z
" clip-path="url(#pde067b3f91)" style="fill: #fab28c"/>
   </g>
   <g id="patch_71">
    <path d="M 459.897262 391.597835 
L 465.996965 391.597835 
L 465.996965 254.662991 
L 459.897262 254.662991 
z
" clip-path="url(#pde067b3f91)" style="fill: #fab28c"/>
   </g>
   <g id="patch_72">
    <path d="M 484.296075 391.597835 
L 490.395779 391.597835 
L 490.395779 255.871585 
L 484.296075 255.871585 
z
" clip-path="url(#pde067b3f91)" style="fill: #fab28c"/>
   </g>
   <g id="patch_73">
    <path d="M 508.694889 391.597835 
L 514.794592 391.597835 
L 514.794592 253.808833 
L 508.694889 253.808833 
z
" clip-path="url(#pde067b3f91)" style="fill: #fab28c"/>
   </g>
   <g id="patch_74">
    <path d="M 533.093703 391.597835 
L 539.193406 391.597835 
L 539.193406 249.750534 
L 533.093703 249.750534 
z
" clip-path="url(#pde067b3f91)" style="fill: #fab28c"/>
   </g>
   <g id="patch_75">
    <path d="M 557.492516 391.597835 
L 563.59222 391.597835 
L 563.59222 244.009293 
L 557.492516 244.009293 
z
" clip-path="url(#pde067b3f91)" style="fill: #fab28c"/>
   </g>
   <g id="patch_76">
    <path d="M 581.89133 391.597835 
L 587.991033 391.597835 
L 587.991033 237.908704 
L 581.89133 237.908704 
z
" clip-path="url(#pde067b3f91)" style="fill: #fab28c"/>
   </g>
   <g id="patch_77">
    <path d="M 606.290143 391.597835 
L 612.389847 391.597835 
L 612.389847 238.640375 
L 606.290143 238.640375 
z
" clip-path="url(#pde067b3f91)" style="fill: #fab28c"/>
   </g>
   <g id="patch_78">
    <path d="M 630.688957 391.597835 
L 636.78866 391.597835 
L 636.78866 239.208737 
L 630.688957 239.208737 
z
" clip-path="url(#pde067b3f91)" style="fill: #fab28c"/>
   </g>
   <g id="patch_79">
    <path d="M 655.087771 391.597835 
L 661.187474 391.597835 
L 661.187474 239.609559 
L 655.087771 239.609559 
z
" clip-path="url(#pde067b3f91)" style="fill: #fab28c"/>
   </g>
   <g id="patch_80">
    <path d="M 679.486584 391.597835 
L 685.586287 391.597835 
L 685.586287 239.840284 
L 679.486584 239.840284 
z
" clip-path="url(#pde067b3f91)" style="fill: #fab28c"/>
   </g>
   <g id="matplotlib.axis_1">
    <g id="xtick_1">
     <g id="line2d_1">
      <defs>
       <path id="m71d4351769" d="M 0 0 
L 0 3.5 
" style="stroke: #000000; stroke-width: 0.8"/>
      </defs>
      <g>
       <use xlink:href="#m71d4351769" x="66.466393" y="391.597835" style="stroke: #000000; stroke-width: 0.8"/>
      </g>
     </g>
     <g id="text_1">
      <!-- 1 -->
      <g transform="translate(63.285143 406.196273) scale(0.1 -0.1)">
       <defs>
        <path id="DejaVuSans-31" d="M 794 531 
L 1825 531 
L 1825 4091 
L 703 3866 
L 703 4441 
L 1819 4666 
L 2450 4666 
L 2450 531 
L 3481 531 
L 3481 0 
L 794 0 
L 794 531 
z
" transform="scale(0.015625)"/>
       </defs>
       <use xlink:href="#DejaVuSans-31"/>
      </g>
     </g>
    </g>
    <g id="xtick_2">
     <g id="line2d_2">
      <g>
       <use xlink:href="#m71d4351769" x="90.865206" y="391.597835" style="stroke: #000000; stroke-width: 0.8"/>
      </g>
     </g>
     <g id="text_2">
      <!-- 2 -->
      <g transform="translate(87.683956 406.196273) scale(0.1 -0.1)">
       <defs>
        <path id="DejaVuSans-32" d="M 1228 531 
L 3431 531 
L 3431 0 
L 469 0 
L 469 531 
Q 828 903 1448 1529 
Q 2069 2156 2228 2338 
Q 2531 2678 2651 2914 
Q 2772 3150 2772 3378 
Q 2772 3750 2511 3984 
Q 2250 4219 1831 4219 
Q 1534 4219 1204 4116 
Q 875 4013 500 3803 
L 500 4441 
Q 881 4594 1212 4672 
Q 1544 4750 1819 4750 
Q 2544 4750 2975 4387 
Q 3406 4025 3406 3419 
Q 3406 3131 3298 2873 
Q 3191 2616 2906 2266 
Q 2828 2175 2409 1742 
Q 1991 1309 1228 531 
z
" transform="scale(0.015625)"/>
       </defs>
       <use xlink:href="#DejaVuSans-32"/>
      </g>
     </g>
    </g>
    <g id="xtick_3">
     <g id="line2d_3">
      <g>
       <use xlink:href="#m71d4351769" x="115.26402" y="391.597835" style="stroke: #000000; stroke-width: 0.8"/>
      </g>
     </g>
     <g id="text_3">
      <!-- 3 -->
      <g transform="translate(112.08277 406.196273) scale(0.1 -0.1)">
       <defs>
        <path id="DejaVuSans-33" d="M 2597 2516 
Q 3050 2419 3304 2112 
Q 3559 1806 3559 1356 
Q 3559 666 3084 287 
Q 2609 -91 1734 -91 
Q 1441 -91 1130 -33 
Q 819 25 488 141 
L 488 750 
Q 750 597 1062 519 
Q 1375 441 1716 441 
Q 2309 441 2620 675 
Q 2931 909 2931 1356 
Q 2931 1769 2642 2001 
Q 2353 2234 1838 2234 
L 1294 2234 
L 1294 2753 
L 1863 2753 
Q 2328 2753 2575 2939 
Q 2822 3125 2822 3475 
Q 2822 3834 2567 4026 
Q 2313 4219 1838 4219 
Q 1578 4219 1281 4162 
Q 984 4106 628 3988 
L 628 4550 
Q 988 4650 1302 4700 
Q 1616 4750 1894 4750 
Q 2613 4750 3031 4423 
Q 3450 4097 3450 3541 
Q 3450 3153 3228 2886 
Q 3006 2619 2597 2516 
z
" transform="scale(0.015625)"/>
       </defs>
       <use xlink:href="#DejaVuSans-33"/>
      </g>
     </g>
    </g>
    <g id="xtick_4">
     <g id="line2d_4">
      <g>
       <use xlink:href="#m71d4351769" x="139.662833" y="391.597835" style="stroke: #000000; stroke-width: 0.8"/>
      </g>
     </g>
     <g id="text_4">
      <!-- 4 -->
      <g transform="translate(136.481583 406.196273) scale(0.1 -0.1)">
       <defs>
        <path id="DejaVuSans-34" d="M 2419 4116 
L 825 1625 
L 2419 1625 
L 2419 4116 
z
M 2253 4666 
L 3047 4666 
L 3047 1625 
L 3713 1625 
L 3713 1100 
L 3047 1100 
L 3047 0 
L 2419 0 
L 2419 1100 
L 313 1100 
L 313 1709 
L 2253 4666 
z
" transform="scale(0.015625)"/>
       </defs>
       <use xlink:href="#DejaVuSans-34"/>
      </g>
     </g>
    </g>
    <g id="xtick_5">
     <g id="line2d_5">
      <g>
       <use xlink:href="#m71d4351769" x="164.061647" y="391.597835" style="stroke: #000000; stroke-width: 0.8"/>
      </g>
     </g>
     <g id="text_5">
      <!-- 5 -->
      <g transform="translate(160.880397 406.196273) scale(0.1 -0.1)">
       <defs>
        <path id="DejaVuSans-35" d="M 691 4666 
L 3169 4666 
L 3169 4134 
L 1269 4134 
L 1269 2991 
Q 1406 3038 1543 3061 
Q 1681 3084 1819 3084 
Q 2600 3084 3056 2656 
Q 3513 2228 3513 1497 
Q 3513 744 3044 326 
Q 2575 -91 1722 -91 
Q 1428 -91 1123 -41 
Q 819 9 494 109 
L 494 744 
Q 775 591 1075 516 
Q 1375 441 1709 441 
Q 2250 441 2565 725 
Q 2881 1009 2881 1497 
Q 2881 1984 2565 2268 
Q 2250 2553 1709 2553 
Q 1456 2553 1204 2497 
Q 953 2441 691 2322 
L 691 4666 
z
" transform="scale(0.015625)"/>
       </defs>
       <use xlink:href="#DejaVuSans-35"/>
      </g>
     </g>
    </g>
    <g id="xtick_6">
     <g id="line2d_6">
      <g>
       <use xlink:href="#m71d4351769" x="188.460461" y="391.597835" style="stroke: #000000; stroke-width: 0.8"/>
      </g>
     </g>
     <g id="text_6">
      <!-- 6 -->
      <g transform="translate(185.279211 406.196273) scale(0.1 -0.1)">
       <defs>
        <path id="DejaVuSans-36" d="M 2113 2584 
Q 1688 2584 1439 2293 
Q 1191 2003 1191 1497 
Q 1191 994 1439 701 
Q 1688 409 2113 409 
Q 2538 409 2786 701 
Q 3034 994 3034 1497 
Q 3034 2003 2786 2293 
Q 2538 2584 2113 2584 
z
M 3366 4563 
L 3366 3988 
Q 3128 4100 2886 4159 
Q 2644 4219 2406 4219 
Q 1781 4219 1451 3797 
Q 1122 3375 1075 2522 
Q 1259 2794 1537 2939 
Q 1816 3084 2150 3084 
Q 2853 3084 3261 2657 
Q 3669 2231 3669 1497 
Q 3669 778 3244 343 
Q 2819 -91 2113 -91 
Q 1303 -91 875 529 
Q 447 1150 447 2328 
Q 447 3434 972 4092 
Q 1497 4750 2381 4750 
Q 2619 4750 2861 4703 
Q 3103 4656 3366 4563 
z
" transform="scale(0.015625)"/>
       </defs>
       <use xlink:href="#DejaVuSans-36"/>
      </g>
     </g>
    </g>
    <g id="xtick_7">
     <g id="line2d_7">
      <g>
       <use xlink:href="#m71d4351769" x="212.859274" y="391.597835" style="stroke: #000000; stroke-width: 0.8"/>
      </g>
     </g>
     <g id="text_7">
      <!-- 7 -->
      <g transform="translate(209.678024 406.196273) scale(0.1 -0.1)">
       <defs>
        <path id="DejaVuSans-37" d="M 525 4666 
L 3525 4666 
L 3525 4397 
L 1831 0 
L 1172 0 
L 2766 4134 
L 525 4134 
L 525 4666 
z
" transform="scale(0.015625)"/>
       </defs>
       <use xlink:href="#DejaVuSans-37"/>
      </g>
     </g>
    </g>
    <g id="xtick_8">
     <g id="line2d_8">
      <g>
       <use xlink:href="#m71d4351769" x="237.258088" y="391.597835" style="stroke: #000000; stroke-width: 0.8"/>
      </g>
     </g>
     <g id="text_8">
      <!-- 8 -->
      <g transform="translate(234.076838 406.196273) scale(0.1 -0.1)">
       <defs>
        <path id="DejaVuSans-38" d="M 2034 2216 
Q 1584 2216 1326 1975 
Q 1069 1734 1069 1313 
Q 1069 891 1326 650 
Q 1584 409 2034 409 
Q 2484 409 2743 651 
Q 3003 894 3003 1313 
Q 3003 1734 2745 1975 
Q 2488 2216 2034 2216 
z
M 1403 2484 
Q 997 2584 770 2862 
Q 544 3141 544 3541 
Q 544 4100 942 4425 
Q 1341 4750 2034 4750 
Q 2731 4750 3128 4425 
Q 3525 4100 3525 3541 
Q 3525 3141 3298 2862 
Q 3072 2584 2669 2484 
Q 3125 2378 3379 2068 
Q 3634 1759 3634 1313 
Q 3634 634 3220 271 
Q 2806 -91 2034 -91 
Q 1263 -91 848 271 
Q 434 634 434 1313 
Q 434 1759 690 2068 
Q 947 2378 1403 2484 
z
M 1172 3481 
Q 1172 3119 1398 2916 
Q 1625 2713 2034 2713 
Q 2441 2713 2670 2916 
Q 2900 3119 2900 3481 
Q 2900 3844 2670 4047 
Q 2441 4250 2034 4250 
Q 1625 4250 1398 4047 
Q 1172 3844 1172 3481 
z
" transform="scale(0.015625)"/>
       </defs>
       <use xlink:href="#DejaVuSans-38"/>
      </g>
     </g>
    </g>
    <g id="xtick_9">
     <g id="line2d_9">
      <g>
       <use xlink:href="#m71d4351769" x="261.656901" y="391.597835" style="stroke: #000000; stroke-width: 0.8"/>
      </g>
     </g>
     <g id="text_9">
      <!-- 9 -->
      <g transform="translate(258.475651 406.196273) scale(0.1 -0.1)">
       <defs>
        <path id="DejaVuSans-39" d="M 703 97 
L 703 672 
Q 941 559 1184 500 
Q 1428 441 1663 441 
Q 2288 441 2617 861 
Q 2947 1281 2994 2138 
Q 2813 1869 2534 1725 
Q 2256 1581 1919 1581 
Q 1219 1581 811 2004 
Q 403 2428 403 3163 
Q 403 3881 828 4315 
Q 1253 4750 1959 4750 
Q 2769 4750 3195 4129 
Q 3622 3509 3622 2328 
Q 3622 1225 3098 567 
Q 2575 -91 1691 -91 
Q 1453 -91 1209 -44 
Q 966 3 703 97 
z
M 1959 2075 
Q 2384 2075 2632 2365 
Q 2881 2656 2881 3163 
Q 2881 3666 2632 3958 
Q 2384 4250 1959 4250 
Q 1534 4250 1286 3958 
Q 1038 3666 1038 3163 
Q 1038 2656 1286 2365 
Q 1534 2075 1959 2075 
z
" transform="scale(0.015625)"/>
       </defs>
       <use xlink:href="#DejaVuSans-39"/>
      </g>
     </g>
    </g>
    <g id="xtick_10">
     <g id="line2d_10">
      <g>
       <use xlink:href="#m71d4351769" x="286.055715" y="391.597835" style="stroke: #000000; stroke-width: 0.8"/>
      </g>
     </g>
     <g id="text_10">
      <!-- 10 -->
      <g transform="translate(279.693215 406.196273) scale(0.1 -0.1)">
       <defs>
        <path id="DejaVuSans-30" d="M 2034 4250 
Q 1547 4250 1301 3770 
Q 1056 3291 1056 2328 
Q 1056 1369 1301 889 
Q 1547 409 2034 409 
Q 2525 409 2770 889 
Q 3016 1369 3016 2328 
Q 3016 3291 2770 3770 
Q 2525 4250 2034 4250 
z
M 2034 4750 
Q 2819 4750 3233 4129 
Q 3647 3509 3647 2328 
Q 3647 1150 3233 529 
Q 2819 -91 2034 -91 
Q 1250 -91 836 529 
Q 422 1150 422 2328 
Q 422 3509 836 4129 
Q 1250 4750 2034 4750 
z
" transform="scale(0.015625)"/>
       </defs>
       <use xlink:href="#DejaVuSans-31"/>
       <use xlink:href="#DejaVuSans-30" x="63.623047"/>
      </g>
     </g>
    </g>
    <g id="xtick_11">
     <g id="line2d_11">
      <g>
       <use xlink:href="#m71d4351769" x="310.454529" y="391.597835" style="stroke: #000000; stroke-width: 0.8"/>
      </g>
     </g>
     <g id="text_11">
      <!-- 11 -->
      <g transform="translate(304.092029 406.196273) scale(0.1 -0.1)">
       <use xlink:href="#DejaVuSans-31"/>
       <use xlink:href="#DejaVuSans-31" x="63.623047"/>
      </g>
     </g>
    </g>
    <g id="xtick_12">
     <g id="line2d_12">
      <g>
       <use xlink:href="#m71d4351769" x="334.853342" y="391.597835" style="stroke: #000000; stroke-width: 0.8"/>
      </g>
     </g>
     <g id="text_12">
      <!-- 12 -->
      <g transform="translate(328.490842 406.196273) scale(0.1 -0.1)">
       <use xlink:href="#DejaVuSans-31"/>
       <use xlink:href="#DejaVuSans-32" x="63.623047"/>
      </g>
     </g>
    </g>
    <g id="xtick_13">
     <g id="line2d_13">
      <g>
       <use xlink:href="#m71d4351769" x="359.252156" y="391.597835" style="stroke: #000000; stroke-width: 0.8"/>
      </g>
     </g>
     <g id="text_13">
      <!-- 13 -->
      <g transform="translate(352.889656 406.196273) scale(0.1 -0.1)">
       <use xlink:href="#DejaVuSans-31"/>
       <use xlink:href="#DejaVuSans-33" x="63.623047"/>
      </g>
     </g>
    </g>
    <g id="xtick_14">
     <g id="line2d_14">
      <g>
       <use xlink:href="#m71d4351769" x="383.650969" y="391.597835" style="stroke: #000000; stroke-width: 0.8"/>
      </g>
     </g>
     <g id="text_14">
      <!-- 14 -->
      <g transform="translate(377.288469 406.196273) scale(0.1 -0.1)">
       <use xlink:href="#DejaVuSans-31"/>
       <use xlink:href="#DejaVuSans-34" x="63.623047"/>
      </g>
     </g>
    </g>
    <g id="xtick_15">
     <g id="line2d_15">
      <g>
       <use xlink:href="#m71d4351769" x="408.049783" y="391.597835" style="stroke: #000000; stroke-width: 0.8"/>
      </g>
     </g>
     <g id="text_15">
      <!-- 15 -->
      <g transform="translate(401.687283 406.196273) scale(0.1 -0.1)">
       <use xlink:href="#DejaVuSans-31"/>
       <use xlink:href="#DejaVuSans-35" x="63.623047"/>
      </g>
     </g>
    </g>
    <g id="xtick_16">
     <g id="line2d_16">
      <g>
       <use xlink:href="#m71d4351769" x="432.448596" y="391.597835" style="stroke: #000000; stroke-width: 0.8"/>
      </g>
     </g>
     <g id="text_16">
      <!-- 16 -->
      <g transform="translate(426.086096 406.196273) scale(0.1 -0.1)">
       <use xlink:href="#DejaVuSans-31"/>
       <use xlink:href="#DejaVuSans-36" x="63.623047"/>
      </g>
     </g>
    </g>
    <g id="xtick_17">
     <g id="line2d_17">
      <g>
       <use xlink:href="#m71d4351769" x="456.84741" y="391.597835" style="stroke: #000000; stroke-width: 0.8"/>
      </g>
     </g>
     <g id="text_17">
      <!-- 17 -->
      <g transform="translate(450.48491 406.196273) scale(0.1 -0.1)">
       <use xlink:href="#DejaVuSans-31"/>
       <use xlink:href="#DejaVuSans-37" x="63.623047"/>
      </g>
     </g>
    </g>
    <g id="xtick_18">
     <g id="line2d_18">
      <g>
       <use xlink:href="#m71d4351769" x="481.246224" y="391.597835" style="stroke: #000000; stroke-width: 0.8"/>
      </g>
     </g>
     <g id="text_18">
      <!-- 18 -->
      <g transform="translate(474.883724 406.196273) scale(0.1 -0.1)">
       <use xlink:href="#DejaVuSans-31"/>
       <use xlink:href="#DejaVuSans-38" x="63.623047"/>
      </g>
     </g>
    </g>
    <g id="xtick_19">
     <g id="line2d_19">
      <g>
       <use xlink:href="#m71d4351769" x="505.645037" y="391.597835" style="stroke: #000000; stroke-width: 0.8"/>
      </g>
     </g>
     <g id="text_19">
      <!-- 19 -->
      <g transform="translate(499.282537 406.196273) scale(0.1 -0.1)">
       <use xlink:href="#DejaVuSans-31"/>
       <use xlink:href="#DejaVuSans-39" x="63.623047"/>
      </g>
     </g>
    </g>
    <g id="xtick_20">
     <g id="line2d_20">
      <g>
       <use xlink:href="#m71d4351769" x="530.043851" y="391.597835" style="stroke: #000000; stroke-width: 0.8"/>
      </g>
     </g>
     <g id="text_20">
      <!-- 20 -->
      <g transform="translate(523.681351 406.196273) scale(0.1 -0.1)">
       <use xlink:href="#DejaVuSans-32"/>
       <use xlink:href="#DejaVuSans-30" x="63.623047"/>
      </g>
     </g>
    </g>
    <g id="xtick_21">
     <g id="line2d_21">
      <g>
       <use xlink:href="#m71d4351769" x="554.442664" y="391.597835" style="stroke: #000000; stroke-width: 0.8"/>
      </g>
     </g>
     <g id="text_21">
      <!-- 21 -->
      <g transform="translate(548.080164 406.196273) scale(0.1 -0.1)">
       <use xlink:href="#DejaVuSans-32"/>
       <use xlink:href="#DejaVuSans-31" x="63.623047"/>
      </g>
     </g>
    </g>
    <g id="xtick_22">
     <g id="line2d_22">
      <g>
       <use xlink:href="#m71d4351769" x="578.841478" y="391.597835" style="stroke: #000000; stroke-width: 0.8"/>
      </g>
     </g>
     <g id="text_22">
      <!-- 22 -->
      <g transform="translate(572.478978 406.196273) scale(0.1 -0.1)">
       <use xlink:href="#DejaVuSans-32"/>
       <use xlink:href="#DejaVuSans-32" x="63.623047"/>
      </g>
     </g>
    </g>
    <g id="xtick_23">
     <g id="line2d_23">
      <g>
       <use xlink:href="#m71d4351769" x="603.240292" y="391.597835" style="stroke: #000000; stroke-width: 0.8"/>
      </g>
     </g>
     <g id="text_23">
      <!-- 23 -->
      <g transform="translate(596.877792 406.196273) scale(0.1 -0.1)">
       <use xlink:href="#DejaVuSans-32"/>
       <use xlink:href="#DejaVuSans-33" x="63.623047"/>
      </g>
     </g>
    </g>
    <g id="xtick_24">
     <g id="line2d_24">
      <g>
       <use xlink:href="#m71d4351769" x="627.639105" y="391.597835" style="stroke: #000000; stroke-width: 0.8"/>
      </g>
     </g>
     <g id="text_24">
      <!-- 24 -->
      <g transform="translate(621.276605 406.196273) scale(0.1 -0.1)">
       <use xlink:href="#DejaVuSans-32"/>
       <use xlink:href="#DejaVuSans-34" x="63.623047"/>
      </g>
     </g>
    </g>
    <g id="xtick_25">
     <g id="line2d_25">
      <g>
       <use xlink:href="#m71d4351769" x="652.037919" y="391.597835" style="stroke: #000000; stroke-width: 0.8"/>
      </g>
     </g>
     <g id="text_25">
      <!-- 25 -->
      <g transform="translate(645.675419 406.196273) scale(0.1 -0.1)">
       <use xlink:href="#DejaVuSans-32"/>
       <use xlink:href="#DejaVuSans-35" x="63.623047"/>
      </g>
     </g>
    </g>
    <g id="xtick_26">
     <g id="line2d_26">
      <g>
       <use xlink:href="#m71d4351769" x="676.436732" y="391.597835" style="stroke: #000000; stroke-width: 0.8"/>
      </g>
     </g>
     <g id="text_26">
      <!-- 26 -->
      <g transform="translate(670.074232 406.196273) scale(0.1 -0.1)">
       <use xlink:href="#DejaVuSans-32"/>
       <use xlink:href="#DejaVuSans-36" x="63.623047"/>
      </g>
     </g>
    </g>
    <g id="text_27">
     <!-- Policy type -->
     <g transform="translate(324.555262 425.40606) scale(0.1728 -0.1728)">
      <defs>
       <path id="DejaVuSans-50" d="M 1259 4147 
L 1259 2394 
L 2053 2394 
Q 2494 2394 2734 2622 
Q 2975 2850 2975 3272 
Q 2975 3691 2734 3919 
Q 2494 4147 2053 4147 
L 1259 4147 
z
M 628 4666 
L 2053 4666 
Q 2838 4666 3239 4311 
Q 3641 3956 3641 3272 
Q 3641 2581 3239 2228 
Q 2838 1875 2053 1875 
L 1259 1875 
L 1259 0 
L 628 0 
L 628 4666 
z
" transform="scale(0.015625)"/>
       <path id="DejaVuSans-6f" d="M 1959 3097 
Q 1497 3097 1228 2736 
Q 959 2375 959 1747 
Q 959 1119 1226 758 
Q 1494 397 1959 397 
Q 2419 397 2687 759 
Q 2956 1122 2956 1747 
Q 2956 2369 2687 2733 
Q 2419 3097 1959 3097 
z
M 1959 3584 
Q 2709 3584 3137 3096 
Q 3566 2609 3566 1747 
Q 3566 888 3137 398 
Q 2709 -91 1959 -91 
Q 1206 -91 779 398 
Q 353 888 353 1747 
Q 353 2609 779 3096 
Q 1206 3584 1959 3584 
z
" transform="scale(0.015625)"/>
       <path id="DejaVuSans-6c" d="M 603 4863 
L 1178 4863 
L 1178 0 
L 603 0 
L 603 4863 
z
" transform="scale(0.015625)"/>
       <path id="DejaVuSans-69" d="M 603 3500 
L 1178 3500 
L 1178 0 
L 603 0 
L 603 3500 
z
M 603 4863 
L 1178 4863 
L 1178 4134 
L 603 4134 
L 603 4863 
z
" transform="scale(0.015625)"/>
       <path id="DejaVuSans-63" d="M 3122 3366 
L 3122 2828 
Q 2878 2963 2633 3030 
Q 2388 3097 2138 3097 
Q 1578 3097 1268 2742 
Q 959 2388 959 1747 
Q 959 1106 1268 751 
Q 1578 397 2138 397 
Q 2388 397 2633 464 
Q 2878 531 3122 666 
L 3122 134 
Q 2881 22 2623 -34 
Q 2366 -91 2075 -91 
Q 1284 -91 818 406 
Q 353 903 353 1747 
Q 353 2603 823 3093 
Q 1294 3584 2113 3584 
Q 2378 3584 2631 3529 
Q 2884 3475 3122 3366 
z
" transform="scale(0.015625)"/>
       <path id="DejaVuSans-79" d="M 2059 -325 
Q 1816 -950 1584 -1140 
Q 1353 -1331 966 -1331 
L 506 -1331 
L 506 -850 
L 844 -850 
Q 1081 -850 1212 -737 
Q 1344 -625 1503 -206 
L 1606 56 
L 191 3500 
L 800 3500 
L 1894 763 
L 2988 3500 
L 3597 3500 
L 2059 -325 
z
" transform="scale(0.015625)"/>
       <path id="DejaVuSans-20" transform="scale(0.015625)"/>
       <path id="DejaVuSans-74" d="M 1172 4494 
L 1172 3500 
L 2356 3500 
L 2356 3053 
L 1172 3053 
L 1172 1153 
Q 1172 725 1289 603 
Q 1406 481 1766 481 
L 2356 481 
L 2356 0 
L 1766 0 
Q 1100 0 847 248 
Q 594 497 594 1153 
L 594 3053 
L 172 3053 
L 172 3500 
L 594 3500 
L 594 4494 
L 1172 4494 
z
" transform="scale(0.015625)"/>
       <path id="DejaVuSans-70" d="M 1159 525 
L 1159 -1331 
L 581 -1331 
L 581 3500 
L 1159 3500 
L 1159 2969 
Q 1341 3281 1617 3432 
Q 1894 3584 2278 3584 
Q 2916 3584 3314 3078 
Q 3713 2572 3713 1747 
Q 3713 922 3314 415 
Q 2916 -91 2278 -91 
Q 1894 -91 1617 61 
Q 1341 213 1159 525 
z
M 3116 1747 
Q 3116 2381 2855 2742 
Q 2594 3103 2138 3103 
Q 1681 3103 1420 2742 
Q 1159 2381 1159 1747 
Q 1159 1113 1420 752 
Q 1681 391 2138 391 
Q 2594 391 2855 752 
Q 3116 1113 3116 1747 
z
" transform="scale(0.015625)"/>
       <path id="DejaVuSans-65" d="M 3597 1894 
L 3597 1613 
L 953 1613 
Q 991 1019 1311 708 
Q 1631 397 2203 397 
Q 2534 397 2845 478 
Q 3156 559 3463 722 
L 3463 178 
Q 3153 47 2828 -22 
Q 2503 -91 2169 -91 
Q 1331 -91 842 396 
Q 353 884 353 1716 
Q 353 2575 817 3079 
Q 1281 3584 2069 3584 
Q 2775 3584 3186 3129 
Q 3597 2675 3597 1894 
z
M 3022 2063 
Q 3016 2534 2758 2815 
Q 2500 3097 2075 3097 
Q 1594 3097 1305 2825 
Q 1016 2553 972 2059 
L 3022 2063 
z
" transform="scale(0.015625)"/>
      </defs>
      <use xlink:href="#DejaVuSans-50"/>
      <use xlink:href="#DejaVuSans-6f" x="56.677734"/>
      <use xlink:href="#DejaVuSans-6c" x="117.859375"/>
      <use xlink:href="#DejaVuSans-69" x="145.642578"/>
      <use xlink:href="#DejaVuSans-63" x="173.425781"/>
      <use xlink:href="#DejaVuSans-79" x="228.40625"/>
      <use xlink:href="#DejaVuSans-20" x="287.585938"/>
      <use xlink:href="#DejaVuSans-74" x="319.373047"/>
      <use xlink:href="#DejaVuSans-79" x="358.582031"/>
      <use xlink:href="#DejaVuSans-70" x="417.761719"/>
      <use xlink:href="#DejaVuSans-65" x="481.238281"/>
     </g>
    </g>
   </g>
   <g id="matplotlib.axis_2">
    <g id="ytick_1">
     <g id="line2d_27">
      <defs>
       <path id="md7cc508e3b" d="M 0 0 
L -3.5 0 
" style="stroke: #000000; stroke-width: 0.8"/>
      </defs>
      <g>
       <use xlink:href="#md7cc508e3b" x="25.903365" y="391.597835" style="stroke: #000000; stroke-width: 0.8"/>
      </g>
     </g>
     <g id="text_28">
      <!-- 0.0 -->
      <g transform="translate(3.00024 395.397054) scale(0.1 -0.1)">
       <defs>
        <path id="DejaVuSans-2e" d="M 684 794 
L 1344 794 
L 1344 0 
L 684 0 
L 684 794 
z
" transform="scale(0.015625)"/>
       </defs>
       <use xlink:href="#DejaVuSans-30"/>
       <use xlink:href="#DejaVuSans-2e" x="63.623047"/>
       <use xlink:href="#DejaVuSans-30" x="95.410156"/>
      </g>
     </g>
    </g>
    <g id="ytick_2">
     <g id="line2d_28">
      <g>
       <use xlink:href="#md7cc508e3b" x="25.903365" y="336.626638" style="stroke: #000000; stroke-width: 0.8"/>
      </g>
     </g>
     <g id="text_29">
      <!-- 0.1 -->
      <g transform="translate(3.00024 340.425857) scale(0.1 -0.1)">
       <use xlink:href="#DejaVuSans-30"/>
       <use xlink:href="#DejaVuSans-2e" x="63.623047"/>
       <use xlink:href="#DejaVuSans-31" x="95.410156"/>
      </g>
     </g>
    </g>
    <g id="ytick_3">
     <g id="line2d_29">
      <g>
       <use xlink:href="#md7cc508e3b" x="25.903365" y="281.655442" style="stroke: #000000; stroke-width: 0.8"/>
      </g>
     </g>
     <g id="text_30">
      <!-- 0.2 -->
      <g transform="translate(3.00024 285.454661) scale(0.1 -0.1)">
       <use xlink:href="#DejaVuSans-30"/>
       <use xlink:href="#DejaVuSans-2e" x="63.623047"/>
       <use xlink:href="#DejaVuSans-32" x="95.410156"/>
      </g>
     </g>
    </g>
    <g id="ytick_4">
     <g id="line2d_30">
      <g>
       <use xlink:href="#md7cc508e3b" x="25.903365" y="226.684245" style="stroke: #000000; stroke-width: 0.8"/>
      </g>
     </g>
     <g id="text_31">
      <!-- 0.3 -->
      <g transform="translate(3.00024 230.483464) scale(0.1 -0.1)">
       <use xlink:href="#DejaVuSans-30"/>
       <use xlink:href="#DejaVuSans-2e" x="63.623047"/>
       <use xlink:href="#DejaVuSans-33" x="95.410156"/>
      </g>
     </g>
    </g>
    <g id="ytick_5">
     <g id="line2d_31">
      <g>
       <use xlink:href="#md7cc508e3b" x="25.903365" y="171.713049" style="stroke: #000000; stroke-width: 0.8"/>
      </g>
     </g>
     <g id="text_32">
      <!-- 0.4 -->
      <g transform="translate(3.00024 175.512267) scale(0.1 -0.1)">
       <use xlink:href="#DejaVuSans-30"/>
       <use xlink:href="#DejaVuSans-2e" x="63.623047"/>
       <use xlink:href="#DejaVuSans-34" x="95.410156"/>
      </g>
     </g>
    </g>
    <g id="ytick_6">
     <g id="line2d_32">
      <g>
       <use xlink:href="#md7cc508e3b" x="25.903365" y="116.741852" style="stroke: #000000; stroke-width: 0.8"/>
      </g>
     </g>
     <g id="text_33">
      <!-- 0.5 -->
      <g transform="translate(3.00024 120.541071) scale(0.1 -0.1)">
       <use xlink:href="#DejaVuSans-30"/>
       <use xlink:href="#DejaVuSans-2e" x="63.623047"/>
       <use xlink:href="#DejaVuSans-35" x="95.410156"/>
      </g>
     </g>
    </g>
    <g id="ytick_7">
     <g id="line2d_33">
      <g>
       <use xlink:href="#md7cc508e3b" x="25.903365" y="61.770655" style="stroke: #000000; stroke-width: 0.8"/>
      </g>
     </g>
     <g id="text_34">
      <!-- 0.6 -->
      <g transform="translate(3.00024 65.569874) scale(0.1 -0.1)">
       <use xlink:href="#DejaVuSans-30"/>
       <use xlink:href="#DejaVuSans-2e" x="63.623047"/>
       <use xlink:href="#DejaVuSans-36" x="95.410156"/>
      </g>
     </g>
    </g>
    <g id="ytick_8">
     <g id="line2d_34">
      <g>
       <use xlink:href="#md7cc508e3b" x="25.903365" y="6.799459" style="stroke: #000000; stroke-width: 0.8"/>
      </g>
     </g>
     <g id="text_35">
      <!-- 0.7 -->
      <g transform="translate(3.00024 10.598678) scale(0.1 -0.1)">
       <use xlink:href="#DejaVuSans-30"/>
       <use xlink:href="#DejaVuSans-2e" x="63.623047"/>
       <use xlink:href="#DejaVuSans-37" x="95.410156"/>
      </g>
     </g>
    </g>
   </g>
   <g id="patch_81">
    <path d="M 25.903365 391.597835 
L 25.903365 6.799459 
" style="fill: none; stroke: #000000; stroke-width: 0.8; stroke-linejoin: miter; stroke-linecap: square"/>
   </g>
   <g id="patch_82">
    <path d="M 716.99976 391.597835 
L 716.99976 6.799459 
" style="fill: none; stroke: #000000; stroke-width: 0.8; stroke-linejoin: miter; stroke-linecap: square"/>
   </g>
   <g id="patch_83">
    <path d="M 25.903365 391.597835 
L 716.99976 391.597835 
" style="fill: none; stroke: #000000; stroke-width: 0.8; stroke-linejoin: miter; stroke-linecap: square"/>
   </g>
   <g id="patch_84">
    <path d="M 25.903365 6.799459 
L 716.99976 6.799459 
" style="fill: none; stroke: #000000; stroke-width: 0.8; stroke-linejoin: miter; stroke-linecap: square"/>
   </g>
   <g id="text_36">
    <!-- 0.2511 -->
    <g transform="translate(75.325471 250.58499) rotate(-90) scale(0.1 -0.1)">
     <use xlink:href="#DejaVuSans-30"/>
     <use xlink:href="#DejaVuSans-2e" x="63.623047"/>
     <use xlink:href="#DejaVuSans-32" x="95.410156"/>
     <use xlink:href="#DejaVuSans-35" x="159.033203"/>
     <use xlink:href="#DejaVuSans-31" x="222.65625"/>
     <use xlink:href="#DejaVuSans-31" x="286.279297"/>
    </g>
   </g>
   <g id="text_37">
    <!-- 0.2553 -->
    <g transform="translate(99.724285 248.264642) rotate(-90) scale(0.1 -0.1)">
     <use xlink:href="#DejaVuSans-30"/>
     <use xlink:href="#DejaVuSans-2e" x="63.623047"/>
     <use xlink:href="#DejaVuSans-32" x="95.410156"/>
     <use xlink:href="#DejaVuSans-35" x="159.033203"/>
     <use xlink:href="#DejaVuSans-35" x="222.65625"/>
     <use xlink:href="#DejaVuSans-33" x="286.279297"/>
    </g>
   </g>
   <g id="text_38">
    <!-- 0.2638 -->
    <g transform="translate(124.123098 243.606511) rotate(-90) scale(0.1 -0.1)">
     <use xlink:href="#DejaVuSans-30"/>
     <use xlink:href="#DejaVuSans-2e" x="63.623047"/>
     <use xlink:href="#DejaVuSans-32" x="95.410156"/>
     <use xlink:href="#DejaVuSans-36" x="159.033203"/>
     <use xlink:href="#DejaVuSans-33" x="222.65625"/>
     <use xlink:href="#DejaVuSans-38" x="286.279297"/>
    </g>
   </g>
   <g id="text_39">
    <!-- 0.3099 -->
    <g transform="translate(148.521912 218.239846) rotate(-90) scale(0.1 -0.1)">
     <use xlink:href="#DejaVuSans-30"/>
     <use xlink:href="#DejaVuSans-2e" x="63.623047"/>
     <use xlink:href="#DejaVuSans-33" x="95.410156"/>
     <use xlink:href="#DejaVuSans-30" x="159.033203"/>
     <use xlink:href="#DejaVuSans-39" x="222.65625"/>
     <use xlink:href="#DejaVuSans-39" x="286.279297"/>
    </g>
   </g>
   <g id="text_40">
    <!-- 0.4393 -->
    <g transform="translate(172.920725 147.087672) rotate(-90) scale(0.1 -0.1)">
     <use xlink:href="#DejaVuSans-30"/>
     <use xlink:href="#DejaVuSans-2e" x="63.623047"/>
     <use xlink:href="#DejaVuSans-34" x="95.410156"/>
     <use xlink:href="#DejaVuSans-33" x="159.033203"/>
     <use xlink:href="#DejaVuSans-39" x="222.65625"/>
     <use xlink:href="#DejaVuSans-33" x="286.279297"/>
    </g>
   </g>
   <g id="text_41">
    <!-- 0.5528 -->
    <g transform="translate(197.319539 84.738867) rotate(-90) scale(0.1 -0.1)">
     <use xlink:href="#DejaVuSans-30"/>
     <use xlink:href="#DejaVuSans-2e" x="63.623047"/>
     <use xlink:href="#DejaVuSans-35" x="95.410156"/>
     <use xlink:href="#DejaVuSans-35" x="159.033203"/>
     <use xlink:href="#DejaVuSans-32" x="222.65625"/>
     <use xlink:href="#DejaVuSans-38" x="286.279297"/>
    </g>
   </g>
   <g id="text_42">
    <!-- 0.2786 -->
    <g transform="translate(221.718353 235.423673) rotate(-90) scale(0.1 -0.1)">
     <use xlink:href="#DejaVuSans-30"/>
     <use xlink:href="#DejaVuSans-2e" x="63.623047"/>
     <use xlink:href="#DejaVuSans-32" x="95.410156"/>
     <use xlink:href="#DejaVuSans-37" x="159.033203"/>
     <use xlink:href="#DejaVuSans-38" x="222.65625"/>
     <use xlink:href="#DejaVuSans-36" x="286.279297"/>
    </g>
   </g>
   <g id="text_43">
    <!-- 0.2798 -->
    <g transform="translate(246.117166 234.770273) rotate(-90) scale(0.1 -0.1)">
     <use xlink:href="#DejaVuSans-30"/>
     <use xlink:href="#DejaVuSans-2e" x="63.623047"/>
     <use xlink:href="#DejaVuSans-32" x="95.410156"/>
     <use xlink:href="#DejaVuSans-37" x="159.033203"/>
     <use xlink:href="#DejaVuSans-39" x="222.65625"/>
     <use xlink:href="#DejaVuSans-38" x="286.279297"/>
    </g>
   </g>
   <g id="text_44">
    <!-- 0.2824 -->
    <g transform="translate(270.51598 233.366788) rotate(-90) scale(0.1 -0.1)">
     <use xlink:href="#DejaVuSans-30"/>
     <use xlink:href="#DejaVuSans-2e" x="63.623047"/>
     <use xlink:href="#DejaVuSans-32" x="95.410156"/>
     <use xlink:href="#DejaVuSans-38" x="159.033203"/>
     <use xlink:href="#DejaVuSans-32" x="222.65625"/>
     <use xlink:href="#DejaVuSans-34" x="286.279297"/>
    </g>
   </g>
   <g id="text_45">
    <!-- 0.3049 -->
    <g transform="translate(294.914793 220.999363) rotate(-90) scale(0.1 -0.1)">
     <use xlink:href="#DejaVuSans-30"/>
     <use xlink:href="#DejaVuSans-2e" x="63.623047"/>
     <use xlink:href="#DejaVuSans-33" x="95.410156"/>
     <use xlink:href="#DejaVuSans-30" x="159.033203"/>
     <use xlink:href="#DejaVuSans-34" x="222.65625"/>
     <use xlink:href="#DejaVuSans-39" x="286.279297"/>
    </g>
   </g>
   <g id="text_46">
    <!-- 0.3728 -->
    <g transform="translate(319.313607 183.656076) rotate(-90) scale(0.1 -0.1)">
     <use xlink:href="#DejaVuSans-30"/>
     <use xlink:href="#DejaVuSans-2e" x="63.623047"/>
     <use xlink:href="#DejaVuSans-33" x="95.410156"/>
     <use xlink:href="#DejaVuSans-37" x="159.033203"/>
     <use xlink:href="#DejaVuSans-32" x="222.65625"/>
     <use xlink:href="#DejaVuSans-38" x="286.279297"/>
    </g>
   </g>
   <g id="text_47">
    <!-- 0.4504 -->
    <g transform="translate(343.712421 141.019424) rotate(-90) scale(0.1 -0.1)">
     <use xlink:href="#DejaVuSans-30"/>
     <use xlink:href="#DejaVuSans-2e" x="63.623047"/>
     <use xlink:href="#DejaVuSans-34" x="95.410156"/>
     <use xlink:href="#DejaVuSans-35" x="159.033203"/>
     <use xlink:href="#DejaVuSans-30" x="222.65625"/>
     <use xlink:href="#DejaVuSans-34" x="286.279297"/>
    </g>
   </g>
   <g id="text_48">
    <!-- 0.5134 -->
    <g transform="translate(368.111234 106.374732) rotate(-90) scale(0.1 -0.1)">
     <use xlink:href="#DejaVuSans-30"/>
     <use xlink:href="#DejaVuSans-2e" x="63.623047"/>
     <use xlink:href="#DejaVuSans-35" x="95.410156"/>
     <use xlink:href="#DejaVuSans-31" x="159.033203"/>
     <use xlink:href="#DejaVuSans-33" x="222.65625"/>
     <use xlink:href="#DejaVuSans-34" x="286.279297"/>
    </g>
   </g>
   <g id="text_49">
    <!-- 0.2623 -->
    <g transform="translate(392.510048 244.421245) rotate(-90) scale(0.1 -0.1)">
     <use xlink:href="#DejaVuSans-30"/>
     <use xlink:href="#DejaVuSans-2e" x="63.623047"/>
     <use xlink:href="#DejaVuSans-32" x="95.410156"/>
     <use xlink:href="#DejaVuSans-36" x="159.033203"/>
     <use xlink:href="#DejaVuSans-32" x="222.65625"/>
     <use xlink:href="#DejaVuSans-33" x="286.279297"/>
    </g>
   </g>
   <g id="text_50">
    <!-- 0.2812 -->
    <g transform="translate(416.908861 234.015644) rotate(-90) scale(0.1 -0.1)">
     <use xlink:href="#DejaVuSans-30"/>
     <use xlink:href="#DejaVuSans-2e" x="63.623047"/>
     <use xlink:href="#DejaVuSans-32" x="95.410156"/>
     <use xlink:href="#DejaVuSans-38" x="159.033203"/>
     <use xlink:href="#DejaVuSans-31" x="222.65625"/>
     <use xlink:href="#DejaVuSans-32" x="286.279297"/>
    </g>
   </g>
   <g id="text_51">
    <!-- 0.2477 -->
    <g transform="translate(441.307675 252.41557) rotate(-90) scale(0.1 -0.1)">
     <use xlink:href="#DejaVuSans-30"/>
     <use xlink:href="#DejaVuSans-2e" x="63.623047"/>
     <use xlink:href="#DejaVuSans-32" x="95.410156"/>
     <use xlink:href="#DejaVuSans-34" x="159.033203"/>
     <use xlink:href="#DejaVuSans-37" x="222.65625"/>
     <use xlink:href="#DejaVuSans-37" x="286.279297"/>
    </g>
   </g>
   <g id="text_52">
    <!-- 0.2491 -->
    <g transform="translate(465.706488 251.662991) rotate(-90) scale(0.1 -0.1)">
     <use xlink:href="#DejaVuSans-30"/>
     <use xlink:href="#DejaVuSans-2e" x="63.623047"/>
     <use xlink:href="#DejaVuSans-32" x="95.410156"/>
     <use xlink:href="#DejaVuSans-34" x="159.033203"/>
     <use xlink:href="#DejaVuSans-39" x="222.65625"/>
     <use xlink:href="#DejaVuSans-31" x="286.279297"/>
    </g>
   </g>
   <g id="text_53">
    <!-- 0.2469 -->
    <g transform="translate(490.105302 252.871585) rotate(-90) scale(0.1 -0.1)">
     <use xlink:href="#DejaVuSans-30"/>
     <use xlink:href="#DejaVuSans-2e" x="63.623047"/>
     <use xlink:href="#DejaVuSans-32" x="95.410156"/>
     <use xlink:href="#DejaVuSans-34" x="159.033203"/>
     <use xlink:href="#DejaVuSans-36" x="222.65625"/>
     <use xlink:href="#DejaVuSans-39" x="286.279297"/>
    </g>
   </g>
   <g id="text_54">
    <!-- 0.2507 -->
    <g transform="translate(514.504116 250.808833) rotate(-90) scale(0.1 -0.1)">
     <use xlink:href="#DejaVuSans-30"/>
     <use xlink:href="#DejaVuSans-2e" x="63.623047"/>
     <use xlink:href="#DejaVuSans-32" x="95.410156"/>
     <use xlink:href="#DejaVuSans-35" x="159.033203"/>
     <use xlink:href="#DejaVuSans-30" x="222.65625"/>
     <use xlink:href="#DejaVuSans-37" x="286.279297"/>
    </g>
   </g>
   <g id="text_55">
    <!-- 0.2580 -->
    <g transform="translate(538.902929 246.750534) rotate(-90) scale(0.1 -0.1)">
     <use xlink:href="#DejaVuSans-30"/>
     <use xlink:href="#DejaVuSans-2e" x="63.623047"/>
     <use xlink:href="#DejaVuSans-32" x="95.410156"/>
     <use xlink:href="#DejaVuSans-35" x="159.033203"/>
     <use xlink:href="#DejaVuSans-38" x="222.65625"/>
     <use xlink:href="#DejaVuSans-30" x="286.279297"/>
    </g>
   </g>
   <g id="text_56">
    <!-- 0.2685 -->
    <g transform="translate(563.301743 241.009293) rotate(-90) scale(0.1 -0.1)">
     <use xlink:href="#DejaVuSans-30"/>
     <use xlink:href="#DejaVuSans-2e" x="63.623047"/>
     <use xlink:href="#DejaVuSans-32" x="95.410156"/>
     <use xlink:href="#DejaVuSans-36" x="159.033203"/>
     <use xlink:href="#DejaVuSans-38" x="222.65625"/>
     <use xlink:href="#DejaVuSans-35" x="286.279297"/>
    </g>
   </g>
   <g id="text_57">
    <!-- 0.2796 -->
    <g transform="translate(587.700556 234.908704) rotate(-90) scale(0.1 -0.1)">
     <use xlink:href="#DejaVuSans-30"/>
     <use xlink:href="#DejaVuSans-2e" x="63.623047"/>
     <use xlink:href="#DejaVuSans-32" x="95.410156"/>
     <use xlink:href="#DejaVuSans-37" x="159.033203"/>
     <use xlink:href="#DejaVuSans-39" x="222.65625"/>
     <use xlink:href="#DejaVuSans-36" x="286.279297"/>
    </g>
   </g>
   <g id="text_58">
    <!-- 0.2783 -->
    <g transform="translate(612.09937 235.640375) rotate(-90) scale(0.1 -0.1)">
     <use xlink:href="#DejaVuSans-30"/>
     <use xlink:href="#DejaVuSans-2e" x="63.623047"/>
     <use xlink:href="#DejaVuSans-32" x="95.410156"/>
     <use xlink:href="#DejaVuSans-37" x="159.033203"/>
     <use xlink:href="#DejaVuSans-38" x="222.65625"/>
     <use xlink:href="#DejaVuSans-33" x="286.279297"/>
    </g>
   </g>
   <g id="text_59">
    <!-- 0.2772 -->
    <g transform="translate(636.498184 236.208737) rotate(-90) scale(0.1 -0.1)">
     <use xlink:href="#DejaVuSans-30"/>
     <use xlink:href="#DejaVuSans-2e" x="63.623047"/>
     <use xlink:href="#DejaVuSans-32" x="95.410156"/>
     <use xlink:href="#DejaVuSans-37" x="159.033203"/>
     <use xlink:href="#DejaVuSans-37" x="222.65625"/>
     <use xlink:href="#DejaVuSans-32" x="286.279297"/>
    </g>
   </g>
   <g id="text_60">
    <!-- 0.2765 -->
    <g transform="translate(660.896997 236.609559) rotate(-90) scale(0.1 -0.1)">
     <use xlink:href="#DejaVuSans-30"/>
     <use xlink:href="#DejaVuSans-2e" x="63.623047"/>
     <use xlink:href="#DejaVuSans-32" x="95.410156"/>
     <use xlink:href="#DejaVuSans-37" x="159.033203"/>
     <use xlink:href="#DejaVuSans-36" x="222.65625"/>
     <use xlink:href="#DejaVuSans-35" x="286.279297"/>
    </g>
   </g>
   <g id="text_61">
    <!-- 0.2761 -->
    <g transform="translate(685.295811 236.840284) rotate(-90) scale(0.1 -0.1)">
     <use xlink:href="#DejaVuSans-30"/>
     <use xlink:href="#DejaVuSans-2e" x="63.623047"/>
     <use xlink:href="#DejaVuSans-32" x="95.410156"/>
     <use xlink:href="#DejaVuSans-37" x="159.033203"/>
     <use xlink:href="#DejaVuSans-36" x="222.65625"/>
     <use xlink:href="#DejaVuSans-31" x="286.279297"/>
    </g>
   </g>
   <g id="legend_1">
    <g id="patch_85">
     <path d="M 402.069135 34.013209 
L 708.59976 34.013209 
Q 710.99976 34.013209 710.99976 31.613209 
L 710.99976 15.199459 
Q 710.99976 12.799459 708.59976 12.799459 
L 402.069135 12.799459 
Q 399.669135 12.799459 399.669135 15.199459 
L 399.669135 31.613209 
Q 399.669135 34.013209 402.069135 34.013209 
z
" style="fill: #ffffff; opacity: 0.8; stroke: #cccccc; stroke-linejoin: miter"/>
    </g>
    <g id="patch_86">
     <path d="M 404.469135 26.717584 
L 428.469135 26.717584 
L 428.469135 18.317584 
L 404.469135 18.317584 
z
" style="fill: #6698c4"/>
    </g>
    <g id="text_62">
     <!-- Distance+ -->
     <g transform="translate(438.069135 26.717584) scale(0.12 -0.12)">
      <defs>
       <path id="DejaVuSans-44" d="M 1259 4147 
L 1259 519 
L 2022 519 
Q 2988 519 3436 956 
Q 3884 1394 3884 2338 
Q 3884 3275 3436 3711 
Q 2988 4147 2022 4147 
L 1259 4147 
z
M 628 4666 
L 1925 4666 
Q 3281 4666 3915 4102 
Q 4550 3538 4550 2338 
Q 4550 1131 3912 565 
Q 3275 0 1925 0 
L 628 0 
L 628 4666 
z
" transform="scale(0.015625)"/>
       <path id="DejaVuSans-73" d="M 2834 3397 
L 2834 2853 
Q 2591 2978 2328 3040 
Q 2066 3103 1784 3103 
Q 1356 3103 1142 2972 
Q 928 2841 928 2578 
Q 928 2378 1081 2264 
Q 1234 2150 1697 2047 
L 1894 2003 
Q 2506 1872 2764 1633 
Q 3022 1394 3022 966 
Q 3022 478 2636 193 
Q 2250 -91 1575 -91 
Q 1294 -91 989 -36 
Q 684 19 347 128 
L 347 722 
Q 666 556 975 473 
Q 1284 391 1588 391 
Q 1994 391 2212 530 
Q 2431 669 2431 922 
Q 2431 1156 2273 1281 
Q 2116 1406 1581 1522 
L 1381 1569 
Q 847 1681 609 1914 
Q 372 2147 372 2553 
Q 372 3047 722 3315 
Q 1072 3584 1716 3584 
Q 2034 3584 2315 3537 
Q 2597 3491 2834 3397 
z
" transform="scale(0.015625)"/>
       <path id="DejaVuSans-61" d="M 2194 1759 
Q 1497 1759 1228 1600 
Q 959 1441 959 1056 
Q 959 750 1161 570 
Q 1363 391 1709 391 
Q 2188 391 2477 730 
Q 2766 1069 2766 1631 
L 2766 1759 
L 2194 1759 
z
M 3341 1997 
L 3341 0 
L 2766 0 
L 2766 531 
Q 2569 213 2275 61 
Q 1981 -91 1556 -91 
Q 1019 -91 701 211 
Q 384 513 384 1019 
Q 384 1609 779 1909 
Q 1175 2209 1959 2209 
L 2766 2209 
L 2766 2266 
Q 2766 2663 2505 2880 
Q 2244 3097 1772 3097 
Q 1472 3097 1187 3025 
Q 903 2953 641 2809 
L 641 3341 
Q 956 3463 1253 3523 
Q 1550 3584 1831 3584 
Q 2591 3584 2966 3190 
Q 3341 2797 3341 1997 
z
" transform="scale(0.015625)"/>
       <path id="DejaVuSans-6e" d="M 3513 2113 
L 3513 0 
L 2938 0 
L 2938 2094 
Q 2938 2591 2744 2837 
Q 2550 3084 2163 3084 
Q 1697 3084 1428 2787 
Q 1159 2491 1159 1978 
L 1159 0 
L 581 0 
L 581 3500 
L 1159 3500 
L 1159 2956 
Q 1366 3272 1645 3428 
Q 1925 3584 2291 3584 
Q 2894 3584 3203 3211 
Q 3513 2838 3513 2113 
z
" transform="scale(0.015625)"/>
       <path id="DejaVuSans-2b" d="M 2944 4013 
L 2944 2272 
L 4684 2272 
L 4684 1741 
L 2944 1741 
L 2944 0 
L 2419 0 
L 2419 1741 
L 678 1741 
L 678 2272 
L 2419 2272 
L 2419 4013 
L 2944 4013 
z
" transform="scale(0.015625)"/>
      </defs>
      <use xlink:href="#DejaVuSans-44"/>
      <use xlink:href="#DejaVuSans-69" x="77.001953"/>
      <use xlink:href="#DejaVuSans-73" x="104.785156"/>
      <use xlink:href="#DejaVuSans-74" x="156.884766"/>
      <use xlink:href="#DejaVuSans-61" x="196.09375"/>
      <use xlink:href="#DejaVuSans-6e" x="257.373047"/>
      <use xlink:href="#DejaVuSans-63" x="320.751953"/>
      <use xlink:href="#DejaVuSans-65" x="375.732422"/>
      <use xlink:href="#DejaVuSans-2b" x="437.255859"/>
     </g>
    </g>
    <g id="patch_87">
     <path d="M 524.59476 26.717584 
L 548.59476 26.717584 
L 548.59476 18.317584 
L 524.59476 18.317584 
z
" style="fill: #ffe69a"/>
    </g>
    <g id="text_63">
     <!-- Distance- -->
     <g transform="translate(558.19476 26.717584) scale(0.12 -0.12)">
      <defs>
       <path id="DejaVuSans-2d" d="M 313 2009 
L 1997 2009 
L 1997 1497 
L 313 1497 
L 313 2009 
z
" transform="scale(0.015625)"/>
      </defs>
      <use xlink:href="#DejaVuSans-44"/>
      <use xlink:href="#DejaVuSans-69" x="77.001953"/>
      <use xlink:href="#DejaVuSans-73" x="104.785156"/>
      <use xlink:href="#DejaVuSans-74" x="156.884766"/>
      <use xlink:href="#DejaVuSans-61" x="196.09375"/>
      <use xlink:href="#DejaVuSans-6e" x="257.373047"/>
      <use xlink:href="#DejaVuSans-63" x="320.751953"/>
      <use xlink:href="#DejaVuSans-65" x="375.732422"/>
      <use xlink:href="#DejaVuSans-2d" x="437.255859"/>
     </g>
    </g>
    <g id="patch_88">
     <path d="M 638.994135 26.717584 
L 662.994135 26.717584 
L 662.994135 18.317584 
L 638.994135 18.317584 
z
" style="fill: #fab28c"/>
    </g>
    <g id="text_64">
     <!-- Score -->
     <g transform="translate(672.594135 26.717584) scale(0.12 -0.12)">
      <defs>
       <path id="DejaVuSans-53" d="M 3425 4513 
L 3425 3897 
Q 3066 4069 2747 4153 
Q 2428 4238 2131 4238 
Q 1616 4238 1336 4038 
Q 1056 3838 1056 3469 
Q 1056 3159 1242 3001 
Q 1428 2844 1947 2747 
L 2328 2669 
Q 3034 2534 3370 2195 
Q 3706 1856 3706 1288 
Q 3706 609 3251 259 
Q 2797 -91 1919 -91 
Q 1588 -91 1214 -16 
Q 841 59 441 206 
L 441 856 
Q 825 641 1194 531 
Q 1563 422 1919 422 
Q 2459 422 2753 634 
Q 3047 847 3047 1241 
Q 3047 1584 2836 1778 
Q 2625 1972 2144 2069 
L 1759 2144 
Q 1053 2284 737 2584 
Q 422 2884 422 3419 
Q 422 4038 858 4394 
Q 1294 4750 2059 4750 
Q 2388 4750 2728 4690 
Q 3069 4631 3425 4513 
z
" transform="scale(0.015625)"/>
       <path id="DejaVuSans-72" d="M 2631 2963 
Q 2534 3019 2420 3045 
Q 2306 3072 2169 3072 
Q 1681 3072 1420 2755 
Q 1159 2438 1159 1844 
L 1159 0 
L 581 0 
L 581 3500 
L 1159 3500 
L 1159 2956 
Q 1341 3275 1631 3429 
Q 1922 3584 2338 3584 
Q 2397 3584 2469 3576 
Q 2541 3569 2628 3553 
L 2631 2963 
z
" transform="scale(0.015625)"/>
      </defs>
      <use xlink:href="#DejaVuSans-53"/>
      <use xlink:href="#DejaVuSans-63" x="63.476562"/>
      <use xlink:href="#DejaVuSans-6f" x="118.457031"/>
      <use xlink:href="#DejaVuSans-72" x="179.638672"/>
      <use xlink:href="#DejaVuSans-65" x="218.501953"/>
     </g>
    </g>
   </g>
  </g>
 </g>
 <defs>
  <clipPath id="pde067b3f91">
   <rect x="25.903365" y="6.799459" width="691.096395" height="384.798376"/>
  </clipPath>
 </defs>
</svg>
